G04*
G04 #@! TF.GenerationSoftware,Altium Limited,Altium Designer,23.2.1 (34)*
G04*
G04 Layer_Color=16711935*
%FSLAX45Y45*%
%MOMM*%
G71*
G04*
G04 #@! TF.SameCoordinates,6E3D6F93-4A61-4C57-BA4F-68D24251A383*
G04*
G04*
G04 #@! TF.FilePolarity,Negative*
G04*
G01*
G75*
%ADD35R,1.40320X1.60320*%
%ADD51C,1.45320*%
%ADD52C,1.52420*%
%ADD53C,1.70320*%
%ADD54R,1.70320X1.70320*%
%ADD55C,1.80320*%
%ADD56R,1.80320X1.80320*%
%ADD57C,1.30320*%
%ADD58R,1.30320X1.30320*%
G04:AMPARAMS|DCode=59|XSize=5.2032mm|YSize=10.2032mm|CornerRadius=1.3516mm|HoleSize=0mm|Usage=FLASHONLY|Rotation=90.000|XOffset=0mm|YOffset=0mm|HoleType=Round|Shape=RoundedRectangle|*
%AMROUNDEDRECTD59*
21,1,5.20320,7.50000,0,0,90.0*
21,1,2.50000,10.20320,0,0,90.0*
1,1,2.70320,3.75000,1.25000*
1,1,2.70320,3.75000,-1.25000*
1,1,2.70320,-3.75000,-1.25000*
1,1,2.70320,-3.75000,1.25000*
%
%ADD59ROUNDEDRECTD59*%
%ADD60C,6.20320*%
%ADD61C,2.00320*%
%ADD62R,1.80320X1.80320*%
%ADD63C,2.10320*%
%ADD64R,2.33320X2.33320*%
%ADD65C,2.33320*%
%ADD66C,1.75320*%
%ADD67R,1.75320X1.75320*%
%ADD68R,1.75320X1.75320*%
%ADD69C,1.72320*%
%ADD70R,1.72320X1.72320*%
%ADD71C,5.00320*%
%ADD72C,0.90320*%
%ADD73C,1.47320*%
G04:AMPARAMS|DCode=108|XSize=5.2032mm|YSize=2.7032mm|CornerRadius=0.7266mm|HoleSize=0mm|Usage=FLASHONLY|Rotation=0.000|XOffset=0mm|YOffset=0mm|HoleType=Round|Shape=RoundedRectangle|*
%AMROUNDEDRECTD108*
21,1,5.20320,1.25000,0,0,0.0*
21,1,3.75000,2.70320,0,0,0.0*
1,1,1.45320,1.87500,-0.62500*
1,1,1.45320,-1.87500,-0.62500*
1,1,1.45320,-1.87500,0.62500*
1,1,1.45320,1.87500,0.62500*
%
%ADD108ROUNDEDRECTD108*%
D35*
X16618900Y5644200D02*
D03*
X16798900D02*
D03*
X16808900Y1954300D02*
D03*
X16628900D02*
D03*
D51*
X921000Y1220733D02*
D03*
X1175000Y966733D02*
D03*
X1429000Y1220733D02*
D03*
D52*
X14532001Y6201000D02*
D03*
X14282001D02*
D03*
X14583000Y2490000D02*
D03*
X14333000D02*
D03*
X750000Y2124000D02*
D03*
X1000000D02*
D03*
X750000Y2974000D02*
D03*
X1000000D02*
D03*
X750000Y2548999D02*
D03*
X1000000D02*
D03*
X750000Y3399000D02*
D03*
X1000000D02*
D03*
X750000Y4249000D02*
D03*
X1000000D02*
D03*
X750000Y3823999D02*
D03*
X1000000D02*
D03*
X750000Y5098999D02*
D03*
X1000000D02*
D03*
X750000Y4674000D02*
D03*
X1000000D02*
D03*
D53*
X14450000Y10000000D02*
D03*
X16450000Y12200000D02*
D03*
Y10000000D02*
D03*
X18450000D02*
D03*
Y12200000D02*
D03*
D54*
X15200000Y10000000D02*
D03*
X17200000Y12200000D02*
D03*
Y10000000D02*
D03*
X19200000D02*
D03*
Y12200000D02*
D03*
D55*
X14000000Y12373000D02*
D03*
Y13073000D02*
D03*
Y1777300D02*
D03*
Y5487200D02*
D03*
X13250000Y12627000D02*
D03*
Y13327000D02*
D03*
Y5741200D02*
D03*
Y2031300D02*
D03*
X5362000Y412500D02*
D03*
X5108000D02*
D03*
X5616000D02*
D03*
X5870000D02*
D03*
X7607851D02*
D03*
X7353851D02*
D03*
X7861851D02*
D03*
X8115851D02*
D03*
X360000Y6093000D02*
D03*
Y6601000D02*
D03*
Y6347000D02*
D03*
Y5839000D02*
D03*
Y5585000D02*
D03*
D56*
X14000000Y12627000D02*
D03*
Y13327000D02*
D03*
Y2031300D02*
D03*
Y5741200D02*
D03*
X13250000Y12373000D02*
D03*
Y13073000D02*
D03*
Y5487200D02*
D03*
Y1777300D02*
D03*
X360000Y6855000D02*
D03*
D57*
X4726000Y13344000D02*
D03*
X12221999Y11866000D02*
D03*
Y13316000D02*
D03*
X4726000Y11755891D02*
D03*
X16878900Y6324200D02*
D03*
Y6154200D02*
D03*
X16708900Y6494200D02*
D03*
Y6664200D02*
D03*
X16878900Y6494200D02*
D03*
Y6664200D02*
D03*
X16708900Y6154200D02*
D03*
Y6324200D02*
D03*
X16718900Y2434300D02*
D03*
X16898900D02*
D03*
Y2604300D02*
D03*
Y2774300D02*
D03*
Y2944300D02*
D03*
X16718900D02*
D03*
Y2774300D02*
D03*
Y2604300D02*
D03*
D58*
X4726000Y13594000D02*
D03*
X12221999Y12116000D02*
D03*
Y13066000D02*
D03*
X4726000Y11505891D02*
D03*
D59*
X11230000Y15739999D02*
D03*
X12550000D02*
D03*
X8340000D02*
D03*
X7090000D02*
D03*
X5840000D02*
D03*
X4610000D02*
D03*
D60*
X9932000Y10486000D02*
D03*
Y14486000D02*
D03*
X2786000Y10594000D02*
D03*
Y14594000D02*
D03*
D61*
X19450000Y14560001D02*
D03*
X18450000D02*
D03*
D62*
X4854000Y412500D02*
D03*
X7099851D02*
D03*
D63*
X17600000Y15537500D02*
D03*
X18650000D02*
D03*
X18300000D02*
D03*
X17950000D02*
D03*
D64*
X19439999Y13774574D02*
D03*
D65*
X18439999D02*
D03*
X17689999D02*
D03*
X16939999D02*
D03*
D66*
X10227627Y412500D02*
D03*
X10481628D02*
D03*
X11103053D02*
D03*
X11357053D02*
D03*
X12871001D02*
D03*
X13125000D02*
D03*
X11983500D02*
D03*
X12237500D02*
D03*
X9352202D02*
D03*
X9606202D02*
D03*
X375000Y7935000D02*
D03*
Y7681000D02*
D03*
Y8954000D02*
D03*
Y8700000D02*
D03*
Y9953000D02*
D03*
Y9699000D02*
D03*
Y10978000D02*
D03*
Y10724000D02*
D03*
X6230926Y412500D02*
D03*
X6484926D02*
D03*
X8476777D02*
D03*
X8730777D02*
D03*
D67*
X10735627D02*
D03*
X11611053D02*
D03*
X13378999D02*
D03*
X12491500D02*
D03*
X9860202D02*
D03*
X6738926D02*
D03*
X8984777D02*
D03*
D68*
X375000Y7427000D02*
D03*
Y8446000D02*
D03*
Y9445000D02*
D03*
Y10470000D02*
D03*
D69*
X4477075Y412500D02*
D03*
X4223075D02*
D03*
X3969075D02*
D03*
X3715075D02*
D03*
X3207075D02*
D03*
X2699075D02*
D03*
X2445075D02*
D03*
X1937075D02*
D03*
X1683075D02*
D03*
X1429075D02*
D03*
X921075D02*
D03*
X1175075D02*
D03*
X2191075D02*
D03*
X2953075D02*
D03*
X3461075D02*
D03*
D70*
X667075D02*
D03*
D71*
X13312500Y900000D02*
D03*
X13962500Y275000D02*
D03*
X13325000Y15737500D02*
D03*
X262500D02*
D03*
X350000Y962500D02*
D03*
X19737500Y262500D02*
D03*
Y15737500D02*
D03*
X13950000D02*
D03*
D72*
X9124000Y3945000D02*
D03*
X12972000Y3947000D02*
D03*
X9127000Y8623000D02*
D03*
X9009000Y3816000D02*
D03*
X12240000D02*
D03*
X9014000Y8301000D02*
D03*
X7890000Y8235000D02*
D03*
X8221000Y8110000D02*
D03*
X7963000Y7978000D02*
D03*
X8673000Y7539000D02*
D03*
X8300000Y8300000D02*
D03*
X7095000Y8482000D02*
D03*
X6995000Y8238000D02*
D03*
X8179000Y10901000D02*
D03*
X7951000Y10970000D02*
D03*
X7217000Y9247000D02*
D03*
X7212000Y8122000D02*
D03*
X6590000Y8430000D02*
D03*
X8360000Y9940000D02*
D03*
X9170000Y12040000D02*
D03*
X8430000Y8620000D02*
D03*
X7900699Y8560000D02*
D03*
X7682807Y8540000D02*
D03*
X7592807Y8490000D02*
D03*
X7682807Y8440000D02*
D03*
X15060001Y1570000D02*
D03*
X13923000Y6020000D02*
D03*
X13922000Y2310000D02*
D03*
X15064900Y5284200D02*
D03*
X16408900Y5644200D02*
D03*
X17248900D02*
D03*
X18258900Y6344200D02*
D03*
X2705800Y2979400D02*
D03*
X10582000Y13906000D02*
D03*
X10482000Y13816000D02*
D03*
X10582000Y13725999D02*
D03*
X8220000Y3515000D02*
D03*
X18058900Y2624300D02*
D03*
X5275000Y1875000D02*
D03*
X2710000Y2050000D02*
D03*
X5040000D02*
D03*
X4950000Y2240000D02*
D03*
X2450000Y2250000D02*
D03*
X2200000D02*
D03*
X4900000Y2410000D02*
D03*
X9271999Y13306000D02*
D03*
X10582000Y11196000D02*
D03*
Y11286000D02*
D03*
Y11376000D02*
D03*
X10482000Y11196000D02*
D03*
Y11286000D02*
D03*
Y11376000D02*
D03*
X10582000Y11466000D02*
D03*
X10482000D02*
D03*
X3426000Y11214000D02*
D03*
Y11394000D02*
D03*
Y11304000D02*
D03*
X3326000Y11214000D02*
D03*
Y11304000D02*
D03*
Y11394000D02*
D03*
Y11484000D02*
D03*
X3426000D02*
D03*
X10582000Y13636000D02*
D03*
Y13816000D02*
D03*
X10482000Y13906000D02*
D03*
Y13725999D02*
D03*
Y13636000D02*
D03*
X3416000Y13814000D02*
D03*
X3326000Y13903999D02*
D03*
Y13724001D02*
D03*
X3416000Y13634000D02*
D03*
Y13724001D02*
D03*
X3326000Y13634000D02*
D03*
X3416000Y13903999D02*
D03*
X3326000Y13814000D02*
D03*
X16418900Y1954300D02*
D03*
X17258900D02*
D03*
X14453101Y13091400D02*
D03*
X11365000Y3510000D02*
D03*
X1300000Y9440000D02*
D03*
X1806000Y13325465D02*
D03*
X5675000Y6010000D02*
D03*
X5805000Y5855000D02*
D03*
X4930000Y6005000D02*
D03*
X4775000Y5890000D02*
D03*
X4625000Y5765000D02*
D03*
X4475000Y5660000D02*
D03*
X1915000Y7575000D02*
D03*
X1920000Y8470000D02*
D03*
X1800000Y8705000D02*
D03*
X1795000Y8310000D02*
D03*
X1680000Y8180000D02*
D03*
X1710000Y9700000D02*
D03*
X1555000Y8055000D02*
D03*
Y10725000D02*
D03*
X1425000Y7930000D02*
D03*
Y10465000D02*
D03*
X1305000Y7830000D02*
D03*
X1175000Y7725000D02*
D03*
Y8445000D02*
D03*
X6920000Y5350000D02*
D03*
X7150000D02*
D03*
Y5850000D02*
D03*
X7000000Y6010000D02*
D03*
X2250000Y5650000D02*
D03*
Y5830000D02*
D03*
X2410000Y5770000D02*
D03*
X2400000Y6090000D02*
D03*
X2550000Y5900000D02*
D03*
Y6350000D02*
D03*
X2690000Y6000000D02*
D03*
Y6600000D02*
D03*
X10487500Y3400000D02*
D03*
X9612500Y3287500D02*
D03*
X8712500Y3225000D02*
D03*
X7350000Y3062500D02*
D03*
X7087500Y2975000D02*
D03*
X5612500Y2812500D02*
D03*
X5750000Y2600000D02*
D03*
X4700000Y962500D02*
D03*
X4937500Y837500D02*
D03*
X5400000Y1062500D02*
D03*
X5875000D02*
D03*
X5075000Y3100000D02*
D03*
X4350000Y2975000D02*
D03*
X4462500Y1062500D02*
D03*
X4350000Y962500D02*
D03*
X4225000Y850000D02*
D03*
X4100000Y750000D02*
D03*
X5075000Y3225000D02*
D03*
X5612500Y937500D02*
D03*
X5362500Y837500D02*
D03*
X5100000Y737500D02*
D03*
X1787500Y2894600D02*
D03*
X1937500Y2812500D02*
D03*
X4737500Y2900000D02*
D03*
X4625000Y2812500D02*
D03*
X3725000Y4675000D02*
D03*
X3962500Y5100000D02*
D03*
X1500000D02*
D03*
Y4675000D02*
D03*
X3462500Y4250000D02*
D03*
X1500000D02*
D03*
Y3825000D02*
D03*
X3212500D02*
D03*
X2950000Y3400000D02*
D03*
X1500000D02*
D03*
Y2975000D02*
D03*
Y2125000D02*
D03*
Y2550000D02*
D03*
X2450000D02*
D03*
X2962500Y1875000D02*
D03*
X3212500Y1750000D02*
D03*
X5360850D02*
D03*
X5437500Y1637500D02*
D03*
X3462500Y1625000D02*
D03*
X5525000Y1500000D02*
D03*
X3725000D02*
D03*
X5612500Y1375000D02*
D03*
X3962500D02*
D03*
X6162500Y2037500D02*
D03*
X162500Y5100000D02*
D03*
Y2125000D02*
D03*
Y2550000D02*
D03*
Y2975000D02*
D03*
Y3400000D02*
D03*
Y3825000D02*
D03*
Y4250000D02*
D03*
Y4675000D02*
D03*
X5845000Y7802500D02*
D03*
D73*
X10132000Y12460000D02*
D03*
X9932000D02*
D03*
X9732000D02*
D03*
Y12680000D02*
D03*
Y12850000D02*
D03*
X2776000Y12272966D02*
D03*
X10132000Y12680000D02*
D03*
X9932000D02*
D03*
X10132000Y12256000D02*
D03*
X9932000D02*
D03*
X9732000D02*
D03*
Y12076000D02*
D03*
X9932000D02*
D03*
X10132000D02*
D03*
Y13006000D02*
D03*
X9932000D02*
D03*
X9732000D02*
D03*
X9932000Y12850000D02*
D03*
X10132000D02*
D03*
X2976000Y12272966D02*
D03*
X2776000Y12435466D02*
D03*
X2576000Y12435466D02*
D03*
Y12685466D02*
D03*
X2976000Y12435466D02*
D03*
X2576000Y12272966D02*
D03*
X2776000Y12685466D02*
D03*
X2976000Y12685466D02*
D03*
X2576000Y12110466D02*
D03*
X2776000D02*
D03*
X2976000D02*
D03*
X2576000Y13010466D02*
D03*
X2776000D02*
D03*
X2976000Y13010500D02*
D03*
X2576000Y12847966D02*
D03*
X2776000D02*
D03*
X2976000D02*
D03*
D108*
X18471800Y15539500D02*
D03*
X17771899Y15541499D02*
D03*
M02*
