G04*
G04 #@! TF.GenerationSoftware,Altium Limited,Altium Designer,23.2.1 (34)*
G04*
G04 Layer_Color=12632256*
%FSLAX45Y45*%
%MOMM*%
G71*
G04*
G04 #@! TF.SameCoordinates,6E3D6F93-4A61-4C57-BA4F-68D24251A383*
G04*
G04*
G04 #@! TF.FilePolarity,Positive*
G04*
G01*
G75*
%ADD84C,1.25000*%
%ADD85C,1.32100*%
%ADD86C,1.50000*%
%ADD87R,1.50000X1.50000*%
%ADD88C,1.60000*%
%ADD89R,1.60000X1.60000*%
%ADD90C,1.10000*%
%ADD91R,1.10000X1.10000*%
G04:AMPARAMS|DCode=92|XSize=5mm|YSize=10mm|CornerRadius=1.25mm|HoleSize=0mm|Usage=FLASHONLY|Rotation=90.000|XOffset=0mm|YOffset=0mm|HoleType=Round|Shape=RoundedRectangle|*
%AMROUNDEDRECTD92*
21,1,5.00000,7.50000,0,0,90.0*
21,1,2.50000,10.00000,0,0,90.0*
1,1,2.50000,3.75000,1.25000*
1,1,2.50000,3.75000,-1.25000*
1,1,2.50000,-3.75000,-1.25000*
1,1,2.50000,-3.75000,1.25000*
%
%ADD92ROUNDEDRECTD92*%
%ADD93C,6.00000*%
%ADD94C,1.80000*%
%ADD95R,1.60000X1.60000*%
%ADD96C,1.90000*%
%ADD97R,2.13000X2.13000*%
%ADD98C,2.13000*%
%ADD99C,1.55000*%
%ADD100R,1.55000X1.55000*%
%ADD101R,1.55000X1.55000*%
%ADD102C,1.52000*%
%ADD103R,1.52000X1.52000*%
%ADD104C,4.80000*%
G36*
X18100000Y13460001D02*
X17300000D01*
Y14120000D01*
X17420000Y14239999D01*
Y15980000D01*
X18100000D01*
Y15530000D01*
D01*
Y13460001D01*
D02*
G37*
G36*
X19920000Y15050000D02*
Y14150000D01*
X19370000D01*
X18139999Y15380000D01*
Y15980000D01*
X18989999D01*
X19920000Y15050000D01*
D02*
G37*
G36*
X18720000Y14630000D02*
Y13600000D01*
X18210001D01*
X18200000Y13610001D01*
Y14750000D01*
X18600000D01*
X18720000Y14630000D01*
D02*
G37*
D84*
X921000Y1220733D02*
D03*
X1175000Y966733D02*
D03*
X1429000Y1220733D02*
D03*
D85*
X14532001Y6201000D02*
D03*
X14282001D02*
D03*
X14583000Y2490000D02*
D03*
X14333000D02*
D03*
X750000Y2124000D02*
D03*
X1000000D02*
D03*
X750000Y2974000D02*
D03*
X1000000D02*
D03*
X750000Y2548999D02*
D03*
X1000000D02*
D03*
X750000Y3399000D02*
D03*
X1000000D02*
D03*
X750000Y4249000D02*
D03*
X1000000D02*
D03*
X750000Y3823999D02*
D03*
X1000000D02*
D03*
X750000Y5098999D02*
D03*
X1000000D02*
D03*
X750000Y4674000D02*
D03*
X1000000D02*
D03*
D86*
X14450000Y10000000D02*
D03*
X16450000Y12200000D02*
D03*
Y10000000D02*
D03*
X18450000D02*
D03*
Y12200000D02*
D03*
D87*
X15200000Y10000000D02*
D03*
X17200000Y12200000D02*
D03*
Y10000000D02*
D03*
X19200000D02*
D03*
Y12200000D02*
D03*
D88*
X14000000Y12373000D02*
D03*
Y13073000D02*
D03*
Y1777300D02*
D03*
Y5487200D02*
D03*
X13250000Y12627000D02*
D03*
Y13327000D02*
D03*
Y5741200D02*
D03*
Y2031300D02*
D03*
X5362000Y412500D02*
D03*
X5108000D02*
D03*
X5616000D02*
D03*
X5870000D02*
D03*
X7607851D02*
D03*
X7353851D02*
D03*
X7861851D02*
D03*
X8115851D02*
D03*
X360000Y6093000D02*
D03*
Y6601000D02*
D03*
Y6347000D02*
D03*
Y5839000D02*
D03*
Y5585000D02*
D03*
D89*
X14000000Y12627000D02*
D03*
Y13327000D02*
D03*
Y2031300D02*
D03*
Y5741200D02*
D03*
X13250000Y12373000D02*
D03*
Y13073000D02*
D03*
Y5487200D02*
D03*
Y1777300D02*
D03*
X360000Y6855000D02*
D03*
D90*
X4726000Y13344000D02*
D03*
X12221999Y11866000D02*
D03*
Y13316000D02*
D03*
X4726000Y11755891D02*
D03*
D91*
Y13594000D02*
D03*
X12221999Y12116000D02*
D03*
Y13066000D02*
D03*
X4726000Y11505891D02*
D03*
D92*
X11230000Y15739999D02*
D03*
X12550000D02*
D03*
X8340000D02*
D03*
X7090000D02*
D03*
X5840000D02*
D03*
X4610000D02*
D03*
D93*
X9932000Y10486000D02*
D03*
Y14486000D02*
D03*
X2786000Y10594000D02*
D03*
Y14594000D02*
D03*
D94*
X19450000Y14560001D02*
D03*
X18450000D02*
D03*
D95*
X4854000Y412500D02*
D03*
X7099851D02*
D03*
D96*
X17600000Y15537500D02*
D03*
X18650000D02*
D03*
X18300000D02*
D03*
X17950000D02*
D03*
D97*
X19439999Y13774574D02*
D03*
D98*
X18439999D02*
D03*
X17689999D02*
D03*
X16939999D02*
D03*
D99*
X10227627Y412500D02*
D03*
X10481628D02*
D03*
X11103053D02*
D03*
X11357053D02*
D03*
X12871001D02*
D03*
X13125000D02*
D03*
X11983500D02*
D03*
X12237500D02*
D03*
X9352202D02*
D03*
X9606202D02*
D03*
X375000Y7935000D02*
D03*
Y7681000D02*
D03*
Y8954000D02*
D03*
Y8700000D02*
D03*
Y9953000D02*
D03*
Y9699000D02*
D03*
Y10978000D02*
D03*
Y10724000D02*
D03*
X6230926Y412500D02*
D03*
X6484926D02*
D03*
X8476777D02*
D03*
X8730777D02*
D03*
D100*
X10735627D02*
D03*
X11611053D02*
D03*
X13378999D02*
D03*
X12491500D02*
D03*
X9860202D02*
D03*
X6738926D02*
D03*
X8984777D02*
D03*
D101*
X375000Y7427000D02*
D03*
Y8446000D02*
D03*
Y9445000D02*
D03*
Y10470000D02*
D03*
D102*
X4477075Y412500D02*
D03*
X4223075D02*
D03*
X3969075D02*
D03*
X3715075D02*
D03*
X3207075D02*
D03*
X2699075D02*
D03*
X2445075D02*
D03*
X1937075D02*
D03*
X1683075D02*
D03*
X1429075D02*
D03*
X921075D02*
D03*
X1175075D02*
D03*
X2191075D02*
D03*
X2953075D02*
D03*
X3461075D02*
D03*
D103*
X667075D02*
D03*
D104*
X13312500Y900000D02*
D03*
X13962500Y275000D02*
D03*
X13325000Y15737500D02*
D03*
X262500D02*
D03*
X350000Y962500D02*
D03*
X19737500Y262500D02*
D03*
Y15737500D02*
D03*
X13950000D02*
D03*
M02*
