M48
;Layer_Color=9474304
;FILE_FORMAT=4:4
METRIC,LZ
;TYPE=PLATED
T1F00S00C0.3500
T2F00S00C0.6000
T3F00S00C0.7000
T4F00S00C0.7112
T5F00S00C0.7500
T6F00S00C0.8130
T7F00S00C1.0000
T8F00S00C1.0200
T9F00S00C1.1000
T10F00S00C1.2000
T11F00S00C1.3000
T12F00S00C1.4200
T13F00S00C2.5000
T14F00S00C3.0000
T15F00S00C4.2000
%
T01
X0041Y00075
X004225Y00085
X00435Y0009625
X0047
X0049375Y0008375
X0051Y0007375
X0053625Y0008375
X0056125Y0009375
X0172589Y0019543
X0180589Y0026243
X0164189Y0019543
X01506Y00157
X013922Y00231
X012972Y003947
X01224Y003816
X011365Y00351
X0104875Y0034
X0096125Y0032875
X009009Y003816
X009124Y003945
X0087125Y003225
X00822Y003515
X00735Y0030625
X0070875Y002975
X0056125Y0028125
X00575Y0026
X0061625Y0020375
X005275Y001875
X00536085Y00175
X0054375Y0016375
X005525Y0015
X0056125Y001375
X0054Y0010625
X005875
X00504Y00205
X00495Y00224
X005075Y0031
Y003225
X0047375Y0029
X004625Y0028125
X00435Y002975
X0049Y00241
X0044625Y0010625
X0039625Y001375
X003725Y0015
X0034625Y001625
X0032125Y00175
X0029625Y001875
X00271Y00205
X00245Y00225
X0022
X00245Y00255
X0027058Y0029794
X00295Y0034
X0032125Y003825
X0034625Y00425
X003725Y004675
X0015
Y00425
Y003825
Y0034
Y002975
X0017875Y0028946
X0019375Y0028125
X0015Y00255
Y002125
X0001625
Y00255
Y002975
Y0034
Y003825
Y00425
Y004675
Y0051
X0015
X00225Y00565
Y00583
X00241Y00577
X00255Y0059
X00269Y006
X0024Y00609
X00255Y00635
X00269Y0066
X001915Y007575
X00168Y00818
X001795Y00831
X00192Y00847
X0018Y008705
X001175Y008445
Y007725
X001305Y00783
X001425Y00793
X001555Y008055
X004475Y00566
X004625Y005765
X004775Y00589
X00493Y006005
X0039625Y0051
X005805Y005855
X005675Y00601
X007
X00715Y00585
Y00535
X00692
X006995Y008238
X007212Y008122
X007095Y008482
X00759281Y00849
X00768281Y00854
Y00844
X0079007Y00856
X00789Y008235
X007963Y007978
X008221Y00811
X0083Y0083
X00843Y00862
X008673Y007539
X00659Y00843
X005845Y0078025
X009014Y008301
X009127Y008623
X013923Y00602
X0150649Y0052842
X0164089Y0056442
X0172489
X0182589Y0063442
X010582Y011196
Y011286
Y011376
Y011466
X010482
Y011376
Y011286
Y011196
X00917Y01204
X008179Y010901
X007951Y01097
X00836Y00994
X007217Y009247
X003426Y011214
Y011304
Y011394
Y011484
X003326
Y011394
Y011304
Y011214
X001555Y010725
X001425Y010465
X00171Y0097
X0013Y00944
X001806Y01332547
X003326Y013634
Y013724
X003416
Y013634
Y013814
Y013904
X003326
Y013814
X009272Y013306
X010482Y013636
Y013726
Y013816
Y013906
X010582
Y013816
Y013726
Y013636
X0144531Y0130914
T02
X0168989Y0024343
Y0026043
Y0027743
Y0029443
X0167189
Y0027743
Y0026043
Y0024343
X0167089Y0061542
Y0063242
Y0064942
Y0066642
X0168789
Y0064942
Y0063242
Y0061542
T03
X012222Y011866
Y012116
X004726Y01175589
Y01150589
Y013344
Y013594
X012222Y013316
Y013066
T04
X009732Y012076
Y012256
X009932
Y012076
X010132
Y012256
Y01246
X009932
X009732
Y01268
Y01285
X009932
Y01268
X010132
Y01285
X002976Y01284797
Y01268547
X002776Y01268547
Y01284797
X002576
Y01268547
Y01243547
Y01227297
Y01211047
X002776
Y01227297
Y01243547
X002976
Y01227297
Y01211047
Y0130105
X002776Y01301047
X002576
X009732Y013006
X009932
X010132
T05
X001175Y00096673
X001429Y00122073
X000921
T06
X014333Y00249
X014583
X001Y002549
Y002124
Y002974
Y003399
Y003824
Y004249
Y004674
X00075
Y004249
Y003824
Y003399
Y002974
Y002549
Y002124
Y005099
X001
X014282Y006201
X014532
T07
X0172Y01
X01845
X0192
Y0122
X01845
X0172
X01645
Y01
X0152
X01445
T08
X00066708Y0004125
X00092107
X00117507
X00142907
X00168307
X00193708
X00219107
X00244508
X00269907
X00295308
X00320708
X00346107
X00371507
X00396908
X00422308
X00447707
X00623093
X00648493
X00673893
X00847678
X00873078
X00898478
X0093522
X0096062
X0098602
X01022763
X01048163
X01073563
X01110305
X01135705
X01161105
X0119835
X0122375
X0124915
X012871
X013125
X013379
X000375Y007427
Y007681
Y007935
Y008446
Y0087
Y008954
Y009445
Y009699
Y009953
Y01047
Y010724
Y010978
T09
X004854Y0004125
X005108
X005362
X005616
X00587
X00709985
X00735385
X00760785
X00786185
X00811585
X01325Y0017773
Y0020313
X014
Y0017773
X00036Y005585
Y005839
Y006093
Y006347
Y006601
Y006855
X01325Y0057412
Y0054872
X014
Y0057412
Y012373
Y012627
X01325
Y012373
Y013073
Y013327
X014
Y013073
T10
X01845Y01456
X01945
T11
X0176Y0155375
X01795
X0183
X01865
T12
X01694Y01377457
X01769
X01844
X01944
T13
X00461Y01574
X00584
X00709
X00834
X01123
X01255
T14
X00035Y0009625
X0133125Y0009
X0139625Y000275
X0197375Y0002625
X0002625Y0157375
X013325
X01395
X0197375
T15
X009932Y010486
X002786Y010594
Y014594
X009932Y014486
M30
