G04*
G04 #@! TF.GenerationSoftware,Altium Limited,Altium Designer,23.2.1 (34)*
G04*
G04 Layer_Physical_Order=2*
G04 Layer_Color=16711680*
%FSLAX45Y45*%
%MOMM*%
G71*
G04*
G04 #@! TF.SameCoordinates,6E3D6F93-4A61-4C57-BA4F-68D24251A383*
G04*
G04*
G04 #@! TF.FilePolarity,Positive*
G04*
G01*
G75*
%ADD10C,0.40000*%
%ADD14C,0.25400*%
%ADD17R,1.20000X1.40000*%
%ADD77C,0.45000*%
%ADD78C,0.65000*%
%ADD84C,1.25000*%
%ADD85C,1.32100*%
%ADD86C,1.50000*%
%ADD87R,1.50000X1.50000*%
%ADD88C,1.60000*%
%ADD89R,1.60000X1.60000*%
%ADD90C,1.10000*%
%ADD91R,1.10000X1.10000*%
G04:AMPARAMS|DCode=92|XSize=5mm|YSize=10mm|CornerRadius=1.25mm|HoleSize=0mm|Usage=FLASHONLY|Rotation=90.000|XOffset=0mm|YOffset=0mm|HoleType=Round|Shape=RoundedRectangle|*
%AMROUNDEDRECTD92*
21,1,5.00000,7.50000,0,0,90.0*
21,1,2.50000,10.00000,0,0,90.0*
1,1,2.50000,3.75000,1.25000*
1,1,2.50000,3.75000,-1.25000*
1,1,2.50000,-3.75000,-1.25000*
1,1,2.50000,-3.75000,1.25000*
%
%ADD92ROUNDEDRECTD92*%
%ADD93C,6.00000*%
%ADD94C,1.80000*%
%ADD95R,1.60000X1.60000*%
%ADD96C,1.90000*%
%ADD97R,2.13000X2.13000*%
%ADD98C,2.13000*%
%ADD99C,1.55000*%
%ADD100R,1.55000X1.55000*%
%ADD101R,1.55000X1.55000*%
%ADD102C,1.52000*%
%ADD103R,1.52000X1.52000*%
%ADD104C,4.80000*%
%ADD105C,0.70000*%
%ADD106C,1.27000*%
G04:AMPARAMS|DCode=107|XSize=5mm|YSize=2.5mm|CornerRadius=0.625mm|HoleSize=0mm|Usage=FLASHONLY|Rotation=0.000|XOffset=0mm|YOffset=0mm|HoleType=Round|Shape=RoundedRectangle|*
%AMROUNDEDRECTD107*
21,1,5.00000,1.25000,0,0,0.0*
21,1,3.75000,2.50000,0,0,0.0*
1,1,1.25000,1.87500,-0.62500*
1,1,1.25000,-1.87500,-0.62500*
1,1,1.25000,-1.87500,0.62500*
1,1,1.25000,1.87500,0.62500*
%
%ADD107ROUNDEDRECTD107*%
G36*
X237877Y15987500D02*
X189578Y15977892D01*
X144081Y15959047D01*
X103134Y15931686D01*
X68313Y15896866D01*
X40953Y15855919D01*
X22108Y15810422D01*
X12500Y15762123D01*
X0Y15762605D01*
Y16000000D01*
X237394D01*
X237877Y15987500D01*
D02*
G37*
G36*
X17120000Y13360001D02*
X18839999D01*
Y14010001D01*
X20000000D01*
Y366537D01*
X19987300Y366254D01*
X19841054Y512500D01*
X19633948D01*
X19487500Y366054D01*
Y158947D01*
X19633746Y12700D01*
X19633464Y0D01*
X17839999D01*
Y7920000D01*
X13660001D01*
Y7923511D01*
X13657300Y7922700D01*
X11500000Y10080000D01*
X8523145D01*
Y11000413D01*
X9186366Y11663634D01*
X9191383Y11671143D01*
X9193145Y11680000D01*
Y12000879D01*
X9195490Y12001851D01*
X9208149Y12014510D01*
X9215000Y12031049D01*
Y12048951D01*
X9208149Y12065490D01*
X9195490Y12078149D01*
X9178951Y12085000D01*
X9161049D01*
X9144510Y12078149D01*
X9131851Y12065490D01*
X9125000Y12048951D01*
Y12031049D01*
X9131851Y12014510D01*
X9144510Y12001851D01*
X9146855Y12000879D01*
Y11689587D01*
X8483634Y11026366D01*
X8478617Y11018857D01*
X8476855Y11010000D01*
Y10080000D01*
X7421455D01*
X7416595Y10091733D01*
X8128344Y10803482D01*
X8135527Y10814232D01*
X8138049Y10826913D01*
X8137982Y10827251D01*
X8167703Y10856972D01*
X8170049Y10856000D01*
X8187951D01*
X8204490Y10862851D01*
X8217149Y10875510D01*
X8224000Y10892049D01*
Y10909951D01*
X8217149Y10926490D01*
X8204490Y10939149D01*
X8187951Y10946000D01*
X8170049D01*
X8153509Y10939149D01*
X8140851Y10926490D01*
X8134000Y10909951D01*
Y10892049D01*
X8134972Y10889703D01*
X8105250Y10859982D01*
X8104913Y10860049D01*
X8092232Y10857527D01*
X8081481Y10850344D01*
X7311138Y10080000D01*
X7124456D01*
X7119596Y10091733D01*
X7952862Y10925000D01*
X7959951D01*
X7976491Y10931851D01*
X7989149Y10944509D01*
X7996000Y10961049D01*
Y10978951D01*
X7989149Y10995490D01*
X7976491Y11008149D01*
X7959951Y11015000D01*
X7942049D01*
X7925510Y11008149D01*
X7912851Y10995490D01*
X7906000Y10978951D01*
Y10971862D01*
X7014138Y10080000D01*
X1598333D01*
Y10712024D01*
X1600000Y10716049D01*
Y10733951D01*
X1593149Y10750490D01*
X1580490Y10763149D01*
X1563951Y10770000D01*
X1546049D01*
X1529510Y10763149D01*
X1516851Y10750490D01*
X1510000Y10733951D01*
Y10716049D01*
X1511667Y10712024D01*
Y10080000D01*
X1468333D01*
Y10452024D01*
X1470000Y10456049D01*
Y10473951D01*
X1463149Y10490490D01*
X1450490Y10503149D01*
X1433951Y10510000D01*
X1416049D01*
X1399510Y10503149D01*
X1386851Y10490490D01*
X1380000Y10473951D01*
Y10456049D01*
X1381667Y10452024D01*
Y10080000D01*
X0D01*
Y15712395D01*
X12500Y15712877D01*
X22108Y15664578D01*
X40953Y15619081D01*
X68313Y15578134D01*
X103134Y15543312D01*
X144081Y15515953D01*
X189578Y15497107D01*
X237877Y15487500D01*
X287123D01*
X335422Y15497107D01*
X380919Y15515953D01*
X421866Y15543312D01*
X456688Y15578134D01*
X484047Y15619081D01*
X502893Y15664578D01*
X512500Y15712877D01*
Y15762123D01*
X502893Y15810422D01*
X484047Y15855919D01*
X456688Y15896866D01*
X421866Y15931686D01*
X380919Y15959047D01*
X335422Y15977892D01*
X287123Y15987500D01*
X287606Y16000000D01*
X4174960D01*
X4177486Y15987300D01*
X4166917Y15982922D01*
X4138717Y15961282D01*
X4117078Y15933083D01*
X4103475Y15900243D01*
X4098835Y15864999D01*
Y15614999D01*
X4103475Y15579758D01*
X4117078Y15546918D01*
X4138717Y15518716D01*
X4166917Y15497078D01*
X4199758Y15483475D01*
X4235000Y15478835D01*
X4985000D01*
X5020242Y15483475D01*
X5053082Y15497078D01*
X5081283Y15518716D01*
X5102922Y15546918D01*
X5116525Y15579758D01*
X5121165Y15614999D01*
Y15864999D01*
X5116525Y15900243D01*
X5102922Y15933083D01*
X5081283Y15961282D01*
X5053082Y15982922D01*
X5042514Y15987300D01*
X5045040Y16000000D01*
X5404960D01*
X5407486Y15987300D01*
X5396918Y15982922D01*
X5368717Y15961282D01*
X5347078Y15933083D01*
X5333475Y15900243D01*
X5328835Y15864999D01*
Y15614999D01*
X5333475Y15579758D01*
X5347078Y15546918D01*
X5368717Y15518716D01*
X5396918Y15497078D01*
X5429758Y15483475D01*
X5465000Y15478835D01*
X6215000D01*
X6250242Y15483475D01*
X6283082Y15497078D01*
X6311283Y15518716D01*
X6332922Y15546918D01*
X6346525Y15579758D01*
X6351165Y15614999D01*
Y15864999D01*
X6346525Y15900243D01*
X6332922Y15933083D01*
X6311283Y15961282D01*
X6283082Y15982922D01*
X6272514Y15987300D01*
X6275040Y16000000D01*
X6654960D01*
X6657486Y15987300D01*
X6646918Y15982922D01*
X6618717Y15961282D01*
X6597078Y15933083D01*
X6583475Y15900243D01*
X6578835Y15864999D01*
Y15614999D01*
X6583475Y15579758D01*
X6597078Y15546918D01*
X6618717Y15518716D01*
X6646918Y15497078D01*
X6679758Y15483475D01*
X6715000Y15478835D01*
X7465000D01*
X7500242Y15483475D01*
X7533082Y15497078D01*
X7561283Y15518716D01*
X7582922Y15546918D01*
X7596525Y15579758D01*
X7601165Y15614999D01*
Y15864999D01*
X7596525Y15900243D01*
X7582922Y15933083D01*
X7561283Y15961282D01*
X7533082Y15982922D01*
X7522514Y15987300D01*
X7525040Y16000000D01*
X7904960D01*
X7907486Y15987300D01*
X7896918Y15982922D01*
X7868717Y15961282D01*
X7847078Y15933083D01*
X7833475Y15900243D01*
X7828835Y15864999D01*
Y15614999D01*
X7833475Y15579758D01*
X7847078Y15546918D01*
X7868717Y15518716D01*
X7896918Y15497078D01*
X7929758Y15483475D01*
X7965000Y15478835D01*
X8715000D01*
X8750242Y15483475D01*
X8783083Y15497078D01*
X8811283Y15518716D01*
X8832922Y15546918D01*
X8846525Y15579758D01*
X8851165Y15614999D01*
Y15864999D01*
X8846525Y15900243D01*
X8832922Y15933083D01*
X8811283Y15961282D01*
X8783083Y15982922D01*
X8772514Y15987300D01*
X8775040Y16000000D01*
X10794960D01*
X10797486Y15987300D01*
X10786917Y15982922D01*
X10758717Y15961282D01*
X10737078Y15933083D01*
X10723475Y15900243D01*
X10718835Y15864999D01*
Y15614999D01*
X10723475Y15579758D01*
X10737078Y15546918D01*
X10758717Y15518716D01*
X10786917Y15497078D01*
X10819758Y15483475D01*
X10855000Y15478835D01*
X11605000D01*
X11640242Y15483475D01*
X11673082Y15497078D01*
X11701283Y15518716D01*
X11722922Y15546918D01*
X11736525Y15579758D01*
X11741165Y15614999D01*
Y15864999D01*
X11736525Y15900243D01*
X11722922Y15933083D01*
X11701283Y15961282D01*
X11673082Y15982922D01*
X11662514Y15987300D01*
X11665040Y16000000D01*
X12114960D01*
X12117486Y15987300D01*
X12106918Y15982922D01*
X12078717Y15961282D01*
X12057078Y15933083D01*
X12043475Y15900243D01*
X12038835Y15864999D01*
Y15614999D01*
X12043475Y15579758D01*
X12057078Y15546918D01*
X12078717Y15518716D01*
X12106918Y15497078D01*
X12139758Y15483475D01*
X12175000Y15478835D01*
X12925000D01*
X12960242Y15483475D01*
X12993082Y15497078D01*
X13021283Y15518716D01*
X13042921Y15546918D01*
X13056525Y15579758D01*
X13061165Y15614999D01*
Y15864999D01*
X13056525Y15900243D01*
X13042921Y15933083D01*
X13021283Y15961282D01*
X12993082Y15982922D01*
X12982513Y15987300D01*
X12985040Y16000000D01*
X13299895D01*
X13300377Y15987500D01*
X13252078Y15977892D01*
X13206581Y15959047D01*
X13165634Y15931686D01*
X13130812Y15896866D01*
X13103453Y15855919D01*
X13084608Y15810422D01*
X13075000Y15762123D01*
Y15712877D01*
X13084608Y15664578D01*
X13103453Y15619081D01*
X13130812Y15578134D01*
X13165634Y15543312D01*
X13206581Y15515953D01*
X13252078Y15497107D01*
X13300377Y15487500D01*
X13349623D01*
X13397922Y15497107D01*
X13443419Y15515953D01*
X13484366Y15543312D01*
X13519188Y15578134D01*
X13546547Y15619081D01*
X13565392Y15664578D01*
X13575000Y15712877D01*
Y15762123D01*
X13565392Y15810422D01*
X13546547Y15855919D01*
X13519188Y15896866D01*
X13484366Y15931686D01*
X13443419Y15959047D01*
X13397922Y15977892D01*
X13349623Y15987500D01*
X13350105Y16000000D01*
X13845964D01*
X13846246Y15987300D01*
X13700000Y15841052D01*
Y15633946D01*
X13846448Y15487500D01*
X14053554D01*
X14200000Y15633946D01*
Y15841052D01*
X14053754Y15987300D01*
X14054036Y16000000D01*
X17120000D01*
Y13360001D01*
D02*
G37*
G36*
X19920000Y15050000D02*
Y14150000D01*
X19370000D01*
X18139999Y15380000D01*
Y15980000D01*
X18989999D01*
X19920000Y15050000D01*
D02*
G37*
G36*
X18720000Y14630000D02*
Y13600000D01*
X18210001D01*
X18200000Y13610001D01*
Y14750000D01*
X18600000D01*
X18720000Y14630000D01*
D02*
G37*
G36*
X18100000Y15530000D02*
Y13460001D01*
X17300000D01*
Y14120000D01*
X17420000Y14239999D01*
Y15980000D01*
X18100000D01*
Y15530000D01*
D02*
G37*
G36*
X8336855Y8920000D02*
X7247637D01*
Y9213997D01*
X7255149Y9221510D01*
X7262000Y9238049D01*
Y9255951D01*
X7255149Y9272490D01*
X7242490Y9285149D01*
X7225951Y9292000D01*
X7208049D01*
X7191510Y9285149D01*
X7178851Y9272490D01*
X7172000Y9255951D01*
Y9238049D01*
X7178851Y9221510D01*
X7181364Y9218997D01*
Y8920000D01*
X7128137D01*
Y9803275D01*
X7134862Y9810000D01*
X8336855D01*
Y8920000D01*
D02*
G37*
G36*
X7061863D02*
X7028137D01*
Y9810000D01*
X7061863D01*
Y8920000D01*
D02*
G37*
G36*
X8476855Y8699587D02*
X8461597Y8684328D01*
X8461596Y8684328D01*
X8441297Y8664028D01*
X8438951Y8665000D01*
X8421049D01*
X8404509Y8658149D01*
X8402700Y8656340D01*
X8390000Y8661600D01*
Y8920000D01*
X8383145D01*
Y9810000D01*
X8476855D01*
Y8699587D01*
D02*
G37*
G36*
X8320000Y8352732D02*
X8311297Y8344028D01*
X8308951Y8345000D01*
X8291049D01*
X8274509Y8338149D01*
X8261851Y8325490D01*
X8255000Y8308951D01*
Y8291049D01*
X8261851Y8274509D01*
X8274509Y8261851D01*
X8291049Y8255000D01*
X8308951D01*
X8309440Y8255203D01*
X8320000Y8248147D01*
Y8150000D01*
X8278700Y8108700D01*
X8266000Y8113961D01*
Y8118951D01*
X8259149Y8135490D01*
X8246490Y8148149D01*
X8229951Y8155000D01*
X8212049D01*
X8195510Y8148149D01*
X8182851Y8135490D01*
X8176000Y8118951D01*
Y8101049D01*
X8182851Y8084510D01*
X8195510Y8071851D01*
X8196855Y8071293D01*
Y8026855D01*
X7230000Y7060000D01*
Y6090000D01*
X8196855D01*
Y3554121D01*
X8194510Y3553149D01*
X8181851Y3540491D01*
X8175000Y3523951D01*
Y3506049D01*
X8181851Y3489510D01*
X8194510Y3476851D01*
X8211049Y3470000D01*
X8228951D01*
X8245490Y3476851D01*
X8258149Y3489510D01*
X8265000Y3506049D01*
Y3523951D01*
X8258149Y3540491D01*
X8245490Y3553149D01*
X8243145Y3554121D01*
Y6090000D01*
X8988355D01*
Y3856156D01*
X8983510Y3854149D01*
X8970851Y3841490D01*
X8964000Y3824951D01*
Y3807049D01*
X8970851Y3790510D01*
X8983510Y3777851D01*
X9000049Y3771000D01*
X9017951D01*
X9034490Y3777851D01*
X9047149Y3790510D01*
X9054000Y3807049D01*
Y3824951D01*
X9047149Y3841490D01*
X9034645Y3853995D01*
Y6090000D01*
X9102355D01*
Y3984742D01*
X9098510Y3983149D01*
X9085851Y3970490D01*
X9079000Y3953951D01*
Y3936049D01*
X9085851Y3919510D01*
X9098510Y3906851D01*
X9115049Y3900000D01*
X9132951D01*
X9149490Y3906851D01*
X9162149Y3919510D01*
X9169000Y3936049D01*
Y3953951D01*
X9162149Y3970490D01*
X9149490Y3983149D01*
X9148645Y3983499D01*
Y6090000D01*
X11800000D01*
X13564137Y4325862D01*
Y2081046D01*
X13551437Y2075786D01*
X13543912Y2083313D01*
X13529089Y2091870D01*
X13512556Y2096300D01*
X13495442D01*
X13478911Y2091870D01*
X13464088Y2083313D01*
X13451987Y2071211D01*
X13443430Y2056389D01*
X13439000Y2039857D01*
Y2022742D01*
X13443430Y2006211D01*
X13451987Y1991389D01*
X13464088Y1979287D01*
X13478911Y1970730D01*
X13495442Y1966300D01*
X13512556D01*
X13529089Y1970730D01*
X13543912Y1979287D01*
X13551437Y1986814D01*
X13564137Y1981554D01*
Y1827046D01*
X13551437Y1821786D01*
X13543912Y1829313D01*
X13529089Y1837870D01*
X13512556Y1842300D01*
X13495442D01*
X13478911Y1837870D01*
X13464088Y1829313D01*
X13451987Y1817211D01*
X13443430Y1802389D01*
X13439000Y1785857D01*
Y1768742D01*
X13443430Y1752211D01*
X13451987Y1737389D01*
X13464088Y1725287D01*
X13478911Y1716730D01*
X13495442Y1712300D01*
X13512556D01*
X13529089Y1716730D01*
X13543912Y1725287D01*
X13551437Y1732814D01*
X13564137Y1727554D01*
Y978960D01*
X13551437Y976434D01*
X13534047Y1018419D01*
X13506686Y1059366D01*
X13471866Y1094188D01*
X13430919Y1121547D01*
X13385422Y1140392D01*
X13337123Y1150000D01*
X13287877D01*
X13239578Y1140392D01*
X13194081Y1121547D01*
X13153134Y1094188D01*
X13118312Y1059366D01*
X13090953Y1018419D01*
X13072107Y972922D01*
X13062500Y924623D01*
Y875377D01*
X13072107Y827078D01*
X13090953Y781581D01*
X13118312Y740634D01*
X13153134Y705812D01*
X13194081Y678453D01*
X13239578Y659608D01*
X13287877Y650000D01*
X13337123D01*
X13385422Y659608D01*
X13430919Y678453D01*
X13471866Y705812D01*
X13506686Y740634D01*
X13534047Y781581D01*
X13551437Y823566D01*
X13564137Y821040D01*
Y510047D01*
X13564961Y508057D01*
Y505904D01*
X13572580Y487514D01*
X13574101Y485991D01*
X13574927Y484002D01*
X13589001Y469926D01*
X13590991Y469102D01*
X13592514Y467580D01*
X13610905Y459962D01*
X13613058D01*
X13615047Y459138D01*
X13634953D01*
X13636942Y459962D01*
X13639095D01*
X13647301Y463361D01*
X13660001Y454875D01*
Y0D01*
X0D01*
Y7120000D01*
X2950000D01*
Y6090000D01*
X6340000D01*
Y8300000D01*
X6910000Y8870000D01*
X6961863D01*
Y8268503D01*
X6956851Y8263490D01*
X6950000Y8246951D01*
Y8229049D01*
X6956851Y8212510D01*
X6969510Y8199851D01*
X6986049Y8193000D01*
X7003951D01*
X7020490Y8199851D01*
X7033149Y8212510D01*
X7040000Y8229049D01*
Y8246951D01*
X7033149Y8263490D01*
X7028137Y8268503D01*
Y8870000D01*
X7061863D01*
Y8512503D01*
X7056851Y8507490D01*
X7050000Y8490951D01*
Y8473049D01*
X7056851Y8456510D01*
X7069510Y8443851D01*
X7086049Y8437000D01*
X7103951D01*
X7120490Y8443851D01*
X7133149Y8456510D01*
X7140000Y8473049D01*
Y8490951D01*
X7133149Y8507490D01*
X7128137Y8512503D01*
Y8870000D01*
X7181364D01*
Y8155003D01*
X7173851Y8147490D01*
X7167000Y8130951D01*
Y8113049D01*
X7173851Y8096510D01*
X7186510Y8083851D01*
X7203049Y8077000D01*
X7220951D01*
X7237490Y8083851D01*
X7250149Y8096510D01*
X7257000Y8113049D01*
Y8130951D01*
X7250149Y8147490D01*
X7247637Y8150003D01*
Y8870000D01*
X8320000D01*
Y8352732D01*
D02*
G37*
G36*
X6961863Y8920000D02*
X6830000D01*
X6169998Y8259998D01*
Y6170000D01*
X3090000D01*
Y7260000D01*
X0D01*
Y9810000D01*
X1381667D01*
Y7942976D01*
X1380000Y7938951D01*
Y7921049D01*
X1386851Y7904509D01*
X1399510Y7891851D01*
X1416049Y7885000D01*
X1433951D01*
X1450490Y7891851D01*
X1463149Y7904509D01*
X1470000Y7921049D01*
Y7938951D01*
X1468333Y7942976D01*
Y9810000D01*
X1511667D01*
Y8067976D01*
X1510000Y8063951D01*
Y8046049D01*
X1516851Y8029509D01*
X1529510Y8016851D01*
X1546049Y8010000D01*
X1563951D01*
X1580490Y8016851D01*
X1593149Y8029509D01*
X1600000Y8046049D01*
Y8063951D01*
X1598333Y8067976D01*
Y9810000D01*
X6961863D01*
Y8920000D01*
D02*
G37*
G36*
X8196855Y7940261D02*
Y6170000D01*
X7280000D01*
Y7040000D01*
X8185122Y7945122D01*
X8196855Y7940261D01*
D02*
G37*
G36*
X13564137Y7705862D02*
Y5790946D01*
X13551437Y5785686D01*
X13543912Y5793213D01*
X13529089Y5801770D01*
X13512556Y5806200D01*
X13495442D01*
X13478911Y5801770D01*
X13464088Y5793213D01*
X13451987Y5781111D01*
X13443430Y5766289D01*
X13439000Y5749758D01*
Y5732643D01*
X13443430Y5716111D01*
X13451987Y5701289D01*
X13464088Y5689187D01*
X13478911Y5680630D01*
X13495442Y5676200D01*
X13512556D01*
X13529089Y5680630D01*
X13543912Y5689187D01*
X13551437Y5696715D01*
X13564137Y5691454D01*
Y5536946D01*
X13551437Y5531686D01*
X13543912Y5539213D01*
X13529089Y5547770D01*
X13512556Y5552200D01*
X13495442D01*
X13478911Y5547770D01*
X13464088Y5539213D01*
X13451987Y5527111D01*
X13443430Y5512289D01*
X13439000Y5495758D01*
Y5478643D01*
X13443430Y5462111D01*
X13451987Y5447289D01*
X13464088Y5435187D01*
X13478911Y5426630D01*
X13495442Y5422200D01*
X13512556D01*
X13529089Y5426630D01*
X13543912Y5435187D01*
X13551437Y5442715D01*
X13564137Y5437454D01*
Y5230000D01*
X12939999D01*
X12000000Y6170000D01*
X9148645D01*
Y8583258D01*
X9152490Y8584851D01*
X9165149Y8597510D01*
X9172000Y8614049D01*
Y8631951D01*
X9165149Y8648490D01*
X9152490Y8661149D01*
X9135951Y8668000D01*
X9118049D01*
X9101510Y8661149D01*
X9088851Y8648490D01*
X9082000Y8631951D01*
Y8614049D01*
X9088851Y8597510D01*
X9101510Y8584851D01*
X9102355Y8584501D01*
Y6170000D01*
X9034645D01*
Y8260844D01*
X9039490Y8262851D01*
X9052149Y8275509D01*
X9059000Y8292049D01*
Y8309951D01*
X9052149Y8326490D01*
X9039490Y8339149D01*
X9022951Y8346000D01*
X9005049D01*
X8988510Y8339149D01*
X8975851Y8326490D01*
X8969000Y8309951D01*
Y8292049D01*
X8975851Y8275509D01*
X8988355Y8263005D01*
Y6170000D01*
X8243145D01*
Y8003145D01*
X8390000Y8150000D01*
Y8578400D01*
X8402700Y8583661D01*
X8404509Y8581851D01*
X8421049Y8575000D01*
X8438951D01*
X8455490Y8581851D01*
X8468149Y8594510D01*
X8475000Y8611049D01*
Y8628951D01*
X8474028Y8631297D01*
X8494327Y8651596D01*
X8494328Y8651596D01*
X8516366Y8673634D01*
X8521383Y8681143D01*
X8523145Y8690000D01*
Y9810000D01*
X11460000D01*
X13564137Y7705862D01*
D02*
G37*
G36*
X15210001Y5230000D02*
X15114079D01*
X15108818Y5242700D01*
X15116106Y5249986D01*
X15125015Y5271500D01*
X15004784D01*
X15013695Y5249986D01*
X15020982Y5242700D01*
X15015721Y5230000D01*
X13685863D01*
Y5437454D01*
X13698563Y5442715D01*
X13706088Y5435187D01*
X13720911Y5426630D01*
X13737442Y5422200D01*
X13754556D01*
X13771089Y5426630D01*
X13785912Y5435187D01*
X13798013Y5447289D01*
X13806570Y5462111D01*
X13811000Y5478643D01*
Y5495758D01*
X13806570Y5512289D01*
X13798013Y5527111D01*
X13785912Y5539213D01*
X13771089Y5547770D01*
X13754556Y5552200D01*
X13737442D01*
X13720911Y5547770D01*
X13706088Y5539213D01*
X13698563Y5531686D01*
X13685863Y5536946D01*
Y5691454D01*
X13698563Y5696715D01*
X13706088Y5689187D01*
X13720911Y5680630D01*
X13737442Y5676200D01*
X13754556D01*
X13771089Y5680630D01*
X13785912Y5689187D01*
X13798013Y5701289D01*
X13806570Y5716111D01*
X13811000Y5732643D01*
Y5749758D01*
X13806570Y5766289D01*
X13798013Y5781111D01*
X13785912Y5793213D01*
X13771089Y5801770D01*
X13754556Y5806200D01*
X13737442D01*
X13720911Y5801770D01*
X13706088Y5793213D01*
X13698563Y5785686D01*
X13685863Y5790946D01*
Y6310000D01*
X15210001D01*
Y5230000D01*
D02*
G37*
G36*
Y1520000D02*
X15112012D01*
X15107152Y1531733D01*
X15111205Y1535786D01*
X15120116Y1557300D01*
X14999884D01*
X15008795Y1535786D01*
X15012848Y1531733D01*
X15007988Y1520000D01*
X13685863D01*
Y1727554D01*
X13698563Y1732814D01*
X13706088Y1725287D01*
X13720911Y1716730D01*
X13737442Y1712300D01*
X13754556D01*
X13771089Y1716730D01*
X13785912Y1725287D01*
X13798013Y1737389D01*
X13806570Y1752211D01*
X13811000Y1768742D01*
Y1785857D01*
X13806570Y1802389D01*
X13798013Y1817211D01*
X13785912Y1829313D01*
X13771089Y1837870D01*
X13754556Y1842300D01*
X13737442D01*
X13720911Y1837870D01*
X13706088Y1829313D01*
X13698563Y1821786D01*
X13685863Y1827046D01*
Y1981554D01*
X13698563Y1986814D01*
X13706088Y1979287D01*
X13720911Y1970730D01*
X13737442Y1966300D01*
X13754556D01*
X13771089Y1970730D01*
X13785912Y1979287D01*
X13798013Y1991389D01*
X13806570Y2006211D01*
X13811000Y2022742D01*
Y2039857D01*
X13806570Y2056389D01*
X13798013Y2071211D01*
X13785912Y2083313D01*
X13771089Y2091870D01*
X13754556Y2096300D01*
X13737442D01*
X13720911Y2091870D01*
X13706088Y2083313D01*
X13698563Y2075786D01*
X13685863Y2081046D01*
Y2600000D01*
X15210001D01*
Y1520000D01*
D02*
G37*
%LPC*%
G36*
X2810398Y14903999D02*
X2761603D01*
X2713408Y14896365D01*
X2667002Y14881288D01*
X2623525Y14859135D01*
X2584049Y14830453D01*
X2549546Y14795950D01*
X2520865Y14756474D01*
X2498712Y14712999D01*
X2483634Y14666592D01*
X2476000Y14618398D01*
Y14569601D01*
X2483634Y14521408D01*
X2498712Y14475002D01*
X2520865Y14431525D01*
X2549546Y14392049D01*
X2584049Y14357545D01*
X2623525Y14328864D01*
X2667002Y14306712D01*
X2713408Y14291634D01*
X2761603Y14284000D01*
X2810398D01*
X2858592Y14291634D01*
X2904999Y14306712D01*
X2948476Y14328864D01*
X2987952Y14357545D01*
X3022455Y14392049D01*
X3051136Y14431525D01*
X3073288Y14475002D01*
X3088367Y14521408D01*
X3096000Y14569601D01*
Y14618398D01*
X3088367Y14666592D01*
X3073288Y14712999D01*
X3051136Y14756474D01*
X3022455Y14795950D01*
X2987952Y14830453D01*
X2948476Y14859135D01*
X2904999Y14881288D01*
X2858592Y14896365D01*
X2810398Y14903999D01*
D02*
G37*
G36*
X9956397Y14796001D02*
X9907602D01*
X9859408Y14788367D01*
X9813001Y14773288D01*
X9769524Y14751135D01*
X9730048Y14722455D01*
X9695545Y14687952D01*
X9666864Y14648476D01*
X9644711Y14604999D01*
X9629633Y14558592D01*
X9622000Y14510397D01*
Y14461603D01*
X9629633Y14413408D01*
X9644711Y14367001D01*
X9666864Y14323524D01*
X9695545Y14284048D01*
X9730048Y14249545D01*
X9769524Y14220865D01*
X9813001Y14198712D01*
X9859408Y14183633D01*
X9907602Y14175999D01*
X9956397D01*
X10004592Y14183633D01*
X10050998Y14198712D01*
X10094475Y14220865D01*
X10133951Y14249545D01*
X10168454Y14284048D01*
X10197135Y14323524D01*
X10219288Y14367001D01*
X10234366Y14413408D01*
X10242000Y14461603D01*
Y14510397D01*
X10234366Y14558592D01*
X10219288Y14604999D01*
X10197135Y14648476D01*
X10168454Y14687952D01*
X10133951Y14722455D01*
X10094475Y14751135D01*
X10050998Y14773288D01*
X10004592Y14788367D01*
X9956397Y14796001D01*
D02*
G37*
G36*
X3403300Y13964116D02*
X3381786Y13955203D01*
X3371000Y13944418D01*
X3360214Y13955203D01*
X3338700Y13964116D01*
Y13903999D01*
X3326000D01*
Y13891299D01*
X3265884D01*
X3274796Y13869786D01*
X3285582Y13859000D01*
X3274796Y13848215D01*
X3265884Y13826700D01*
X3326000D01*
Y13801300D01*
X3265884D01*
X3274796Y13779787D01*
X3285582Y13769000D01*
X3274796Y13758214D01*
X3265884Y13736700D01*
X3326000D01*
Y13711301D01*
X3265884D01*
X3274796Y13689786D01*
X3285582Y13678999D01*
X3274796Y13668214D01*
X3265884Y13646700D01*
X3326000D01*
Y13634000D01*
X3338700D01*
Y13573885D01*
X3360214Y13582796D01*
X3371000Y13593582D01*
X3381786Y13582796D01*
X3403300Y13573885D01*
Y13634000D01*
X3416000D01*
Y13646700D01*
X3476116D01*
X3467205Y13668214D01*
X3456419Y13678999D01*
X3467205Y13689786D01*
X3476116Y13711301D01*
X3416000D01*
Y13736700D01*
X3476116D01*
X3467205Y13758214D01*
X3456419Y13769000D01*
X3467205Y13779787D01*
X3476116Y13801300D01*
X3416000D01*
Y13826700D01*
X3476116D01*
X3467205Y13848215D01*
X3456419Y13859000D01*
X3467205Y13869786D01*
X3476116Y13891299D01*
X3416000D01*
Y13903999D01*
X3403300D01*
Y13964116D01*
D02*
G37*
G36*
X10569300Y13966116D02*
X10547786Y13957205D01*
X10532000Y13941418D01*
X10516213Y13957205D01*
X10494700Y13966116D01*
Y13906000D01*
X10482000D01*
Y13893300D01*
X10421884D01*
X10430795Y13871786D01*
X10441581Y13861000D01*
X10430795Y13850214D01*
X10421884Y13828700D01*
X10482000D01*
Y13803300D01*
X10421884D01*
X10430795Y13781787D01*
X10441581Y13771001D01*
X10430795Y13760214D01*
X10421884Y13738699D01*
X10482000D01*
Y13713300D01*
X10421884D01*
X10430795Y13691786D01*
X10441581Y13681000D01*
X10430795Y13670213D01*
X10421884Y13648700D01*
X10482000D01*
Y13636000D01*
X10494700D01*
Y13575883D01*
X10516213Y13584796D01*
X10532000Y13600581D01*
X10547786Y13584796D01*
X10569300Y13575883D01*
Y13636000D01*
X10582000D01*
Y13648700D01*
X10642116D01*
X10633204Y13670213D01*
X10622418Y13681000D01*
X10633204Y13691786D01*
X10642116Y13713300D01*
X10582000D01*
Y13738699D01*
X10642116D01*
X10633204Y13760214D01*
X10622418Y13771001D01*
X10633204Y13781787D01*
X10642116Y13803300D01*
X10582000D01*
Y13828700D01*
X10642116D01*
X10633204Y13850214D01*
X10622418Y13861000D01*
X10633204Y13871786D01*
X10642116Y13893300D01*
X10582000D01*
Y13906000D01*
X10569300D01*
Y13966116D01*
D02*
G37*
G36*
X10594700D02*
Y13918700D01*
X10642116D01*
X10633204Y13940215D01*
X10616213Y13957205D01*
X10594700Y13966116D01*
D02*
G37*
G36*
X10469300D02*
X10447786Y13957205D01*
X10430795Y13940215D01*
X10421884Y13918700D01*
X10469300D01*
Y13966116D01*
D02*
G37*
G36*
X3428700Y13964116D02*
Y13916701D01*
X3476116D01*
X3467205Y13938214D01*
X3450214Y13955203D01*
X3428700Y13964116D01*
D02*
G37*
G36*
X3313300D02*
X3291786Y13955203D01*
X3274796Y13938214D01*
X3265884Y13916701D01*
X3313300D01*
Y13964116D01*
D02*
G37*
G36*
X16988255Y13891075D02*
X16891743D01*
X16823500Y13822832D01*
Y13726318D01*
X16891743Y13658075D01*
X16988255D01*
X17056500Y13726318D01*
Y13822832D01*
X16988255Y13891075D01*
D02*
G37*
G36*
X4806400Y13674400D02*
X4738700D01*
Y13606700D01*
X4806400D01*
Y13674400D01*
D02*
G37*
G36*
X4713300D02*
X4645600D01*
Y13606700D01*
X4713300D01*
Y13674400D01*
D02*
G37*
G36*
X10642116Y13623300D02*
X10594700D01*
Y13575883D01*
X10616213Y13584796D01*
X10633204Y13601787D01*
X10642116Y13623300D01*
D02*
G37*
G36*
X10469300D02*
X10421884D01*
X10430795Y13601787D01*
X10447786Y13584796D01*
X10469300Y13575883D01*
Y13623300D01*
D02*
G37*
G36*
X3476116Y13621300D02*
X3428700D01*
Y13573885D01*
X3450214Y13582796D01*
X3467205Y13599786D01*
X3476116Y13621300D01*
D02*
G37*
G36*
X3313300D02*
X3265884D01*
X3274796Y13599786D01*
X3291786Y13582796D01*
X3313300Y13573885D01*
Y13621300D01*
D02*
G37*
G36*
X4806400Y13581300D02*
X4738700D01*
Y13513600D01*
X4806400D01*
Y13581300D01*
D02*
G37*
G36*
X4713300D02*
X4645600D01*
Y13513600D01*
X4713300D01*
Y13581300D01*
D02*
G37*
G36*
X13634953Y15560863D02*
X13615047D01*
X13613058Y15560039D01*
X13610904D01*
X13592513Y15552420D01*
X13590991Y15550899D01*
X13589001Y15550073D01*
X13574927Y15535999D01*
X13574101Y15534007D01*
X13572580Y15532486D01*
X13564961Y15514095D01*
Y15511942D01*
X13564137Y15509953D01*
Y15500000D01*
Y13376746D01*
X13551437Y13371486D01*
X13543912Y13379013D01*
X13529089Y13387570D01*
X13512556Y13392000D01*
X13495442D01*
X13478911Y13387570D01*
X13464088Y13379013D01*
X13451987Y13366911D01*
X13443430Y13352089D01*
X13439000Y13335558D01*
Y13318443D01*
X13443430Y13301910D01*
X13451987Y13287090D01*
X13464088Y13274986D01*
X13478911Y13266431D01*
X13495442Y13262000D01*
X13512556D01*
X13529089Y13266431D01*
X13543912Y13274986D01*
X13551437Y13282513D01*
X13564137Y13277254D01*
Y13122746D01*
X13551437Y13117487D01*
X13543912Y13125014D01*
X13529089Y13133569D01*
X13512556Y13138000D01*
X13495442D01*
X13478911Y13133569D01*
X13464088Y13125014D01*
X13451987Y13112910D01*
X13443430Y13098090D01*
X13439000Y13081558D01*
Y13064442D01*
X13443430Y13047911D01*
X13451987Y13033089D01*
X13464088Y13020987D01*
X13478911Y13012430D01*
X13495442Y13008000D01*
X13512556D01*
X13529089Y13012430D01*
X13543912Y13020987D01*
X13551437Y13028514D01*
X13564137Y13023254D01*
Y12676746D01*
X13551437Y12671485D01*
X13543912Y12679013D01*
X13529089Y12687570D01*
X13512556Y12692000D01*
X13495442D01*
X13478911Y12687570D01*
X13464088Y12679013D01*
X13451987Y12666911D01*
X13443430Y12652089D01*
X13439000Y12635557D01*
Y12618442D01*
X13443430Y12601911D01*
X13451987Y12587089D01*
X13464088Y12574987D01*
X13478911Y12566430D01*
X13495442Y12562000D01*
X13512556D01*
X13529089Y12566430D01*
X13543912Y12574987D01*
X13551437Y12582514D01*
X13564137Y12577254D01*
Y12422746D01*
X13551437Y12417485D01*
X13543912Y12425013D01*
X13529089Y12433570D01*
X13512556Y12438000D01*
X13495442D01*
X13478911Y12433570D01*
X13464088Y12425013D01*
X13451987Y12412911D01*
X13443430Y12398089D01*
X13439000Y12381557D01*
Y12364442D01*
X13443430Y12347911D01*
X13451987Y12333089D01*
X13464088Y12320987D01*
X13478911Y12312430D01*
X13495442Y12308000D01*
X13512556D01*
X13529089Y12312430D01*
X13543912Y12320987D01*
X13551437Y12328514D01*
X13564137Y12323254D01*
Y8250000D01*
Y8240047D01*
X13564961Y8238057D01*
Y8235905D01*
X13572580Y8217514D01*
X13574101Y8215991D01*
X13574927Y8214002D01*
X13589001Y8199926D01*
X13590991Y8199102D01*
X13592514Y8197580D01*
X13610905Y8189962D01*
X13613058D01*
X13615047Y8189138D01*
X13634953D01*
X13636942Y8189962D01*
X13639095D01*
X13657486Y8197580D01*
X13660001Y8197057D01*
Y8199513D01*
X13660999Y8199926D01*
X13675073Y8214002D01*
X13675899Y8215991D01*
X13677420Y8217513D01*
X13685039Y8235905D01*
Y8238058D01*
X13685863Y8240047D01*
Y8250000D01*
Y12324621D01*
X13697595Y12329481D01*
X13719077Y12308000D01*
X13772923D01*
X13811000Y12346076D01*
Y12399924D01*
X13772923Y12438000D01*
X13719077D01*
X13697595Y12416519D01*
X13685863Y12421379D01*
Y12578621D01*
X13697595Y12583481D01*
X13719077Y12562000D01*
X13772923D01*
X13811000Y12600076D01*
Y12653924D01*
X13772923Y12692000D01*
X13719077D01*
X13697595Y12670519D01*
X13685863Y12675379D01*
Y13024622D01*
X13697595Y13029482D01*
X13719077Y13008000D01*
X13772923D01*
X13811000Y13046075D01*
Y13099924D01*
X13772923Y13138000D01*
X13719077D01*
X13697595Y13116519D01*
X13685863Y13121379D01*
Y13278621D01*
X13697595Y13283481D01*
X13719077Y13262000D01*
X13772923D01*
X13811000Y13300076D01*
Y13353925D01*
X13772923Y13392000D01*
X13719077D01*
X13697595Y13370518D01*
X13685863Y13375378D01*
Y15500000D01*
Y15509953D01*
X13685039Y15511942D01*
Y15514095D01*
X13677420Y15532486D01*
X13675897Y15534009D01*
X13675073Y15535999D01*
X13660999Y15550073D01*
X13660001Y15550487D01*
Y15552943D01*
X13657486Y15552420D01*
X13639095Y15560039D01*
X13636942D01*
X13634953Y15560863D01*
D02*
G37*
G36*
X13263876Y13432401D02*
X13262698D01*
Y13339700D01*
X13355400D01*
Y13340875D01*
X13348216Y13367683D01*
X13334341Y13391718D01*
X13314717Y13411340D01*
X13290683Y13425217D01*
X13263876Y13432401D01*
D02*
G37*
G36*
X14105400D02*
X14012700D01*
Y13339700D01*
X14105400D01*
Y13432401D01*
D02*
G37*
G36*
X13987300D02*
X13894600D01*
Y13339700D01*
X13987300D01*
Y13432401D01*
D02*
G37*
G36*
X13237299D02*
X13236124D01*
X13209317Y13425217D01*
X13185283Y13411340D01*
X13165659Y13391718D01*
X13151784Y13367683D01*
X13144600Y13340875D01*
Y13339700D01*
X13237299D01*
Y13432401D01*
D02*
G37*
G36*
X1818700Y13385582D02*
Y13338165D01*
X1866116D01*
X1857205Y13359680D01*
X1840214Y13376671D01*
X1818700Y13385582D01*
D02*
G37*
G36*
X1793300D02*
X1771786Y13376671D01*
X1754796Y13359680D01*
X1745884Y13338165D01*
X1793300D01*
Y13385582D01*
D02*
G37*
G36*
X9284699Y13366116D02*
Y13318700D01*
X9332115D01*
X9323204Y13340215D01*
X9306213Y13357205D01*
X9284699Y13366116D01*
D02*
G37*
G36*
X9259299D02*
X9237786Y13357205D01*
X9220795Y13340215D01*
X9211884Y13318700D01*
X9259299D01*
Y13366116D01*
D02*
G37*
G36*
X4734558Y13409000D02*
X4717443D01*
X4700911Y13404570D01*
X4686089Y13396013D01*
X4673987Y13383910D01*
X4665430Y13369089D01*
X4661000Y13352557D01*
Y13335442D01*
X4665430Y13318912D01*
X4673987Y13304089D01*
X4686089Y13291988D01*
X4700911Y13283430D01*
X4717443Y13278999D01*
X4734558D01*
X4751089Y13283430D01*
X4765911Y13291988D01*
X4778013Y13304089D01*
X4786570Y13318912D01*
X4791000Y13335442D01*
Y13352557D01*
X4786570Y13369089D01*
X4778013Y13383910D01*
X4765911Y13396013D01*
X4751089Y13404570D01*
X4734558Y13409000D01*
D02*
G37*
G36*
X1866116Y13312766D02*
X1818700D01*
Y13265350D01*
X1840214Y13274261D01*
X1857205Y13291252D01*
X1866116Y13312766D01*
D02*
G37*
G36*
X1793300D02*
X1745884D01*
X1754796Y13291252D01*
X1771786Y13274261D01*
X1793300Y13265350D01*
Y13312766D01*
D02*
G37*
G36*
X12230557Y13381000D02*
X12213442D01*
X12196910Y13376572D01*
X12182089Y13368013D01*
X12169987Y13355911D01*
X12161429Y13341090D01*
X12157000Y13324557D01*
Y13307443D01*
X12161429Y13290910D01*
X12169987Y13276089D01*
X12182089Y13263988D01*
X12196910Y13255431D01*
X12213442Y13251001D01*
X12230557D01*
X12247089Y13255431D01*
X12261910Y13263988D01*
X12274012Y13276089D01*
X12282570Y13290910D01*
X12286999Y13307443D01*
Y13324557D01*
X12282570Y13341090D01*
X12274012Y13355911D01*
X12261910Y13368013D01*
X12247089Y13376572D01*
X12230557Y13381000D01*
D02*
G37*
G36*
X9332115Y13293300D02*
X9284699D01*
Y13245885D01*
X9306213Y13254796D01*
X9323204Y13271786D01*
X9332115Y13293300D01*
D02*
G37*
G36*
X9259299D02*
X9211884D01*
X9220795Y13271786D01*
X9237786Y13254796D01*
X9259299Y13245885D01*
Y13293300D01*
D02*
G37*
G36*
X14105400Y13314301D02*
X14012700D01*
Y13221600D01*
X14105400D01*
Y13314301D01*
D02*
G37*
G36*
X13987300D02*
X13894600D01*
Y13221600D01*
X13987300D01*
Y13314301D01*
D02*
G37*
G36*
X13355400D02*
X13262698D01*
Y13221600D01*
X13263876D01*
X13290683Y13228783D01*
X13314717Y13242659D01*
X13334341Y13262283D01*
X13348216Y13286317D01*
X13355400Y13313124D01*
Y13314301D01*
D02*
G37*
G36*
X13237299D02*
X13144600D01*
Y13313124D01*
X13151784Y13286317D01*
X13165659Y13262283D01*
X13185283Y13242659D01*
X13209317Y13228783D01*
X13236124Y13221600D01*
X13237299D01*
Y13314301D01*
D02*
G37*
G36*
X14478117Y13151801D02*
X14465800D01*
Y13104100D01*
X14513499D01*
Y13116418D01*
X14478117Y13151801D01*
D02*
G37*
G36*
X14440401D02*
X14428081D01*
X14392700Y13116418D01*
Y13104100D01*
X14440401D01*
Y13151801D01*
D02*
G37*
G36*
X13355400Y13178400D02*
X13262698D01*
Y13085701D01*
X13355400D01*
Y13178400D01*
D02*
G37*
G36*
X14043658D02*
X14012700D01*
Y13085701D01*
X14105400D01*
Y13116658D01*
X14043658Y13178400D01*
D02*
G37*
G36*
X13987300D02*
X13956342D01*
X13894600Y13116658D01*
Y13085701D01*
X13987300D01*
Y13178400D01*
D02*
G37*
G36*
X13237299D02*
X13144600D01*
Y13085701D01*
X13237299D01*
Y13178400D01*
D02*
G37*
G36*
X12302399Y13146400D02*
X12234700D01*
Y13078700D01*
X12302399D01*
Y13146400D01*
D02*
G37*
G36*
X12209300D02*
X12141600D01*
Y13078700D01*
X12209300D01*
Y13146400D01*
D02*
G37*
G36*
X14513499Y13078700D02*
X14465800D01*
Y13031000D01*
X14478117D01*
X14513499Y13066380D01*
Y13078700D01*
D02*
G37*
G36*
X14440401D02*
X14392700D01*
Y13066380D01*
X14428081Y13031000D01*
X14440401D01*
Y13078700D01*
D02*
G37*
G36*
X12302399Y13053300D02*
X12234700D01*
Y12985600D01*
X12302399D01*
Y13053300D01*
D02*
G37*
G36*
X12209300D02*
X12141600D01*
Y12985600D01*
X12209300D01*
Y13053300D01*
D02*
G37*
G36*
X14105400Y13060301D02*
X14012700D01*
Y12967599D01*
X14043658D01*
X14105400Y13029343D01*
Y13060301D01*
D02*
G37*
G36*
X13987300D02*
X13894600D01*
Y13029343D01*
X13956342Y12967599D01*
X13987300D01*
Y13060301D01*
D02*
G37*
G36*
X13355400D02*
X13262698D01*
Y12967599D01*
X13355400D01*
Y13060301D01*
D02*
G37*
G36*
X13237299D02*
X13144600D01*
Y12967599D01*
X13237299D01*
Y13060301D01*
D02*
G37*
G36*
X2985677Y13084000D02*
X2966324D01*
X2947630Y13078992D01*
X2930870Y13069315D01*
X2917185Y13055630D01*
X2907509Y13038870D01*
X2902500Y13020177D01*
Y13000824D01*
X2907509Y12982130D01*
X2917185Y12965370D01*
X2930870Y12951685D01*
X2947630Y12942009D01*
X2966324Y12937000D01*
X2985677D01*
X3004370Y12942009D01*
X3021130Y12951685D01*
X3034815Y12965370D01*
X3044491Y12982130D01*
X3049500Y13000824D01*
Y13020177D01*
X3044491Y13038870D01*
X3034815Y13055630D01*
X3021130Y13069315D01*
X3004370Y13078992D01*
X2985677Y13084000D01*
D02*
G37*
G36*
X2785676Y13083966D02*
X2766323D01*
X2747630Y13078957D01*
X2730870Y13069281D01*
X2717185Y13055595D01*
X2707509Y13038837D01*
X2702500Y13020143D01*
Y13000790D01*
X2707509Y12982095D01*
X2717185Y12965337D01*
X2730870Y12951653D01*
X2747630Y12941975D01*
X2766323Y12936966D01*
X2785676D01*
X2804370Y12941975D01*
X2821130Y12951653D01*
X2834814Y12965337D01*
X2844491Y12982095D01*
X2849500Y13000790D01*
Y13020143D01*
X2844491Y13038837D01*
X2834814Y13055595D01*
X2821130Y13069281D01*
X2804370Y13078957D01*
X2785676Y13083966D01*
D02*
G37*
G36*
X2585677D02*
X2566324D01*
X2547630Y13078957D01*
X2530870Y13069281D01*
X2517185Y13055595D01*
X2507509Y13038837D01*
X2502500Y13020143D01*
Y13000790D01*
X2507509Y12982095D01*
X2517185Y12965337D01*
X2530870Y12951653D01*
X2547630Y12941975D01*
X2566324Y12936966D01*
X2585677D01*
X2604370Y12941975D01*
X2621130Y12951653D01*
X2634815Y12965337D01*
X2644491Y12982095D01*
X2649500Y13000790D01*
Y13020143D01*
X2644491Y13038837D01*
X2634815Y13055595D01*
X2621130Y13069281D01*
X2604370Y13078957D01*
X2585677Y13083966D01*
D02*
G37*
G36*
X10141676Y13079500D02*
X10122323D01*
X10103630Y13074492D01*
X10086870Y13064815D01*
X10073185Y13051131D01*
X10063508Y13034370D01*
X10058500Y13015677D01*
Y12996324D01*
X10063508Y12977631D01*
X10073185Y12960870D01*
X10086870Y12947186D01*
X10103630Y12937509D01*
X10114583Y12934573D01*
Y12921426D01*
X10103630Y12918491D01*
X10086870Y12908815D01*
X10073185Y12895129D01*
X10063508Y12878371D01*
X10058500Y12859677D01*
Y12840324D01*
X10063508Y12821629D01*
X10073185Y12804871D01*
X10086870Y12791185D01*
X10103630Y12781509D01*
X10122323Y12776500D01*
X10141676D01*
X10160370Y12781509D01*
X10177130Y12791185D01*
X10190814Y12804871D01*
X10200491Y12821629D01*
X10205500Y12840324D01*
Y12859677D01*
X10200491Y12878371D01*
X10190814Y12895129D01*
X10177130Y12908815D01*
X10160370Y12918491D01*
X10149416Y12921426D01*
Y12934573D01*
X10160370Y12937509D01*
X10177130Y12947186D01*
X10190814Y12960870D01*
X10200491Y12977631D01*
X10205500Y12996324D01*
Y13015677D01*
X10200491Y13034370D01*
X10190814Y13051131D01*
X10177130Y13064815D01*
X10160370Y13074492D01*
X10141676Y13079500D01*
D02*
G37*
G36*
X9941676D02*
X9922323D01*
X9903630Y13074492D01*
X9886870Y13064815D01*
X9873185Y13051131D01*
X9863509Y13034370D01*
X9858500Y13015677D01*
Y12996324D01*
X9863509Y12977631D01*
X9873185Y12960870D01*
X9886870Y12947186D01*
X9903630Y12937509D01*
X9914583Y12934573D01*
Y12921426D01*
X9903630Y12918491D01*
X9886870Y12908815D01*
X9873185Y12895129D01*
X9863509Y12878371D01*
X9858500Y12859677D01*
Y12840324D01*
X9863509Y12821629D01*
X9873185Y12804871D01*
X9886870Y12791185D01*
X9903630Y12781509D01*
X9922323Y12776500D01*
X9941676D01*
X9960370Y12781509D01*
X9977130Y12791185D01*
X9990814Y12804871D01*
X10000491Y12821629D01*
X10005500Y12840324D01*
Y12859677D01*
X10000491Y12878371D01*
X9990814Y12895129D01*
X9977130Y12908815D01*
X9960370Y12918491D01*
X9949416Y12921426D01*
Y12934573D01*
X9960370Y12937509D01*
X9977130Y12947186D01*
X9990814Y12960870D01*
X10000491Y12977631D01*
X10005500Y12996324D01*
Y13015677D01*
X10000491Y13034370D01*
X9990814Y13051131D01*
X9977130Y13064815D01*
X9960370Y13074492D01*
X9941676Y13079500D01*
D02*
G37*
G36*
X9741676D02*
X9722323D01*
X9703630Y13074492D01*
X9686870Y13064815D01*
X9673185Y13051131D01*
X9663508Y13034370D01*
X9658500Y13015677D01*
Y12996324D01*
X9663508Y12977631D01*
X9673185Y12960870D01*
X9686870Y12947186D01*
X9703630Y12937509D01*
X9714583Y12934573D01*
Y12921426D01*
X9703630Y12918491D01*
X9686870Y12908815D01*
X9673185Y12895129D01*
X9663508Y12878371D01*
X9658500Y12859677D01*
Y12840324D01*
X9663508Y12821629D01*
X9673185Y12804871D01*
X9686870Y12791185D01*
X9703630Y12781509D01*
X9722323Y12776500D01*
X9741676D01*
X9760370Y12781509D01*
X9777130Y12791185D01*
X9790814Y12804871D01*
X9800491Y12821629D01*
X9805500Y12840324D01*
Y12859677D01*
X9800491Y12878371D01*
X9790814Y12895129D01*
X9777130Y12908815D01*
X9760370Y12918491D01*
X9749416Y12921426D01*
Y12934573D01*
X9760370Y12937509D01*
X9777130Y12947186D01*
X9790814Y12960870D01*
X9800491Y12977631D01*
X9805500Y12996324D01*
Y13015677D01*
X9800491Y13034370D01*
X9790814Y13051131D01*
X9777130Y13064815D01*
X9760370Y13074492D01*
X9741676Y13079500D01*
D02*
G37*
G36*
X2985677Y12921466D02*
X2966324D01*
X2947630Y12916457D01*
X2930870Y12906781D01*
X2917185Y12893095D01*
X2907509Y12876337D01*
X2902500Y12857643D01*
Y12838290D01*
X2907509Y12819595D01*
X2917185Y12802837D01*
X2930870Y12789151D01*
X2947630Y12779475D01*
X2966324Y12774466D01*
X2985677D01*
X3004370Y12779475D01*
X3021130Y12789151D01*
X3034815Y12802837D01*
X3044491Y12819595D01*
X3049500Y12838290D01*
Y12857643D01*
X3044491Y12876337D01*
X3034815Y12893095D01*
X3021130Y12906781D01*
X3004370Y12916457D01*
X2985677Y12921466D01*
D02*
G37*
G36*
X2785676D02*
X2766323D01*
X2747630Y12916457D01*
X2730870Y12906781D01*
X2717185Y12893095D01*
X2707509Y12876337D01*
X2702500Y12857643D01*
Y12838290D01*
X2707509Y12819595D01*
X2717185Y12802837D01*
X2730870Y12789151D01*
X2747630Y12779475D01*
X2766323Y12774466D01*
X2785676D01*
X2804370Y12779475D01*
X2821130Y12789151D01*
X2834814Y12802837D01*
X2844491Y12819595D01*
X2849500Y12838290D01*
Y12857643D01*
X2844491Y12876337D01*
X2834814Y12893095D01*
X2821130Y12906781D01*
X2804370Y12916457D01*
X2785676Y12921466D01*
D02*
G37*
G36*
X2585677D02*
X2566324D01*
X2547630Y12916457D01*
X2530870Y12906781D01*
X2517185Y12893095D01*
X2507509Y12876337D01*
X2502500Y12857643D01*
Y12838290D01*
X2507509Y12819595D01*
X2517185Y12802837D01*
X2530870Y12789151D01*
X2547630Y12779475D01*
X2566324Y12774466D01*
X2585677D01*
X2604370Y12779475D01*
X2621130Y12789151D01*
X2634815Y12802837D01*
X2644491Y12819595D01*
X2649500Y12838290D01*
Y12857643D01*
X2644491Y12876337D01*
X2634815Y12893095D01*
X2621130Y12906781D01*
X2604370Y12916457D01*
X2585677Y12921466D01*
D02*
G37*
G36*
X2785676Y12758966D02*
X2766323D01*
X2747630Y12753957D01*
X2730870Y12744281D01*
X2717185Y12730596D01*
X2707509Y12713836D01*
X2702500Y12695143D01*
Y12675790D01*
X2707509Y12657096D01*
X2717185Y12640336D01*
X2730870Y12626652D01*
X2747630Y12616975D01*
X2766323Y12611966D01*
X2785676D01*
X2804370Y12616975D01*
X2821130Y12626652D01*
X2834814Y12640336D01*
X2844491Y12657096D01*
X2849500Y12675790D01*
Y12695143D01*
X2844491Y12713836D01*
X2834814Y12730596D01*
X2821130Y12744281D01*
X2804370Y12753957D01*
X2785676Y12758966D01*
D02*
G37*
G36*
X2985677Y12758966D02*
X2966324D01*
X2947630Y12753957D01*
X2930870Y12744281D01*
X2917185Y12730596D01*
X2907509Y12713836D01*
X2902500Y12695143D01*
Y12675790D01*
X2907509Y12657096D01*
X2917185Y12640336D01*
X2930870Y12626651D01*
X2947630Y12616975D01*
X2966324Y12611966D01*
X2985677D01*
X3004370Y12616975D01*
X3021130Y12626651D01*
X3034815Y12640336D01*
X3044491Y12657096D01*
X3049500Y12675790D01*
Y12695143D01*
X3044491Y12713836D01*
X3034815Y12730596D01*
X3021130Y12744281D01*
X3004370Y12753957D01*
X2985677Y12758966D01*
D02*
G37*
G36*
X2585677D02*
X2566324D01*
X2547630Y12753957D01*
X2530870Y12744281D01*
X2517185Y12730596D01*
X2507509Y12713836D01*
X2502500Y12695143D01*
Y12675790D01*
X2507509Y12657096D01*
X2517185Y12640336D01*
X2530870Y12626651D01*
X2547630Y12616975D01*
X2566324Y12611966D01*
X2585677D01*
X2604370Y12616975D01*
X2621130Y12626651D01*
X2634815Y12640336D01*
X2644491Y12657096D01*
X2649500Y12675790D01*
Y12695143D01*
X2644491Y12713836D01*
X2634815Y12730596D01*
X2621130Y12744281D01*
X2604370Y12753957D01*
X2585677Y12758966D01*
D02*
G37*
G36*
X10141676Y12753500D02*
X10122323D01*
X10103630Y12748491D01*
X10086870Y12738815D01*
X10073185Y12725130D01*
X10063508Y12708370D01*
X10058500Y12689677D01*
Y12670324D01*
X10063508Y12651630D01*
X10073185Y12634870D01*
X10086870Y12621186D01*
X10103630Y12611509D01*
X10122323Y12606500D01*
X10141676D01*
X10160370Y12611509D01*
X10177130Y12621186D01*
X10190814Y12634870D01*
X10200491Y12651630D01*
X10205500Y12670324D01*
Y12689677D01*
X10200491Y12708370D01*
X10190814Y12725130D01*
X10177130Y12738815D01*
X10160370Y12748491D01*
X10141676Y12753500D01*
D02*
G37*
G36*
X9941676D02*
X9922323D01*
X9903630Y12748491D01*
X9886870Y12738815D01*
X9873185Y12725130D01*
X9863509Y12708370D01*
X9858500Y12689677D01*
Y12670324D01*
X9863509Y12651630D01*
X9873185Y12634870D01*
X9886870Y12621186D01*
X9903630Y12611509D01*
X9922323Y12606500D01*
X9941676D01*
X9960370Y12611509D01*
X9977130Y12621186D01*
X9990814Y12634870D01*
X10000491Y12651630D01*
X10005500Y12670324D01*
Y12689677D01*
X10000491Y12708370D01*
X9990814Y12725130D01*
X9977130Y12738815D01*
X9960370Y12748491D01*
X9941676Y12753500D01*
D02*
G37*
G36*
X9741676D02*
X9722323D01*
X9703630Y12748491D01*
X9686870Y12738815D01*
X9673185Y12725130D01*
X9663508Y12708370D01*
X9658500Y12689677D01*
Y12670324D01*
X9663508Y12651630D01*
X9673185Y12634870D01*
X9686870Y12621186D01*
X9703630Y12611509D01*
X9722323Y12606500D01*
X9741676D01*
X9760370Y12611509D01*
X9777130Y12621186D01*
X9790814Y12634870D01*
X9800491Y12651630D01*
X9805500Y12670324D01*
Y12689677D01*
X9800491Y12708370D01*
X9790814Y12725130D01*
X9777130Y12738815D01*
X9760370Y12748491D01*
X9741676Y12753500D01*
D02*
G37*
G36*
X14089999Y12717000D02*
X13910001D01*
Y12537000D01*
X14089999D01*
Y12717000D01*
D02*
G37*
G36*
X13261848D02*
X13238152D01*
X13215260Y12710866D01*
X13194739Y12699018D01*
X13177982Y12682261D01*
X13166133Y12661738D01*
X13160001Y12638848D01*
Y12615151D01*
X13166133Y12592261D01*
X13177982Y12571739D01*
X13194739Y12554982D01*
X13215260Y12543133D01*
X13238152Y12537000D01*
X13261848D01*
X13284738Y12543133D01*
X13305261Y12554982D01*
X13322018Y12571739D01*
X13333865Y12592261D01*
X13339999Y12615151D01*
Y12638848D01*
X13333865Y12661738D01*
X13322018Y12682261D01*
X13305261Y12699018D01*
X13284738Y12710866D01*
X13261848Y12717000D01*
D02*
G37*
G36*
X10141676Y12533500D02*
X10122323D01*
X10103630Y12528491D01*
X10086870Y12518815D01*
X10073185Y12505130D01*
X10063508Y12488370D01*
X10058500Y12469677D01*
Y12450324D01*
X10063508Y12431630D01*
X10073185Y12414870D01*
X10086870Y12401186D01*
X10103630Y12391509D01*
X10122323Y12386500D01*
X10141676D01*
X10160370Y12391509D01*
X10177130Y12401186D01*
X10190814Y12414870D01*
X10200491Y12431630D01*
X10205500Y12450324D01*
Y12469677D01*
X10200491Y12488370D01*
X10190814Y12505130D01*
X10177130Y12518815D01*
X10160370Y12528491D01*
X10141676Y12533500D01*
D02*
G37*
G36*
X9941676D02*
X9922323D01*
X9903630Y12528491D01*
X9886870Y12518815D01*
X9873185Y12505130D01*
X9863509Y12488370D01*
X9858500Y12469677D01*
Y12450324D01*
X9863509Y12431630D01*
X9873185Y12414870D01*
X9886870Y12401186D01*
X9903630Y12391509D01*
X9922323Y12386500D01*
X9941676D01*
X9960370Y12391509D01*
X9977130Y12401186D01*
X9990814Y12414870D01*
X10000491Y12431630D01*
X10005500Y12450324D01*
Y12469677D01*
X10000491Y12488370D01*
X9990814Y12505130D01*
X9977130Y12518815D01*
X9960370Y12528491D01*
X9941676Y12533500D01*
D02*
G37*
G36*
X9741676D02*
X9722323D01*
X9703630Y12528491D01*
X9686870Y12518815D01*
X9673185Y12505130D01*
X9663508Y12488370D01*
X9658500Y12469677D01*
Y12450324D01*
X9663508Y12431630D01*
X9673185Y12414870D01*
X9686870Y12401186D01*
X9703630Y12391509D01*
X9722323Y12386500D01*
X9741676D01*
X9760370Y12391509D01*
X9777130Y12401186D01*
X9790814Y12414870D01*
X9800491Y12431630D01*
X9805500Y12450324D01*
Y12469677D01*
X9800491Y12488370D01*
X9790814Y12505130D01*
X9777130Y12518815D01*
X9760370Y12528491D01*
X9741676Y12533500D01*
D02*
G37*
G36*
X2985677Y12508966D02*
X2966324D01*
X2947630Y12503957D01*
X2930870Y12494281D01*
X2917185Y12480596D01*
X2907509Y12463836D01*
X2902500Y12445143D01*
Y12425790D01*
X2907509Y12407096D01*
X2917185Y12390336D01*
X2930870Y12376652D01*
X2947630Y12366975D01*
X2966324Y12361966D01*
X2985677D01*
X3004370Y12366975D01*
X3021130Y12376652D01*
X3034815Y12390336D01*
X3044491Y12407096D01*
X3049500Y12425790D01*
Y12445143D01*
X3044491Y12463836D01*
X3034815Y12480596D01*
X3021130Y12494281D01*
X3004370Y12503957D01*
X2985677Y12508966D01*
D02*
G37*
G36*
X2785677D02*
X2766324D01*
X2747630Y12503957D01*
X2730870Y12494281D01*
X2717186Y12480596D01*
X2707509Y12463836D01*
X2702500Y12445143D01*
Y12425790D01*
X2707509Y12407096D01*
X2717186Y12390336D01*
X2730870Y12376652D01*
X2747630Y12366975D01*
X2766324Y12361966D01*
X2785677D01*
X2804370Y12366975D01*
X2821130Y12376652D01*
X2834815Y12390336D01*
X2844491Y12407096D01*
X2849500Y12425790D01*
Y12445143D01*
X2844491Y12463836D01*
X2834815Y12480596D01*
X2821130Y12494281D01*
X2804370Y12503957D01*
X2785677Y12508966D01*
D02*
G37*
G36*
X2585677Y12508966D02*
X2566324D01*
X2547630Y12503957D01*
X2530870Y12494281D01*
X2517185Y12480596D01*
X2507509Y12463836D01*
X2502500Y12445142D01*
Y12425790D01*
X2507509Y12407096D01*
X2517185Y12390336D01*
X2530870Y12376651D01*
X2547630Y12366975D01*
X2566324Y12361966D01*
X2585677D01*
X2604370Y12366975D01*
X2621130Y12376651D01*
X2634815Y12390336D01*
X2644491Y12407096D01*
X2649500Y12425790D01*
Y12445142D01*
X2644491Y12463836D01*
X2634815Y12480596D01*
X2621130Y12494281D01*
X2604370Y12503957D01*
X2585677Y12508966D01*
D02*
G37*
G36*
X14037279Y12463000D02*
X13962721D01*
X13910001Y12410279D01*
Y12335721D01*
X13962721Y12283000D01*
X14037279D01*
X14089999Y12335721D01*
Y12410279D01*
X14037279Y12463000D01*
D02*
G37*
G36*
X13339999D02*
X13160001D01*
Y12283000D01*
X13339999D01*
Y12463000D01*
D02*
G37*
G36*
X2985677Y12346466D02*
X2966324D01*
X2947630Y12341457D01*
X2930870Y12331781D01*
X2917185Y12318096D01*
X2907509Y12301336D01*
X2902500Y12282643D01*
Y12263290D01*
X2907509Y12244596D01*
X2917185Y12227836D01*
X2930870Y12214152D01*
X2947630Y12204475D01*
X2966324Y12199466D01*
X2985677D01*
X3004370Y12204475D01*
X3021130Y12214152D01*
X3034815Y12227836D01*
X3044491Y12244596D01*
X3049500Y12263290D01*
Y12282643D01*
X3044491Y12301336D01*
X3034815Y12318096D01*
X3021130Y12331781D01*
X3004370Y12341457D01*
X2985677Y12346466D01*
D02*
G37*
G36*
X2785677D02*
X2766324D01*
X2747630Y12341457D01*
X2730870Y12331781D01*
X2717186Y12318096D01*
X2707509Y12301336D01*
X2702500Y12282643D01*
Y12263290D01*
X2707509Y12244596D01*
X2717186Y12227836D01*
X2730870Y12214152D01*
X2747630Y12204475D01*
X2766324Y12199466D01*
X2785677D01*
X2804370Y12204475D01*
X2821130Y12214152D01*
X2834815Y12227836D01*
X2844491Y12244596D01*
X2849500Y12263290D01*
Y12282643D01*
X2844491Y12301336D01*
X2834815Y12318096D01*
X2821130Y12331781D01*
X2804370Y12341457D01*
X2785677Y12346466D01*
D02*
G37*
G36*
X2585677D02*
X2566324D01*
X2547630Y12341457D01*
X2530870Y12331781D01*
X2517185Y12318096D01*
X2507509Y12301336D01*
X2502500Y12282643D01*
Y12263290D01*
X2507509Y12244596D01*
X2517185Y12227836D01*
X2530870Y12214152D01*
X2547630Y12204475D01*
X2566324Y12199466D01*
X2585677D01*
X2604370Y12204475D01*
X2621130Y12214152D01*
X2634815Y12227836D01*
X2644491Y12244596D01*
X2649500Y12263290D01*
Y12282643D01*
X2644491Y12301336D01*
X2634815Y12318096D01*
X2621130Y12331781D01*
X2604370Y12341457D01*
X2585677Y12346466D01*
D02*
G37*
G36*
X10141676Y12329500D02*
X10122323D01*
X10103630Y12324491D01*
X10086870Y12314815D01*
X10073185Y12301130D01*
X10063508Y12284370D01*
X10058500Y12265677D01*
Y12246324D01*
X10063508Y12227630D01*
X10073185Y12210870D01*
X10086870Y12197186D01*
X10103630Y12187509D01*
X10122323Y12182500D01*
X10141676D01*
X10160370Y12187509D01*
X10177130Y12197186D01*
X10190814Y12210870D01*
X10200491Y12227630D01*
X10205500Y12246324D01*
Y12265677D01*
X10200491Y12284370D01*
X10190814Y12301130D01*
X10177130Y12314815D01*
X10160370Y12324491D01*
X10141676Y12329500D01*
D02*
G37*
G36*
X9941676D02*
X9922323D01*
X9903630Y12324491D01*
X9886870Y12314815D01*
X9873185Y12301130D01*
X9863509Y12284370D01*
X9858500Y12265677D01*
Y12246324D01*
X9863509Y12227630D01*
X9873185Y12210870D01*
X9886870Y12197186D01*
X9903630Y12187509D01*
X9922323Y12182500D01*
X9941676D01*
X9960370Y12187509D01*
X9977130Y12197186D01*
X9990814Y12210870D01*
X10000491Y12227630D01*
X10005500Y12246324D01*
Y12265677D01*
X10000491Y12284370D01*
X9990814Y12301130D01*
X9977130Y12314815D01*
X9960370Y12324491D01*
X9941676Y12329500D01*
D02*
G37*
G36*
X9741676D02*
X9722323D01*
X9703630Y12324491D01*
X9686870Y12314815D01*
X9673185Y12301130D01*
X9663508Y12284370D01*
X9658500Y12265677D01*
Y12246324D01*
X9663508Y12227630D01*
X9673185Y12210870D01*
X9686870Y12197186D01*
X9703630Y12187509D01*
X9722323Y12182500D01*
X9741676D01*
X9760370Y12187509D01*
X9777130Y12197186D01*
X9790814Y12210870D01*
X9800491Y12227630D01*
X9805500Y12246324D01*
Y12265677D01*
X9800491Y12284370D01*
X9790814Y12301130D01*
X9777130Y12314815D01*
X9760370Y12324491D01*
X9741676Y12329500D01*
D02*
G37*
G36*
X12302399Y12196400D02*
X12234700D01*
Y12128700D01*
X12302399D01*
Y12196400D01*
D02*
G37*
G36*
X12209300D02*
X12141600D01*
Y12128700D01*
X12209300D01*
Y12196400D01*
D02*
G37*
G36*
X18485208Y12285000D02*
X18414792D01*
X18364999Y12235208D01*
Y12164792D01*
X18414792Y12115000D01*
X18485208D01*
X18535001Y12164792D01*
Y12235208D01*
X18485208Y12285000D01*
D02*
G37*
G36*
X16485208D02*
X16414792D01*
X16364999Y12235208D01*
Y12164792D01*
X16414792Y12115000D01*
X16485208D01*
X16535001Y12164792D01*
Y12235208D01*
X16485208Y12285000D01*
D02*
G37*
G36*
X2985677Y12183966D02*
X2966324D01*
X2947630Y12178957D01*
X2930870Y12169281D01*
X2917185Y12155596D01*
X2907509Y12138836D01*
X2902500Y12120143D01*
Y12100790D01*
X2907509Y12082096D01*
X2917185Y12065336D01*
X2930870Y12051652D01*
X2947630Y12041975D01*
X2966324Y12036966D01*
X2985677D01*
X3004370Y12041975D01*
X3021130Y12051652D01*
X3034815Y12065336D01*
X3044491Y12082096D01*
X3049500Y12100790D01*
Y12120143D01*
X3044491Y12138836D01*
X3034815Y12155596D01*
X3021130Y12169281D01*
X3004370Y12178957D01*
X2985677Y12183966D01*
D02*
G37*
G36*
X2785677D02*
X2766324D01*
X2747630Y12178957D01*
X2730870Y12169281D01*
X2717186Y12155596D01*
X2707509Y12138836D01*
X2702500Y12120143D01*
Y12100790D01*
X2707509Y12082096D01*
X2717186Y12065336D01*
X2730870Y12051652D01*
X2747630Y12041975D01*
X2766324Y12036966D01*
X2785677D01*
X2804370Y12041975D01*
X2821130Y12051652D01*
X2834815Y12065336D01*
X2844491Y12082096D01*
X2849500Y12100790D01*
Y12120143D01*
X2844491Y12138836D01*
X2834815Y12155596D01*
X2821130Y12169281D01*
X2804370Y12178957D01*
X2785677Y12183966D01*
D02*
G37*
G36*
X2585677D02*
X2566324D01*
X2547630Y12178957D01*
X2530870Y12169281D01*
X2517185Y12155596D01*
X2507509Y12138836D01*
X2502500Y12120143D01*
Y12100790D01*
X2507509Y12082096D01*
X2517185Y12065336D01*
X2530870Y12051652D01*
X2547630Y12041975D01*
X2566324Y12036966D01*
X2585677D01*
X2604370Y12041975D01*
X2621130Y12051652D01*
X2634815Y12065336D01*
X2644491Y12082096D01*
X2649500Y12100790D01*
Y12120143D01*
X2644491Y12138836D01*
X2634815Y12155596D01*
X2621130Y12169281D01*
X2604370Y12178957D01*
X2585677Y12183966D01*
D02*
G37*
G36*
X12302399Y12103300D02*
X12234700D01*
Y12035601D01*
X12302399D01*
Y12103300D01*
D02*
G37*
G36*
X12209300D02*
X12141600D01*
Y12035601D01*
X12209300D01*
Y12103300D01*
D02*
G37*
G36*
X10141676Y12149500D02*
X10122323D01*
X10103630Y12144491D01*
X10086870Y12134815D01*
X10073185Y12121130D01*
X10063508Y12104370D01*
X10058500Y12085677D01*
Y12066324D01*
X10063508Y12047630D01*
X10073185Y12030870D01*
X10086870Y12017186D01*
X10103630Y12007509D01*
X10122323Y12002500D01*
X10141676D01*
X10160370Y12007509D01*
X10177130Y12017186D01*
X10190814Y12030870D01*
X10200491Y12047630D01*
X10205500Y12066324D01*
Y12085677D01*
X10200491Y12104370D01*
X10190814Y12121130D01*
X10177130Y12134815D01*
X10160370Y12144491D01*
X10141676Y12149500D01*
D02*
G37*
G36*
X9941676D02*
X9922323D01*
X9903630Y12144491D01*
X9886870Y12134815D01*
X9873185Y12121130D01*
X9863509Y12104370D01*
X9858500Y12085677D01*
Y12066324D01*
X9863509Y12047630D01*
X9873185Y12030870D01*
X9886870Y12017186D01*
X9903630Y12007509D01*
X9922323Y12002500D01*
X9941676D01*
X9960370Y12007509D01*
X9977130Y12017186D01*
X9990814Y12030870D01*
X10000491Y12047630D01*
X10005500Y12066324D01*
Y12085677D01*
X10000491Y12104370D01*
X9990814Y12121130D01*
X9977130Y12134815D01*
X9960370Y12144491D01*
X9941676Y12149500D01*
D02*
G37*
G36*
X9741676D02*
X9722323D01*
X9703630Y12144491D01*
X9686870Y12134815D01*
X9673185Y12121130D01*
X9663508Y12104370D01*
X9658500Y12085677D01*
Y12066324D01*
X9663508Y12047630D01*
X9673185Y12030870D01*
X9686870Y12017186D01*
X9703630Y12007509D01*
X9722323Y12002500D01*
X9741676D01*
X9760370Y12007509D01*
X9777130Y12017186D01*
X9790814Y12030870D01*
X9800491Y12047630D01*
X9805500Y12066324D01*
Y12085677D01*
X9800491Y12104370D01*
X9790814Y12121130D01*
X9777130Y12134815D01*
X9760370Y12144491D01*
X9741676Y12149500D01*
D02*
G37*
G36*
X12230557Y11931000D02*
X12213442D01*
X12196910Y11926571D01*
X12182089Y11918013D01*
X12169987Y11905911D01*
X12161429Y11891090D01*
X12157000Y11874558D01*
Y11857443D01*
X12161429Y11840911D01*
X12169987Y11826090D01*
X12182089Y11813988D01*
X12196910Y11805430D01*
X12213442Y11801001D01*
X12230557D01*
X12247089Y11805430D01*
X12261910Y11813988D01*
X12274012Y11826090D01*
X12282570Y11840911D01*
X12286999Y11857443D01*
Y11874558D01*
X12282570Y11891090D01*
X12274012Y11905911D01*
X12261910Y11918013D01*
X12247089Y11926571D01*
X12230557Y11931000D01*
D02*
G37*
G36*
X4734558Y11820891D02*
X4717443D01*
X4700911Y11816462D01*
X4686089Y11807904D01*
X4673987Y11795802D01*
X4665430Y11780981D01*
X4661000Y11764449D01*
Y11747334D01*
X4665430Y11730802D01*
X4673987Y11715981D01*
X4686089Y11703879D01*
X4700911Y11695321D01*
X4717443Y11690892D01*
X4734558D01*
X4751089Y11695321D01*
X4765911Y11703879D01*
X4778013Y11715981D01*
X4786570Y11730802D01*
X4791000Y11747334D01*
Y11764449D01*
X4786570Y11780981D01*
X4778013Y11795802D01*
X4765911Y11807904D01*
X4751089Y11816462D01*
X4734558Y11820891D01*
D02*
G37*
G36*
X3413300Y11544116D02*
X3391786Y11535205D01*
X3376000Y11519418D01*
X3360214Y11535205D01*
X3338700Y11544116D01*
Y11484000D01*
X3326000D01*
Y11471300D01*
X3265884D01*
X3274796Y11449786D01*
X3285582Y11439000D01*
X3274796Y11428214D01*
X3265884Y11406700D01*
X3326000D01*
Y11381300D01*
X3265884D01*
X3274796Y11359786D01*
X3285582Y11349000D01*
X3274796Y11338214D01*
X3265884Y11316700D01*
X3326000D01*
Y11291300D01*
X3265884D01*
X3274796Y11269786D01*
X3285582Y11259000D01*
X3274796Y11248214D01*
X3265884Y11226700D01*
X3326000D01*
Y11214000D01*
X3338700D01*
Y11153884D01*
X3360214Y11162795D01*
X3376000Y11178582D01*
X3391786Y11162795D01*
X3413300Y11153884D01*
Y11214000D01*
X3426000D01*
Y11226700D01*
X3486116D01*
X3477205Y11248214D01*
X3466419Y11259000D01*
X3477205Y11269786D01*
X3486116Y11291300D01*
X3426000D01*
Y11316700D01*
X3486116D01*
X3477205Y11338214D01*
X3466419Y11349000D01*
X3477205Y11359786D01*
X3486116Y11381300D01*
X3426000D01*
Y11406700D01*
X3486116D01*
X3477205Y11428214D01*
X3466419Y11439000D01*
X3477205Y11449786D01*
X3486116Y11471300D01*
X3426000D01*
Y11484000D01*
X3413300D01*
Y11544116D01*
D02*
G37*
G36*
X4806400Y11586291D02*
X4738700D01*
Y11518591D01*
X4806400D01*
Y11586291D01*
D02*
G37*
G36*
X4713300D02*
X4645600D01*
Y11518591D01*
X4713300D01*
Y11586291D01*
D02*
G37*
G36*
X10569300Y11526116D02*
X10547786Y11517205D01*
X10532000Y11501419D01*
X10516213Y11517205D01*
X10494700Y11526116D01*
Y11466000D01*
X10482000D01*
Y11453300D01*
X10421884D01*
X10430795Y11431787D01*
X10441581Y11421000D01*
X10430795Y11410214D01*
X10421884Y11388700D01*
X10482000D01*
Y11363300D01*
X10421884D01*
X10430795Y11341787D01*
X10441581Y11331000D01*
X10430795Y11320214D01*
X10421884Y11298700D01*
X10482000D01*
Y11273300D01*
X10421884D01*
X10430795Y11251786D01*
X10441581Y11241000D01*
X10430795Y11230214D01*
X10421884Y11208700D01*
X10482000D01*
Y11196000D01*
X10494700D01*
Y11135885D01*
X10516213Y11144796D01*
X10532000Y11160582D01*
X10547786Y11144796D01*
X10569300Y11135885D01*
Y11196000D01*
X10582000D01*
Y11208700D01*
X10642116D01*
X10633204Y11230214D01*
X10622418Y11241000D01*
X10633204Y11251786D01*
X10642116Y11273300D01*
X10582000D01*
Y11298700D01*
X10642116D01*
X10633204Y11320214D01*
X10622418Y11331000D01*
X10633204Y11341787D01*
X10642116Y11363300D01*
X10582000D01*
Y11388700D01*
X10642116D01*
X10633204Y11410214D01*
X10622418Y11421000D01*
X10633204Y11431787D01*
X10642116Y11453300D01*
X10582000D01*
Y11466000D01*
X10569300D01*
Y11526116D01*
D02*
G37*
G36*
X3438700Y11544116D02*
Y11496700D01*
X3486116D01*
X3477205Y11518214D01*
X3460214Y11535205D01*
X3438700Y11544116D01*
D02*
G37*
G36*
X3313300D02*
X3291786Y11535205D01*
X3274796Y11518214D01*
X3265884Y11496700D01*
X3313300D01*
Y11544116D01*
D02*
G37*
G36*
X10594700Y11526116D02*
Y11478700D01*
X10642116D01*
X10633204Y11500214D01*
X10616213Y11517205D01*
X10594700Y11526116D01*
D02*
G37*
G36*
X10469300D02*
X10447786Y11517205D01*
X10430795Y11500214D01*
X10421884Y11478700D01*
X10469300D01*
Y11526116D01*
D02*
G37*
G36*
X4806400Y11493191D02*
X4738700D01*
Y11425491D01*
X4806400D01*
Y11493191D01*
D02*
G37*
G36*
X4713300D02*
X4645600D01*
Y11425491D01*
X4713300D01*
Y11493191D01*
D02*
G37*
G36*
X3486116Y11201300D02*
X3438700D01*
Y11153884D01*
X3460214Y11162795D01*
X3477205Y11179786D01*
X3486116Y11201300D01*
D02*
G37*
G36*
X3313300D02*
X3265884D01*
X3274796Y11179786D01*
X3291786Y11162795D01*
X3313300Y11153884D01*
Y11201300D01*
D02*
G37*
G36*
X10642116Y11183300D02*
X10594700D01*
Y11135885D01*
X10616213Y11144796D01*
X10633204Y11161787D01*
X10642116Y11183300D01*
D02*
G37*
G36*
X10469300D02*
X10421884D01*
X10430795Y11161787D01*
X10447786Y11144796D01*
X10469300Y11135885D01*
Y11183300D01*
D02*
G37*
G36*
X386520Y11065500D02*
X363480D01*
X341226Y11059537D01*
X321274Y11048017D01*
X304983Y11031726D01*
X293463Y11011774D01*
X287500Y10989520D01*
Y10966480D01*
X293463Y10944226D01*
X304983Y10924274D01*
X321274Y10907983D01*
X341226Y10896463D01*
X363480Y10890500D01*
X386520D01*
X408774Y10896463D01*
X428726Y10907983D01*
X445017Y10924274D01*
X456537Y10944226D01*
X462500Y10966480D01*
Y10989520D01*
X456537Y11011774D01*
X445017Y11031726D01*
X428726Y11048017D01*
X408774Y11059537D01*
X386520Y11065500D01*
D02*
G37*
G36*
Y10811500D02*
X363480D01*
X341226Y10805537D01*
X321274Y10794017D01*
X304983Y10777726D01*
X293463Y10757774D01*
X287500Y10735520D01*
Y10712480D01*
X293463Y10690226D01*
X304983Y10670274D01*
X321274Y10653983D01*
X341226Y10642463D01*
X363480Y10636500D01*
X386520D01*
X408774Y10642463D01*
X428726Y10653983D01*
X445017Y10670274D01*
X456537Y10690226D01*
X462500Y10712480D01*
Y10735520D01*
X456537Y10757774D01*
X445017Y10777726D01*
X428726Y10794017D01*
X408774Y10805537D01*
X386520Y10811500D01*
D02*
G37*
G36*
X462500Y10557500D02*
X287500D01*
Y10382500D01*
X462500D01*
Y10557500D01*
D02*
G37*
G36*
X2810398Y10904000D02*
X2761603D01*
X2713408Y10896367D01*
X2667002Y10881288D01*
X2623525Y10859136D01*
X2584049Y10830455D01*
X2549546Y10795951D01*
X2520865Y10756475D01*
X2498712Y10712999D01*
X2483634Y10666592D01*
X2476000Y10618397D01*
Y10569602D01*
X2483634Y10521408D01*
X2498712Y10475001D01*
X2520865Y10431524D01*
X2549546Y10392049D01*
X2584049Y10357545D01*
X2623525Y10328864D01*
X2667002Y10306712D01*
X2713408Y10291633D01*
X2761603Y10284000D01*
X2810398D01*
X2858592Y10291633D01*
X2904999Y10306712D01*
X2948476Y10328864D01*
X2987952Y10357545D01*
X3022455Y10392049D01*
X3051136Y10431524D01*
X3073288Y10475001D01*
X3088367Y10521408D01*
X3096000Y10569602D01*
Y10618397D01*
X3088367Y10666592D01*
X3073288Y10712999D01*
X3051136Y10756475D01*
X3022455Y10795951D01*
X2987952Y10830455D01*
X2948476Y10859136D01*
X2904999Y10881288D01*
X2858592Y10896367D01*
X2810398Y10904000D01*
D02*
G37*
G36*
X9956397Y10796000D02*
X9907602D01*
X9859408Y10788367D01*
X9813001Y10773289D01*
X9769524Y10751136D01*
X9730048Y10722455D01*
X9695545Y10687952D01*
X9666864Y10648476D01*
X9644711Y10604999D01*
X9629633Y10558592D01*
X9622000Y10510398D01*
Y10461603D01*
X9629633Y10413408D01*
X9644711Y10367002D01*
X9666864Y10323525D01*
X9695545Y10284049D01*
X9730048Y10249546D01*
X9769524Y10220865D01*
X9813001Y10198712D01*
X9859408Y10183634D01*
X9907602Y10176000D01*
X9956397D01*
X10004592Y10183634D01*
X10050998Y10198712D01*
X10094475Y10220865D01*
X10133951Y10249546D01*
X10168454Y10284049D01*
X10197135Y10323525D01*
X10219288Y10367002D01*
X10234366Y10413408D01*
X10242000Y10461603D01*
Y10510398D01*
X10234366Y10558592D01*
X10219288Y10604999D01*
X10197135Y10648476D01*
X10168454Y10687952D01*
X10133951Y10722455D01*
X10094475Y10751136D01*
X10050998Y10773289D01*
X10004592Y10788367D01*
X9956397Y10796000D01*
D02*
G37*
G36*
X18485208Y10085000D02*
X18414792D01*
X18364999Y10035208D01*
Y9964792D01*
X18414792Y9915000D01*
X18485208D01*
X18535001Y9964792D01*
Y10035208D01*
X18485208Y10085000D01*
D02*
G37*
G36*
X16485208D02*
X16414792D01*
X16364999Y10035208D01*
Y9964792D01*
X16414792Y9915000D01*
X16485208D01*
X16535001Y9964792D01*
Y10035208D01*
X16485208Y10085000D01*
D02*
G37*
G36*
X14485208D02*
X14414792D01*
X14364999Y10035208D01*
Y9964792D01*
X14414792Y9915000D01*
X14485208D01*
X14535001Y9964792D01*
Y10035208D01*
X14485208Y10085000D01*
D02*
G37*
G36*
X7913399Y8620116D02*
Y8572700D01*
X7960815D01*
X7951904Y8594213D01*
X7934913Y8611204D01*
X7913399Y8620116D01*
D02*
G37*
G36*
X7887999D02*
X7866486Y8611204D01*
X7849495Y8594213D01*
X7840584Y8572700D01*
X7887999D01*
Y8620116D01*
D02*
G37*
G36*
X7695507Y8600116D02*
Y8552700D01*
X7742923D01*
X7734011Y8574214D01*
X7717020Y8591205D01*
X7695507Y8600116D01*
D02*
G37*
G36*
X7670107D02*
X7648593Y8591205D01*
X7631602Y8574214D01*
X7624121Y8556152D01*
X7610673Y8547976D01*
X7605507Y8550116D01*
Y8490000D01*
Y8429884D01*
X7610673Y8432024D01*
X7624121Y8423848D01*
X7631602Y8405786D01*
X7648593Y8388796D01*
X7670107Y8379884D01*
Y8440000D01*
X7682807D01*
Y8452700D01*
X7742923D01*
X7734011Y8474214D01*
X7718225Y8490000D01*
X7734011Y8505786D01*
X7742923Y8527300D01*
X7682807D01*
Y8540000D01*
X7670107D01*
Y8600116D01*
D02*
G37*
G36*
X7580107Y8550116D02*
X7558593Y8541205D01*
X7541602Y8524214D01*
X7532691Y8502700D01*
X7580107D01*
Y8550116D01*
D02*
G37*
G36*
X7960815Y8547300D02*
X7913399D01*
Y8499884D01*
X7934913Y8508795D01*
X7951904Y8525786D01*
X7960815Y8547300D01*
D02*
G37*
G36*
X7887999D02*
X7840584D01*
X7849495Y8525786D01*
X7866486Y8508795D01*
X7887999Y8499884D01*
Y8547300D01*
D02*
G37*
G36*
X6602700Y8490116D02*
Y8442700D01*
X6650116D01*
X6641205Y8464214D01*
X6624214Y8481205D01*
X6602700Y8490116D01*
D02*
G37*
G36*
X6577300D02*
X6555786Y8481205D01*
X6538795Y8464214D01*
X6529884Y8442700D01*
X6577300D01*
Y8490116D01*
D02*
G37*
G36*
X7580107Y8477300D02*
X7532691D01*
X7541602Y8455786D01*
X7558593Y8438795D01*
X7580107Y8429884D01*
Y8477300D01*
D02*
G37*
G36*
X7742923Y8427300D02*
X7695507D01*
Y8379884D01*
X7717020Y8388796D01*
X7734011Y8405786D01*
X7742923Y8427300D01*
D02*
G37*
G36*
X6650116Y8417300D02*
X6602700D01*
Y8369884D01*
X6624214Y8378795D01*
X6641205Y8395786D01*
X6650116Y8417300D01*
D02*
G37*
G36*
X6577300D02*
X6529884D01*
X6538795Y8395786D01*
X6555786Y8378795D01*
X6577300Y8369884D01*
Y8417300D01*
D02*
G37*
G36*
X7902700Y8295116D02*
Y8247700D01*
X7950116D01*
X7941205Y8269214D01*
X7924214Y8286205D01*
X7902700Y8295116D01*
D02*
G37*
G36*
X7877300D02*
X7855786Y8286205D01*
X7838795Y8269214D01*
X7829884Y8247700D01*
X7877300D01*
Y8295116D01*
D02*
G37*
G36*
X7950116Y8222300D02*
X7902700D01*
Y8174884D01*
X7924214Y8183795D01*
X7941205Y8200786D01*
X7950116Y8222300D01*
D02*
G37*
G36*
X7877300D02*
X7829884D01*
X7838795Y8200786D01*
X7855786Y8183795D01*
X7877300Y8174884D01*
Y8222300D01*
D02*
G37*
G36*
X7975700Y8038116D02*
Y7990700D01*
X8023116D01*
X8014205Y8012214D01*
X7997214Y8029205D01*
X7975700Y8038116D01*
D02*
G37*
G36*
X7950300D02*
X7928786Y8029205D01*
X7911795Y8012214D01*
X7902884Y7990700D01*
X7950300D01*
Y8038116D01*
D02*
G37*
G36*
X8023116Y7965300D02*
X7975700D01*
Y7917884D01*
X7997214Y7926795D01*
X8014205Y7943786D01*
X8023116Y7965300D01*
D02*
G37*
G36*
X7950300D02*
X7902884D01*
X7911795Y7943786D01*
X7928786Y7926795D01*
X7950300Y7917884D01*
Y7965300D01*
D02*
G37*
G36*
X465400Y6960400D02*
X372700D01*
Y6867700D01*
X465400D01*
Y6960400D01*
D02*
G37*
G36*
X347300D02*
X254600D01*
Y6867700D01*
X347300D01*
Y6960400D01*
D02*
G37*
G36*
X465400Y6842300D02*
X372700D01*
Y6749600D01*
X465400D01*
Y6842300D01*
D02*
G37*
G36*
X347300D02*
X254600D01*
Y6749600D01*
X347300D01*
Y6842300D01*
D02*
G37*
G36*
X371849Y6691000D02*
X348151D01*
X325261Y6684866D01*
X304739Y6673018D01*
X287982Y6656261D01*
X276134Y6635739D01*
X270000Y6612849D01*
Y6589151D01*
X276134Y6566261D01*
X287982Y6545739D01*
X304739Y6528982D01*
X325261Y6517134D01*
X348151Y6511000D01*
X371849D01*
X394739Y6517134D01*
X415261Y6528982D01*
X432018Y6545739D01*
X443867Y6566261D01*
X446571Y6576355D01*
X2651086Y6576355D01*
X2651851Y6574510D01*
X2664510Y6561851D01*
X2681049Y6555000D01*
X2698951D01*
X2715490Y6561851D01*
X2728149Y6574510D01*
X2735000Y6591049D01*
Y6608951D01*
X2728149Y6625490D01*
X2715490Y6638149D01*
X2698951Y6645000D01*
X2681049D01*
X2664510Y6638149D01*
X2651851Y6625490D01*
X2650672Y6622645D01*
X447375Y6622644D01*
X443867Y6635739D01*
X432018Y6656261D01*
X415261Y6673018D01*
X394739Y6684866D01*
X371849Y6691000D01*
D02*
G37*
G36*
Y6437000D02*
X348151D01*
X325261Y6430866D01*
X304739Y6419018D01*
X287982Y6402261D01*
X276134Y6381739D01*
X270091Y6359186D01*
X268367Y6356607D01*
X266606Y6347750D01*
X268367Y6338893D01*
X270000Y6336449D01*
Y6335151D01*
X276134Y6312261D01*
X287982Y6291739D01*
X304739Y6274982D01*
X325261Y6263134D01*
X348151Y6257000D01*
X371849D01*
X394739Y6263134D01*
X415261Y6274982D01*
X432018Y6291739D01*
X443867Y6312261D01*
X447174Y6324605D01*
X2511811D01*
X2511851Y6324510D01*
X2524510Y6311851D01*
X2541049Y6305000D01*
X2558951D01*
X2575490Y6311851D01*
X2588149Y6324510D01*
X2595000Y6341049D01*
Y6358951D01*
X2588149Y6375490D01*
X2575490Y6388149D01*
X2558951Y6395000D01*
X2541049D01*
X2524510Y6388149D01*
X2511851Y6375490D01*
X2509947Y6370895D01*
X446772D01*
X443867Y6381739D01*
X432018Y6402261D01*
X415261Y6419018D01*
X394739Y6430866D01*
X371849Y6437000D01*
D02*
G37*
G36*
Y6183000D02*
X348151D01*
X325261Y6176866D01*
X304739Y6165018D01*
X287982Y6148261D01*
X276134Y6127739D01*
X270000Y6104849D01*
Y6081151D01*
X276134Y6058261D01*
X287982Y6037739D01*
X304739Y6020982D01*
X325261Y6009134D01*
X348151Y6003000D01*
X371849D01*
X394739Y6009134D01*
X415261Y6020982D01*
X432018Y6037739D01*
X443867Y6058261D01*
X446370Y6067605D01*
X2360569D01*
X2361851Y6064510D01*
X2374510Y6051851D01*
X2391049Y6045000D01*
X2408951D01*
X2425490Y6051851D01*
X2438149Y6064510D01*
X2445000Y6081049D01*
Y6098951D01*
X2438149Y6115490D01*
X2425490Y6128149D01*
X2408951Y6135000D01*
X2391049D01*
X2374510Y6128149D01*
X2361851Y6115490D01*
X2361190Y6113895D01*
X447576D01*
X443867Y6127739D01*
X432018Y6148261D01*
X415261Y6165018D01*
X394739Y6176866D01*
X371849Y6183000D01*
D02*
G37*
G36*
X7008951Y6055000D02*
X6991049D01*
X6974510Y6048149D01*
X6961851Y6035490D01*
X6960879Y6033145D01*
X5714121D01*
X5713149Y6035490D01*
X5700491Y6048149D01*
X5683951Y6055000D01*
X5666049D01*
X5649510Y6048149D01*
X5636851Y6035490D01*
X5630000Y6018951D01*
Y6001049D01*
X5636851Y5984509D01*
X5649510Y5971851D01*
X5666049Y5965000D01*
X5683951D01*
X5700491Y5971851D01*
X5713149Y5984509D01*
X5714121Y5986855D01*
X6960879D01*
X6961851Y5984509D01*
X6974510Y5971851D01*
X6991049Y5965000D01*
X7008951D01*
X7025490Y5971851D01*
X7038149Y5984509D01*
X7045000Y6001049D01*
Y6018951D01*
X7038149Y6035490D01*
X7025490Y6048149D01*
X7008951Y6055000D01*
D02*
G37*
G36*
X4938951Y6050000D02*
X4921049D01*
X4904510Y6043149D01*
X4891851Y6030490D01*
X4889844Y6025645D01*
X2727995D01*
X2715490Y6038149D01*
X2698951Y6045000D01*
X2681049D01*
X2664510Y6038149D01*
X2651851Y6025490D01*
X2645000Y6008951D01*
Y5991049D01*
X2651851Y5974510D01*
X2664510Y5961851D01*
X2681049Y5955000D01*
X2698951D01*
X2715490Y5961851D01*
X2728149Y5974510D01*
X2730156Y5979355D01*
X4892005D01*
X4904510Y5966851D01*
X4921049Y5960000D01*
X4938951D01*
X4955490Y5966851D01*
X4968149Y5979510D01*
X4975000Y5996049D01*
Y6013951D01*
X4968149Y6030490D01*
X4955490Y6043149D01*
X4938951Y6050000D01*
D02*
G37*
G36*
X2558951Y5945000D02*
X2541049D01*
X2524510Y5938149D01*
X2511851Y5925490D01*
X2505000Y5908951D01*
Y5891049D01*
X2511851Y5874509D01*
X2524510Y5861851D01*
X2541049Y5855000D01*
X2558951D01*
X2575490Y5861851D01*
X2585495Y5871855D01*
X4733808D01*
X4736851Y5864509D01*
X4749510Y5851851D01*
X4766049Y5845000D01*
X4783951D01*
X4800491Y5851851D01*
X4813149Y5864509D01*
X4820000Y5881049D01*
Y5898951D01*
X4813149Y5915490D01*
X4800491Y5928149D01*
X4783951Y5935000D01*
X4766049D01*
X4749510Y5928149D01*
X4739505Y5918145D01*
X2591192D01*
X2588149Y5925490D01*
X2575490Y5938149D01*
X2558951Y5945000D01*
D02*
G37*
G36*
X5813951Y5900000D02*
X5796049D01*
X5779510Y5893149D01*
X5766851Y5880490D01*
X5760000Y5863951D01*
Y5846049D01*
X5766851Y5829510D01*
X5779510Y5816851D01*
X5796049Y5810000D01*
X5813951D01*
X5830490Y5816851D01*
X5842995Y5829355D01*
X7109844D01*
X7111851Y5824510D01*
X7124509Y5811851D01*
X7141049Y5805000D01*
X7158951D01*
X7175490Y5811851D01*
X7188149Y5824510D01*
X7195000Y5841049D01*
Y5858951D01*
X7188149Y5875490D01*
X7175490Y5888149D01*
X7158951Y5895000D01*
X7141049D01*
X7124509Y5888149D01*
X7112005Y5875645D01*
X5845156D01*
X5843149Y5880490D01*
X5830490Y5893149D01*
X5813951Y5900000D01*
D02*
G37*
G36*
X371849Y5929000D02*
X348151D01*
X325261Y5922866D01*
X304739Y5911018D01*
X287982Y5894261D01*
X276134Y5873739D01*
X270000Y5850849D01*
Y5842807D01*
X269867Y5842607D01*
X268105Y5833750D01*
X269867Y5824893D01*
X271100Y5823048D01*
X276134Y5804261D01*
X287982Y5783739D01*
X304739Y5766982D01*
X325261Y5755134D01*
X348151Y5749000D01*
X371849D01*
X394739Y5755134D01*
X415261Y5766982D01*
X432018Y5783739D01*
X443867Y5804261D01*
X445566Y5810605D01*
X2209326D01*
X2211851Y5804510D01*
X2224510Y5791851D01*
X2241049Y5785000D01*
X2258951D01*
X2275490Y5791851D01*
X2288149Y5804510D01*
X2295000Y5821049D01*
Y5838951D01*
X2288149Y5855490D01*
X2275490Y5868149D01*
X2258951Y5875000D01*
X2241049D01*
X2224510Y5868149D01*
X2213255Y5856895D01*
X448380D01*
X443867Y5873739D01*
X432018Y5894261D01*
X415261Y5911018D01*
X394739Y5922866D01*
X371849Y5929000D01*
D02*
G37*
G36*
X2418951Y5815000D02*
X2401049D01*
X2384510Y5808149D01*
X2371851Y5795490D01*
X2365000Y5778951D01*
Y5761049D01*
X2371851Y5744509D01*
X2384510Y5731851D01*
X2401049Y5725000D01*
X2418951D01*
X2435490Y5731851D01*
X2448149Y5744509D01*
X2449121Y5746855D01*
X4583808D01*
X4586851Y5739509D01*
X4599509Y5726851D01*
X4616049Y5720000D01*
X4633951D01*
X4650490Y5726851D01*
X4663149Y5739509D01*
X4670000Y5756049D01*
Y5773951D01*
X4663149Y5790490D01*
X4650490Y5803149D01*
X4633951Y5810000D01*
X4616049D01*
X4599509Y5803149D01*
X4589505Y5793145D01*
X2449121D01*
X2448149Y5795490D01*
X2435490Y5808149D01*
X2418951Y5815000D01*
D02*
G37*
G36*
X4483951Y5705000D02*
X4466049D01*
X4449510Y5698149D01*
X4436851Y5685491D01*
X4433808Y5678145D01*
X2285495D01*
X2275490Y5688149D01*
X2258951Y5695000D01*
X2241049D01*
X2224510Y5688149D01*
X2211851Y5675490D01*
X2205000Y5658951D01*
Y5641049D01*
X2211851Y5624509D01*
X2224510Y5611851D01*
X2241049Y5605000D01*
X2258951D01*
X2275490Y5611851D01*
X2288149Y5624509D01*
X2291192Y5631855D01*
X4439505D01*
X4449510Y5621851D01*
X4466049Y5615000D01*
X4483951D01*
X4500490Y5621851D01*
X4513149Y5634510D01*
X4520000Y5651049D01*
Y5668951D01*
X4513149Y5685491D01*
X4500490Y5698149D01*
X4483951Y5705000D01*
D02*
G37*
G36*
X371849Y5675000D02*
X348151D01*
X325261Y5668866D01*
X304739Y5657018D01*
X287982Y5640261D01*
X276134Y5619739D01*
X270000Y5596849D01*
Y5573151D01*
X276134Y5550261D01*
X287982Y5529739D01*
X304739Y5512982D01*
X325261Y5501134D01*
X348151Y5495000D01*
X371849D01*
X394739Y5501134D01*
X415261Y5512982D01*
X432018Y5529739D01*
X443867Y5550261D01*
X450000Y5573151D01*
Y5596849D01*
X443867Y5619739D01*
X432018Y5640261D01*
X415261Y5657018D01*
X394739Y5668866D01*
X371849Y5675000D01*
D02*
G37*
G36*
X7162700Y5410116D02*
Y5362700D01*
X7210116D01*
X7201205Y5384214D01*
X7184214Y5401205D01*
X7162700Y5410116D01*
D02*
G37*
G36*
X7137300D02*
X7115786Y5401205D01*
X7098795Y5384214D01*
X7089884Y5362700D01*
X7137300D01*
Y5410116D01*
D02*
G37*
G36*
X6932700D02*
Y5362700D01*
X6980116D01*
X6971204Y5384214D01*
X6954214Y5401205D01*
X6932700Y5410116D01*
D02*
G37*
G36*
X6907300D02*
X6885786Y5401205D01*
X6868795Y5384214D01*
X6859884Y5362700D01*
X6907300D01*
Y5410116D01*
D02*
G37*
G36*
X7210116Y5337300D02*
X7162700D01*
Y5289884D01*
X7184214Y5298795D01*
X7201205Y5315786D01*
X7210116Y5337300D01*
D02*
G37*
G36*
X7137300D02*
X7089884D01*
X7098795Y5315786D01*
X7115786Y5298795D01*
X7137300Y5289884D01*
Y5337300D01*
D02*
G37*
G36*
X6980116D02*
X6932700D01*
Y5289884D01*
X6954214Y5298795D01*
X6971204Y5315786D01*
X6980116Y5337300D01*
D02*
G37*
G36*
X6907300D02*
X6859884D01*
X6868795Y5315786D01*
X6885786Y5298795D01*
X6907300Y5289884D01*
Y5337300D01*
D02*
G37*
G36*
X3971451Y5145000D02*
X3953549D01*
X3937010Y5138149D01*
X3929448Y5130588D01*
X1533052D01*
X1525490Y5138149D01*
X1508951Y5145000D01*
X1491049D01*
X1474510Y5138149D01*
X1461851Y5125490D01*
X1455000Y5108951D01*
Y5091049D01*
X1461851Y5074510D01*
X1474510Y5061851D01*
X1491049Y5055000D01*
X1508951D01*
X1525490Y5061851D01*
X1533052Y5069412D01*
X3929448D01*
X3937010Y5061851D01*
X3953549Y5055000D01*
X3971451D01*
X3987991Y5061851D01*
X4000649Y5074510D01*
X4007500Y5091049D01*
Y5108951D01*
X4000649Y5125490D01*
X3987991Y5138149D01*
X3971451Y5145000D01*
D02*
G37*
G36*
X175200Y5160116D02*
Y5112700D01*
X222616D01*
X213705Y5134214D01*
X196714Y5151205D01*
X175200Y5160116D01*
D02*
G37*
G36*
X149800D02*
X128286Y5151205D01*
X111295Y5134214D01*
X102384Y5112700D01*
X149800D01*
Y5160116D01*
D02*
G37*
G36*
X222616Y5087300D02*
X175200D01*
Y5039884D01*
X196714Y5048795D01*
X213705Y5065786D01*
X222616Y5087300D01*
D02*
G37*
G36*
X149800D02*
X102384D01*
X111295Y5065786D01*
X128286Y5048795D01*
X149800Y5039884D01*
Y5087300D01*
D02*
G37*
G36*
X1010012Y5175049D02*
X989987D01*
X970645Y5169867D01*
X953304Y5159855D01*
X939144Y5145695D01*
X929132Y5128354D01*
X923950Y5109012D01*
Y5088987D01*
X929132Y5069645D01*
X939144Y5052304D01*
X953304Y5038144D01*
X970645Y5028132D01*
X989987Y5022950D01*
X1010012D01*
X1029354Y5028132D01*
X1046695Y5038144D01*
X1060855Y5052304D01*
X1070867Y5069645D01*
X1076049Y5088987D01*
Y5109012D01*
X1070867Y5128354D01*
X1060855Y5145695D01*
X1046695Y5159855D01*
X1029354Y5169867D01*
X1010012Y5175049D01*
D02*
G37*
G36*
X760012D02*
X739987D01*
X720645Y5169867D01*
X703304Y5159855D01*
X689144Y5145695D01*
X679132Y5128354D01*
X673950Y5109012D01*
Y5088987D01*
X679132Y5069645D01*
X689144Y5052304D01*
X703304Y5038144D01*
X720645Y5028132D01*
X739987Y5022950D01*
X760012D01*
X779354Y5028132D01*
X796695Y5038144D01*
X810855Y5052304D01*
X820867Y5069645D01*
X826049Y5088987D01*
Y5109012D01*
X820867Y5128354D01*
X810855Y5145695D01*
X796695Y5159855D01*
X779354Y5169867D01*
X760012Y5175049D01*
D02*
G37*
G36*
X3733951Y4720000D02*
X3716049D01*
X3699509Y4713149D01*
X3691948Y4705588D01*
X1533052D01*
X1525490Y4713149D01*
X1508951Y4720000D01*
X1491049D01*
X1474510Y4713149D01*
X1461851Y4700490D01*
X1455000Y4683951D01*
Y4666049D01*
X1461851Y4649510D01*
X1474510Y4636851D01*
X1491049Y4630000D01*
X1508951D01*
X1525490Y4636851D01*
X1533052Y4644412D01*
X3691948D01*
X3699509Y4636851D01*
X3716049Y4630000D01*
X3733951D01*
X3750490Y4636851D01*
X3763149Y4649510D01*
X3770000Y4666049D01*
Y4683951D01*
X3763149Y4700490D01*
X3750490Y4713149D01*
X3733951Y4720000D01*
D02*
G37*
G36*
X175200Y4735116D02*
Y4687700D01*
X222616D01*
X213705Y4709214D01*
X196714Y4726205D01*
X175200Y4735116D01*
D02*
G37*
G36*
X149800D02*
X128286Y4726205D01*
X111295Y4709214D01*
X102384Y4687700D01*
X149800D01*
Y4735116D01*
D02*
G37*
G36*
X222616Y4662300D02*
X175200D01*
Y4614884D01*
X196714Y4623795D01*
X213705Y4640786D01*
X222616Y4662300D01*
D02*
G37*
G36*
X149800D02*
X102384D01*
X111295Y4640786D01*
X128286Y4623795D01*
X149800Y4614884D01*
Y4662300D01*
D02*
G37*
G36*
X1010012Y4750049D02*
X989987D01*
X970645Y4744867D01*
X953304Y4734855D01*
X939144Y4720695D01*
X929132Y4703354D01*
X923950Y4684012D01*
Y4663987D01*
X929132Y4644645D01*
X939144Y4627304D01*
X953304Y4613144D01*
X970645Y4603132D01*
X989987Y4597950D01*
X1010012D01*
X1029354Y4603132D01*
X1046695Y4613144D01*
X1060855Y4627304D01*
X1070867Y4644645D01*
X1076049Y4663987D01*
Y4684012D01*
X1070867Y4703354D01*
X1060855Y4720695D01*
X1046695Y4734855D01*
X1029354Y4744867D01*
X1010012Y4750049D01*
D02*
G37*
G36*
X760012D02*
X739987D01*
X720645Y4744867D01*
X703304Y4734855D01*
X689144Y4720695D01*
X679132Y4703354D01*
X673950Y4684012D01*
Y4663987D01*
X679132Y4644645D01*
X689144Y4627304D01*
X703304Y4613144D01*
X720645Y4603132D01*
X739987Y4597950D01*
X760012D01*
X779354Y4603132D01*
X796695Y4613144D01*
X810855Y4627304D01*
X820867Y4644645D01*
X826049Y4663987D01*
Y4684012D01*
X820867Y4703354D01*
X810855Y4720695D01*
X796695Y4734855D01*
X779354Y4744867D01*
X760012Y4750049D01*
D02*
G37*
G36*
X3471451Y4295000D02*
X3453549D01*
X3437010Y4288149D01*
X3429448Y4280588D01*
X1533052D01*
X1525490Y4288149D01*
X1508951Y4295000D01*
X1491049D01*
X1474510Y4288149D01*
X1461851Y4275490D01*
X1455000Y4258951D01*
Y4241049D01*
X1461851Y4224509D01*
X1474510Y4211851D01*
X1491049Y4205000D01*
X1508951D01*
X1525490Y4211851D01*
X1533052Y4219412D01*
X3429448D01*
X3437010Y4211851D01*
X3453549Y4205000D01*
X3471451D01*
X3487990Y4211851D01*
X3500649Y4224509D01*
X3507500Y4241049D01*
Y4258951D01*
X3500649Y4275490D01*
X3487990Y4288149D01*
X3471451Y4295000D01*
D02*
G37*
G36*
X175200Y4310116D02*
Y4262700D01*
X222616D01*
X213705Y4284214D01*
X196714Y4301205D01*
X175200Y4310116D01*
D02*
G37*
G36*
X149800D02*
X128286Y4301205D01*
X111295Y4284214D01*
X102384Y4262700D01*
X149800D01*
Y4310116D01*
D02*
G37*
G36*
X222616Y4237300D02*
X175200D01*
Y4189884D01*
X196714Y4198795D01*
X213705Y4215786D01*
X222616Y4237300D01*
D02*
G37*
G36*
X149800D02*
X102384D01*
X111295Y4215786D01*
X128286Y4198795D01*
X149800Y4189884D01*
Y4237300D01*
D02*
G37*
G36*
X1010012Y4325050D02*
X989987D01*
X970645Y4319867D01*
X953304Y4309855D01*
X939144Y4295695D01*
X929132Y4278354D01*
X923950Y4259012D01*
Y4238987D01*
X929132Y4219645D01*
X939144Y4202304D01*
X953304Y4188145D01*
X970645Y4178132D01*
X989987Y4172950D01*
X1010012D01*
X1029354Y4178132D01*
X1046695Y4188145D01*
X1060855Y4202304D01*
X1070867Y4219645D01*
X1076049Y4238987D01*
Y4259012D01*
X1070867Y4278354D01*
X1060855Y4295695D01*
X1046695Y4309855D01*
X1029354Y4319867D01*
X1010012Y4325050D01*
D02*
G37*
G36*
X760012D02*
X739987D01*
X720645Y4319867D01*
X703304Y4309855D01*
X689144Y4295695D01*
X679132Y4278354D01*
X673950Y4259012D01*
Y4238987D01*
X679132Y4219645D01*
X689144Y4202304D01*
X703304Y4188145D01*
X720645Y4178132D01*
X739987Y4172950D01*
X760012D01*
X779354Y4178132D01*
X796695Y4188145D01*
X810855Y4202304D01*
X820867Y4219645D01*
X826049Y4238987D01*
Y4259012D01*
X820867Y4278354D01*
X810855Y4295695D01*
X796695Y4309855D01*
X779354Y4319867D01*
X760012Y4325050D01*
D02*
G37*
G36*
X3221451Y3870000D02*
X3203549D01*
X3187010Y3863149D01*
X3179448Y3855588D01*
X1533052D01*
X1525490Y3863149D01*
X1508951Y3870000D01*
X1491049D01*
X1474510Y3863149D01*
X1461851Y3850490D01*
X1455000Y3833951D01*
Y3816049D01*
X1461851Y3799510D01*
X1474510Y3786851D01*
X1491049Y3780000D01*
X1508951D01*
X1525490Y3786851D01*
X1533052Y3794412D01*
X3179448D01*
X3187010Y3786851D01*
X3203549Y3780000D01*
X3221451D01*
X3237990Y3786851D01*
X3250649Y3799510D01*
X3257500Y3816049D01*
Y3833951D01*
X3250649Y3850490D01*
X3237990Y3863149D01*
X3221451Y3870000D01*
D02*
G37*
G36*
X175200Y3885116D02*
Y3837700D01*
X222616D01*
X213705Y3859214D01*
X196714Y3876205D01*
X175200Y3885116D01*
D02*
G37*
G36*
X149800D02*
X128286Y3876205D01*
X111295Y3859214D01*
X102384Y3837700D01*
X149800D01*
Y3885116D01*
D02*
G37*
G36*
X222616Y3812300D02*
X175200D01*
Y3764884D01*
X196714Y3773795D01*
X213705Y3790786D01*
X222616Y3812300D01*
D02*
G37*
G36*
X149800D02*
X102384D01*
X111295Y3790786D01*
X128286Y3773795D01*
X149800Y3764884D01*
Y3812300D01*
D02*
G37*
G36*
X1010012Y3900049D02*
X989987D01*
X970645Y3894867D01*
X953304Y3884855D01*
X939144Y3870695D01*
X929132Y3853354D01*
X923950Y3834012D01*
Y3813987D01*
X929132Y3794645D01*
X939144Y3777304D01*
X953304Y3763144D01*
X970645Y3753132D01*
X989987Y3747950D01*
X1010012D01*
X1029354Y3753132D01*
X1046695Y3763144D01*
X1060855Y3777304D01*
X1070867Y3794645D01*
X1076049Y3813987D01*
Y3834012D01*
X1070867Y3853354D01*
X1060855Y3870695D01*
X1046695Y3884855D01*
X1029354Y3894867D01*
X1010012Y3900049D01*
D02*
G37*
G36*
X760012D02*
X739987D01*
X720645Y3894867D01*
X703304Y3884855D01*
X689144Y3870695D01*
X679132Y3853354D01*
X673950Y3834012D01*
Y3813987D01*
X679132Y3794645D01*
X689144Y3777304D01*
X703304Y3763144D01*
X720645Y3753132D01*
X739987Y3747950D01*
X760012D01*
X779354Y3753132D01*
X796695Y3763144D01*
X810855Y3777304D01*
X820867Y3794645D01*
X826049Y3813987D01*
Y3834012D01*
X820867Y3853354D01*
X810855Y3870695D01*
X796695Y3884855D01*
X779354Y3894867D01*
X760012Y3900049D01*
D02*
G37*
G36*
X2958951Y3445000D02*
X2941049D01*
X2924510Y3438149D01*
X2916948Y3430588D01*
X1533052D01*
X1525490Y3438149D01*
X1508951Y3445000D01*
X1491049D01*
X1474510Y3438149D01*
X1461851Y3425490D01*
X1455000Y3408951D01*
Y3391049D01*
X1461851Y3374510D01*
X1474510Y3361851D01*
X1491049Y3355000D01*
X1508951D01*
X1525490Y3361851D01*
X1533052Y3369412D01*
X2916948D01*
X2924510Y3361851D01*
X2941049Y3355000D01*
X2958951D01*
X2975490Y3361851D01*
X2988149Y3374510D01*
X2995000Y3391049D01*
Y3408951D01*
X2988149Y3425490D01*
X2975490Y3438149D01*
X2958951Y3445000D01*
D02*
G37*
G36*
X175200Y3460116D02*
Y3412700D01*
X222616D01*
X213705Y3434214D01*
X196714Y3451205D01*
X175200Y3460116D01*
D02*
G37*
G36*
X149800D02*
X128286Y3451205D01*
X111295Y3434214D01*
X102384Y3412700D01*
X149800D01*
Y3460116D01*
D02*
G37*
G36*
X222616Y3387300D02*
X175200D01*
Y3339884D01*
X196714Y3348795D01*
X213705Y3365786D01*
X222616Y3387300D01*
D02*
G37*
G36*
X149800D02*
X102384D01*
X111295Y3365786D01*
X128286Y3348795D01*
X149800Y3339884D01*
Y3387300D01*
D02*
G37*
G36*
X1010012Y3475049D02*
X989987D01*
X970645Y3469867D01*
X953304Y3459855D01*
X939144Y3445695D01*
X929132Y3428354D01*
X923950Y3409012D01*
Y3388987D01*
X929132Y3369645D01*
X939144Y3352304D01*
X953304Y3338144D01*
X970645Y3328132D01*
X989987Y3322950D01*
X1010012D01*
X1029354Y3328132D01*
X1046695Y3338144D01*
X1060855Y3352304D01*
X1070867Y3369645D01*
X1076049Y3388987D01*
Y3409012D01*
X1070867Y3428354D01*
X1060855Y3445695D01*
X1046695Y3459855D01*
X1029354Y3469867D01*
X1010012Y3475049D01*
D02*
G37*
G36*
X760012D02*
X739987D01*
X720645Y3469867D01*
X703304Y3459855D01*
X689144Y3445695D01*
X679132Y3428354D01*
X673950Y3409012D01*
Y3388987D01*
X679132Y3369645D01*
X689144Y3352304D01*
X703304Y3338144D01*
X720645Y3328132D01*
X739987Y3322950D01*
X760012D01*
X779354Y3328132D01*
X796695Y3338144D01*
X810855Y3352304D01*
X820867Y3369645D01*
X826049Y3388987D01*
Y3409012D01*
X820867Y3428354D01*
X810855Y3445695D01*
X796695Y3459855D01*
X779354Y3469867D01*
X760012Y3475049D01*
D02*
G37*
G36*
X5083951Y3270000D02*
X5066049D01*
X5049510Y3263149D01*
X5036851Y3250490D01*
X5035879Y3248145D01*
X4400000D01*
X4391143Y3246383D01*
X4383634Y3241366D01*
X4333634Y3191365D01*
X4328617Y3183857D01*
X4326855Y3175000D01*
Y3014120D01*
X4324510Y3013149D01*
X4311851Y3000490D01*
X4305000Y2983951D01*
Y2966049D01*
X4311851Y2949509D01*
X4324510Y2936851D01*
X4333457Y2933145D01*
X4330930Y2920445D01*
X1825295D01*
X1812991Y2932749D01*
X1810182Y2933912D01*
X1812708Y2946612D01*
X2674948D01*
X2680310Y2941251D01*
X2696849Y2934400D01*
X2714751D01*
X2731290Y2941251D01*
X2743949Y2953910D01*
X2750800Y2970449D01*
Y2988351D01*
X2743949Y3004890D01*
X2731290Y3017549D01*
X2714751Y3024400D01*
X2696849D01*
X2680310Y3017549D01*
X2670548Y3007788D01*
X1530852D01*
X1525490Y3013149D01*
X1508951Y3020000D01*
X1491049D01*
X1474510Y3013149D01*
X1461851Y3000490D01*
X1455000Y2983951D01*
Y2966049D01*
X1461851Y2949509D01*
X1474510Y2936851D01*
X1491049Y2930000D01*
X1508951D01*
X1525490Y2936851D01*
X1535252Y2946612D01*
X1762292D01*
X1764819Y2933912D01*
X1762010Y2932749D01*
X1749351Y2920090D01*
X1742500Y2903551D01*
Y2885649D01*
X1749351Y2869109D01*
X1762010Y2856451D01*
X1778549Y2849600D01*
X1796451D01*
X1812991Y2856451D01*
X1825649Y2869109D01*
X1827739Y2874155D01*
X4699705D01*
X4712010Y2861851D01*
X4728549Y2855000D01*
X4746451D01*
X4762990Y2861851D01*
X4775649Y2874510D01*
X4782500Y2891049D01*
Y2908951D01*
X4775649Y2925490D01*
X4762990Y2938149D01*
X4746451Y2945000D01*
X4728549D01*
X4712010Y2938149D01*
X4699351Y2925490D01*
X4697261Y2920445D01*
X4369069D01*
X4366543Y2933145D01*
X4375490Y2936851D01*
X4388149Y2949509D01*
X4395000Y2966049D01*
Y2983951D01*
X4388149Y3000490D01*
X4375490Y3013149D01*
X4373145Y3014120D01*
Y3165413D01*
X4409587Y3201855D01*
X5035879D01*
X5036851Y3199509D01*
X5049510Y3186851D01*
X5066049Y3180000D01*
X5083951D01*
X5100490Y3186851D01*
X5113149Y3199509D01*
X5120000Y3216049D01*
Y3233951D01*
X5113149Y3250490D01*
X5100490Y3263149D01*
X5083951Y3270000D01*
D02*
G37*
G36*
X5087700Y3160116D02*
Y3112700D01*
X5135116D01*
X5126205Y3134214D01*
X5109214Y3151205D01*
X5087700Y3160116D01*
D02*
G37*
G36*
X5062300D02*
X5040786Y3151205D01*
X5023795Y3134214D01*
X5014884Y3112700D01*
X5062300D01*
Y3160116D01*
D02*
G37*
G36*
X5135116Y3087300D02*
X5087700D01*
Y3039884D01*
X5109214Y3048795D01*
X5126205Y3065786D01*
X5135116Y3087300D01*
D02*
G37*
G36*
X5062300D02*
X5014884D01*
X5023795Y3065786D01*
X5040786Y3048795D01*
X5062300Y3039884D01*
Y3087300D01*
D02*
G37*
G36*
X175200Y3035116D02*
Y2987700D01*
X222616D01*
X213705Y3009214D01*
X196714Y3026205D01*
X175200Y3035116D01*
D02*
G37*
G36*
X149800D02*
X128286Y3026205D01*
X111295Y3009214D01*
X102384Y2987700D01*
X149800D01*
Y3035116D01*
D02*
G37*
G36*
X222616Y2962300D02*
X175200D01*
Y2914884D01*
X196714Y2923795D01*
X213705Y2940786D01*
X222616Y2962300D01*
D02*
G37*
G36*
X149800D02*
X102384D01*
X111295Y2940786D01*
X128286Y2923795D01*
X149800Y2914884D01*
Y2962300D01*
D02*
G37*
G36*
X1010012Y3050050D02*
X989987D01*
X970645Y3044867D01*
X953304Y3034855D01*
X939144Y3020696D01*
X929132Y3003354D01*
X923950Y2984012D01*
Y2963987D01*
X929132Y2944645D01*
X939144Y2927304D01*
X953304Y2913145D01*
X970645Y2903132D01*
X989987Y2897950D01*
X1010012D01*
X1029354Y2903132D01*
X1046695Y2913145D01*
X1060855Y2927304D01*
X1070867Y2944645D01*
X1076049Y2963987D01*
Y2984012D01*
X1070867Y3003354D01*
X1060855Y3020696D01*
X1046695Y3034855D01*
X1029354Y3044867D01*
X1010012Y3050050D01*
D02*
G37*
G36*
X760012D02*
X739987D01*
X720645Y3044867D01*
X703304Y3034855D01*
X689144Y3020696D01*
X679132Y3003354D01*
X673950Y2984012D01*
Y2963987D01*
X679132Y2944645D01*
X689144Y2927304D01*
X703304Y2913145D01*
X720645Y2903132D01*
X739987Y2897950D01*
X760012D01*
X779354Y2903132D01*
X796695Y2913145D01*
X810855Y2927304D01*
X820867Y2944645D01*
X826049Y2963987D01*
Y2984012D01*
X820867Y3003354D01*
X810855Y3020696D01*
X796695Y3034855D01*
X779354Y3044867D01*
X760012Y3050050D01*
D02*
G37*
G36*
X4633951Y2857500D02*
X4616049D01*
X4599509Y2850649D01*
X4586851Y2837991D01*
X4585879Y2835645D01*
X1976621D01*
X1975649Y2837991D01*
X1962990Y2850649D01*
X1946451Y2857500D01*
X1928549D01*
X1912010Y2850649D01*
X1899351Y2837991D01*
X1892500Y2821451D01*
Y2803549D01*
X1899351Y2787010D01*
X1912010Y2774351D01*
X1928549Y2767500D01*
X1946451D01*
X1962990Y2774351D01*
X1975649Y2787010D01*
X1976621Y2789355D01*
X4585879D01*
X4586851Y2787010D01*
X4599509Y2774351D01*
X4616049Y2767500D01*
X4633951D01*
X4650490Y2774351D01*
X4663149Y2787010D01*
X4670000Y2803549D01*
Y2821451D01*
X4663149Y2837991D01*
X4650490Y2850649D01*
X4633951Y2857500D01*
D02*
G37*
G36*
X5762700Y2660116D02*
Y2612700D01*
X5810116D01*
X5801205Y2634214D01*
X5784214Y2651205D01*
X5762700Y2660116D01*
D02*
G37*
G36*
X5737300D02*
X5715786Y2651205D01*
X5698795Y2634214D01*
X5689884Y2612700D01*
X5737300D01*
Y2660116D01*
D02*
G37*
G36*
X2458951Y2595000D02*
X2441049D01*
X2424510Y2588149D01*
X2416948Y2580588D01*
X1533052D01*
X1525490Y2588149D01*
X1508951Y2595000D01*
X1491049D01*
X1474510Y2588149D01*
X1461851Y2575490D01*
X1455000Y2558951D01*
Y2541049D01*
X1461851Y2524510D01*
X1474510Y2511851D01*
X1491049Y2505000D01*
X1508951D01*
X1525490Y2511851D01*
X1533052Y2519412D01*
X2416948D01*
X2424510Y2511851D01*
X2441049Y2505000D01*
X2458951D01*
X2475490Y2511851D01*
X2488149Y2524510D01*
X2495000Y2541049D01*
Y2558951D01*
X2488149Y2575490D01*
X2475490Y2588149D01*
X2458951Y2595000D01*
D02*
G37*
G36*
X175200Y2610116D02*
Y2562700D01*
X222616D01*
X213705Y2584214D01*
X196714Y2601205D01*
X175200Y2610116D01*
D02*
G37*
G36*
X149800D02*
X128286Y2601205D01*
X111295Y2584214D01*
X102384Y2562700D01*
X149800D01*
Y2610116D01*
D02*
G37*
G36*
X5810116Y2587300D02*
X5762700D01*
Y2539884D01*
X5784214Y2548795D01*
X5801205Y2565786D01*
X5810116Y2587300D01*
D02*
G37*
G36*
X5737300D02*
X5689884D01*
X5698795Y2565786D01*
X5715786Y2548795D01*
X5737300Y2539884D01*
Y2587300D01*
D02*
G37*
G36*
X222616Y2537300D02*
X175200D01*
Y2489884D01*
X196714Y2498795D01*
X213705Y2515786D01*
X222616Y2537300D01*
D02*
G37*
G36*
X149800D02*
X102384D01*
X111295Y2515786D01*
X128286Y2498795D01*
X149800Y2489884D01*
Y2537300D01*
D02*
G37*
G36*
X1010012Y2625049D02*
X989987D01*
X970645Y2619867D01*
X953304Y2609855D01*
X939144Y2595695D01*
X929132Y2578354D01*
X923950Y2559012D01*
Y2538987D01*
X929132Y2519645D01*
X939144Y2502304D01*
X953304Y2488144D01*
X970645Y2478132D01*
X989987Y2472950D01*
X1010012D01*
X1029354Y2478132D01*
X1046695Y2488144D01*
X1060855Y2502304D01*
X1070867Y2519645D01*
X1076049Y2538987D01*
Y2559012D01*
X1070867Y2578354D01*
X1060855Y2595695D01*
X1046695Y2609855D01*
X1029354Y2619867D01*
X1010012Y2625049D01*
D02*
G37*
G36*
X760012D02*
X739987D01*
X720645Y2619867D01*
X703304Y2609855D01*
X689144Y2595695D01*
X679132Y2578354D01*
X673950Y2559012D01*
Y2538987D01*
X679132Y2519645D01*
X689144Y2502304D01*
X703304Y2488144D01*
X720645Y2478132D01*
X739987Y2472950D01*
X760012D01*
X779354Y2478132D01*
X796695Y2488144D01*
X810855Y2502304D01*
X820867Y2519645D01*
X826049Y2538987D01*
Y2559012D01*
X820867Y2578354D01*
X810855Y2595695D01*
X796695Y2609855D01*
X779354Y2619867D01*
X760012Y2625049D01*
D02*
G37*
G36*
X4908951Y2455000D02*
X4891049D01*
X4874510Y2448149D01*
X4866948Y2440588D01*
X2360001D01*
X2360000Y2440588D01*
X2348295Y2438259D01*
X2338371Y2431629D01*
X2201742Y2295000D01*
X2191049D01*
X2174509Y2288149D01*
X2166948Y2280588D01*
X1625000D01*
X1613295Y2278259D01*
X1603371Y2271629D01*
X1603371Y2271628D01*
X1501742Y2170000D01*
X1491049D01*
X1474510Y2163149D01*
X1461851Y2150490D01*
X1455000Y2133951D01*
Y2116049D01*
X1461851Y2099510D01*
X1474510Y2086851D01*
X1491049Y2080000D01*
X1508951D01*
X1525490Y2086851D01*
X1538149Y2099510D01*
X1545000Y2116049D01*
Y2126742D01*
X1637670Y2219412D01*
X2166948D01*
X2174509Y2211851D01*
X2191049Y2205000D01*
X2208951D01*
X2225490Y2211851D01*
X2238149Y2224510D01*
X2245000Y2241049D01*
Y2251742D01*
X2372670Y2379412D01*
X4866948D01*
X4874510Y2371851D01*
X4891049Y2365000D01*
X4908951D01*
X4925491Y2371851D01*
X4938149Y2384510D01*
X4945000Y2401049D01*
Y2418951D01*
X4938149Y2435490D01*
X4925491Y2448149D01*
X4908951Y2455000D01*
D02*
G37*
G36*
X2458951Y2295000D02*
X2441049D01*
X2424510Y2288149D01*
X2411851Y2275490D01*
X2405000Y2258951D01*
Y2241049D01*
X2411851Y2224510D01*
X2424510Y2211851D01*
X2441049Y2205000D01*
X2458951D01*
X2475490Y2211851D01*
X2483052Y2219412D01*
X4909820D01*
X4911851Y2214510D01*
X4924510Y2201851D01*
X4941049Y2195000D01*
X4958951D01*
X4975490Y2201851D01*
X4988149Y2214510D01*
X4995000Y2231049D01*
Y2248951D01*
X4988149Y2265491D01*
X4975490Y2278149D01*
X4958951Y2285000D01*
X4941049D01*
X4930397Y2280588D01*
X2483052D01*
X2475490Y2288149D01*
X2458951Y2295000D01*
D02*
G37*
G36*
X175200Y2185116D02*
Y2137700D01*
X222616D01*
X213705Y2159214D01*
X196714Y2176205D01*
X175200Y2185116D01*
D02*
G37*
G36*
X149800D02*
X128286Y2176205D01*
X111295Y2159214D01*
X102384Y2137700D01*
X149800D01*
Y2185116D01*
D02*
G37*
G36*
X5048951Y2095000D02*
X5031049D01*
X5014510Y2088149D01*
X5006948Y2080588D01*
X2743052D01*
X2735490Y2088149D01*
X2718951Y2095000D01*
X2701049D01*
X2684509Y2088149D01*
X2671851Y2075490D01*
X2665000Y2058951D01*
Y2041049D01*
X2671851Y2024510D01*
X2684509Y2011851D01*
X2701049Y2005000D01*
X2718951D01*
X2735490Y2011851D01*
X2743052Y2019412D01*
X5006948D01*
X5014510Y2011851D01*
X5031049Y2005000D01*
X5048951D01*
X5065491Y2011851D01*
X5078149Y2024510D01*
X5085000Y2041049D01*
Y2058951D01*
X5078149Y2075490D01*
X5065491Y2088149D01*
X5048951Y2095000D01*
D02*
G37*
G36*
X222616Y2112300D02*
X175200D01*
Y2064884D01*
X196714Y2073795D01*
X213705Y2090786D01*
X222616Y2112300D01*
D02*
G37*
G36*
X149800D02*
X102384D01*
X111295Y2090786D01*
X128286Y2073795D01*
X149800Y2064884D01*
Y2112300D01*
D02*
G37*
G36*
X6175200Y2097616D02*
Y2050200D01*
X6222616D01*
X6213705Y2071714D01*
X6196714Y2088705D01*
X6175200Y2097616D01*
D02*
G37*
G36*
X6149800D02*
X6128286Y2088705D01*
X6111296Y2071714D01*
X6102384Y2050200D01*
X6149800D01*
Y2097616D01*
D02*
G37*
G36*
X1010012Y2200049D02*
X989987D01*
X970645Y2194867D01*
X953304Y2184855D01*
X939144Y2170695D01*
X929132Y2153354D01*
X923950Y2134012D01*
Y2113987D01*
X929132Y2094645D01*
X939144Y2077304D01*
X953304Y2063144D01*
X970645Y2053132D01*
X989987Y2047950D01*
X1010012D01*
X1029354Y2053132D01*
X1046695Y2063144D01*
X1060855Y2077304D01*
X1070867Y2094645D01*
X1076049Y2113987D01*
Y2134012D01*
X1070867Y2153354D01*
X1060855Y2170695D01*
X1046695Y2184855D01*
X1029354Y2194867D01*
X1010012Y2200049D01*
D02*
G37*
G36*
X760012D02*
X739987D01*
X720645Y2194867D01*
X703304Y2184855D01*
X689144Y2170695D01*
X679132Y2153354D01*
X673950Y2134012D01*
Y2113987D01*
X679132Y2094645D01*
X689144Y2077304D01*
X703304Y2063144D01*
X720645Y2053132D01*
X739987Y2047950D01*
X760012D01*
X779354Y2053132D01*
X796695Y2063144D01*
X810855Y2077304D01*
X820867Y2094645D01*
X826049Y2113987D01*
Y2134012D01*
X820867Y2153354D01*
X810855Y2170695D01*
X796695Y2184855D01*
X779354Y2194867D01*
X760012Y2200049D01*
D02*
G37*
G36*
X13263876Y2136700D02*
X13262698D01*
Y2044000D01*
X13355400D01*
Y2045176D01*
X13348216Y2071983D01*
X13334341Y2096017D01*
X13314717Y2115641D01*
X13290683Y2129517D01*
X13263876Y2136700D01*
D02*
G37*
G36*
X13237299D02*
X13236124D01*
X13209317Y2129517D01*
X13185283Y2115641D01*
X13165659Y2096017D01*
X13151784Y2071983D01*
X13144600Y2045176D01*
Y2044000D01*
X13237299D01*
Y2136700D01*
D02*
G37*
G36*
X6222616Y2024800D02*
X6175200D01*
Y1977384D01*
X6196714Y1986295D01*
X6213705Y2003286D01*
X6222616Y2024800D01*
D02*
G37*
G36*
X6149800D02*
X6102384D01*
X6111296Y2003286D01*
X6128286Y1986295D01*
X6149800Y1977384D01*
Y2024800D01*
D02*
G37*
G36*
X13355400Y2018600D02*
X13262698D01*
Y1925900D01*
X13263876D01*
X13290683Y1933083D01*
X13314717Y1946959D01*
X13334341Y1966583D01*
X13348216Y1990617D01*
X13355400Y2017424D01*
Y2018600D01*
D02*
G37*
G36*
X13237299D02*
X13144600D01*
Y2017424D01*
X13151784Y1990617D01*
X13165659Y1966583D01*
X13185283Y1946959D01*
X13209317Y1933083D01*
X13236124Y1925900D01*
X13237299D01*
Y2018600D01*
D02*
G37*
G36*
X5283951Y1920000D02*
X5266049D01*
X5249510Y1913149D01*
X5241948Y1905588D01*
X2995552D01*
X2987990Y1913149D01*
X2971451Y1920000D01*
X2953549D01*
X2937010Y1913149D01*
X2924351Y1900490D01*
X2917500Y1883951D01*
Y1866049D01*
X2924351Y1849510D01*
X2937010Y1836851D01*
X2953549Y1830000D01*
X2971451D01*
X2987990Y1836851D01*
X2995552Y1844412D01*
X5241948D01*
X5249510Y1836851D01*
X5266049Y1830000D01*
X5283951D01*
X5300491Y1836851D01*
X5313149Y1849510D01*
X5320000Y1866049D01*
Y1883951D01*
X5313149Y1900490D01*
X5300491Y1913149D01*
X5283951Y1920000D01*
D02*
G37*
G36*
X5369801Y1795000D02*
X5351899D01*
X5335360Y1788149D01*
X5329067Y1781856D01*
X5264199D01*
X5257824Y1780588D01*
X3245552D01*
X3237990Y1788149D01*
X3221451Y1795000D01*
X3203549D01*
X3187010Y1788149D01*
X3174351Y1775490D01*
X3167500Y1758951D01*
Y1741049D01*
X3174351Y1724510D01*
X3187010Y1711851D01*
X3203549Y1705000D01*
X3221451D01*
X3237990Y1711851D01*
X3245552Y1719412D01*
X5262931D01*
X5269307Y1720681D01*
X5326530D01*
X5335360Y1711851D01*
X5351899Y1705000D01*
X5369801D01*
X5386341Y1711851D01*
X5398999Y1724510D01*
X5405850Y1741049D01*
Y1758951D01*
X5398999Y1775490D01*
X5386341Y1788149D01*
X5369801Y1795000D01*
D02*
G37*
G36*
X13339999Y1867300D02*
X13160001D01*
Y1687300D01*
X13339999D01*
Y1867300D01*
D02*
G37*
G36*
X5446451Y1682500D02*
X5428549D01*
X5412009Y1675649D01*
X5399351Y1662990D01*
X5398873Y1661838D01*
X3489302D01*
X3487990Y1663149D01*
X3471451Y1670000D01*
X3453549D01*
X3437010Y1663149D01*
X3424351Y1650490D01*
X3417500Y1633951D01*
Y1616049D01*
X3424351Y1599510D01*
X3437010Y1586851D01*
X3453549Y1580000D01*
X3471451D01*
X3487990Y1586851D01*
X3500649Y1599510D01*
X3501127Y1600662D01*
X5410698D01*
X5412009Y1599351D01*
X5428549Y1592500D01*
X5446451D01*
X5462990Y1599351D01*
X5475649Y1612009D01*
X5482500Y1628549D01*
Y1646451D01*
X5475649Y1662990D01*
X5462990Y1675649D01*
X5446451Y1682500D01*
D02*
G37*
G36*
X5533951Y1545000D02*
X5516049D01*
X5499510Y1538149D01*
X5491948Y1530588D01*
X3758052D01*
X3750490Y1538149D01*
X3733951Y1545000D01*
X3716049D01*
X3699509Y1538149D01*
X3686851Y1525490D01*
X3680000Y1508951D01*
Y1491049D01*
X3686851Y1474510D01*
X3699509Y1461851D01*
X3716049Y1455000D01*
X3733951D01*
X3750490Y1461851D01*
X3758052Y1469412D01*
X5491948D01*
X5499510Y1461851D01*
X5516049Y1455000D01*
X5533951D01*
X5550491Y1461851D01*
X5563149Y1474510D01*
X5570000Y1491049D01*
Y1508951D01*
X5563149Y1525490D01*
X5550491Y1538149D01*
X5533951Y1545000D01*
D02*
G37*
G36*
X5621451Y1420000D02*
X5603549D01*
X5587010Y1413149D01*
X5579448Y1405588D01*
X3995552D01*
X3987991Y1413149D01*
X3971451Y1420000D01*
X3953549D01*
X3937010Y1413149D01*
X3924351Y1400490D01*
X3917500Y1383951D01*
Y1366049D01*
X3924351Y1349510D01*
X3937010Y1336851D01*
X3953549Y1330000D01*
X3971451D01*
X3987991Y1336851D01*
X3995552Y1344412D01*
X5579448D01*
X5587010Y1336851D01*
X5603549Y1330000D01*
X5621451D01*
X5637991Y1336851D01*
X5650649Y1349510D01*
X5657500Y1366049D01*
Y1383951D01*
X5650649Y1400490D01*
X5637991Y1413149D01*
X5621451Y1420000D01*
D02*
G37*
G36*
X1441700Y1308330D02*
Y1233433D01*
X1516598D01*
X1510910Y1254661D01*
X1499337Y1274705D01*
X1482972Y1291070D01*
X1462928Y1302642D01*
X1441700Y1308330D01*
D02*
G37*
G36*
X1416300D02*
X1395072Y1302642D01*
X1375028Y1291070D01*
X1358663Y1274705D01*
X1347090Y1254661D01*
X1341402Y1233433D01*
X1416300D01*
Y1308330D01*
D02*
G37*
G36*
X930545Y1293233D02*
X911455D01*
X893016Y1288292D01*
X876484Y1278747D01*
X862986Y1265249D01*
X853441Y1248717D01*
X848500Y1230277D01*
Y1211188D01*
X853441Y1192749D01*
X862986Y1176217D01*
X876484Y1162718D01*
X893016Y1153173D01*
X911455Y1148233D01*
X930545D01*
X948984Y1153173D01*
X965516Y1162718D01*
X979014Y1176217D01*
X988559Y1192749D01*
X993500Y1211188D01*
Y1230277D01*
X988559Y1248717D01*
X979014Y1265249D01*
X965516Y1278747D01*
X948984Y1288292D01*
X930545Y1293233D01*
D02*
G37*
G36*
X1516598Y1208033D02*
X1441700D01*
Y1133135D01*
X1462928Y1138823D01*
X1482972Y1150395D01*
X1499337Y1166761D01*
X1510910Y1186805D01*
X1516598Y1208033D01*
D02*
G37*
G36*
X1416300D02*
X1341402D01*
X1347090Y1186805D01*
X1358663Y1166761D01*
X1375028Y1150395D01*
X1395072Y1138823D01*
X1416300Y1133135D01*
Y1208033D01*
D02*
G37*
G36*
X5883951Y1107500D02*
X5866049D01*
X5849510Y1100649D01*
X5836851Y1087990D01*
X5835879Y1085645D01*
X5439121D01*
X5438149Y1087990D01*
X5425491Y1100649D01*
X5408951Y1107500D01*
X5391049D01*
X5374510Y1100649D01*
X5361851Y1087990D01*
X5360880Y1085645D01*
X4501621D01*
X4500649Y1087990D01*
X4487991Y1100649D01*
X4471451Y1107500D01*
X4453549D01*
X4437010Y1100649D01*
X4424351Y1087990D01*
X4417500Y1071451D01*
Y1053549D01*
X4424351Y1037010D01*
X4437010Y1024351D01*
X4453549Y1017500D01*
X4471451D01*
X4487991Y1024351D01*
X4500649Y1037010D01*
X4501621Y1039355D01*
X5360880D01*
X5361851Y1037010D01*
X5374510Y1024351D01*
X5391049Y1017500D01*
X5408951D01*
X5425491Y1024351D01*
X5438149Y1037010D01*
X5439121Y1039355D01*
X5835879D01*
X5836851Y1037010D01*
X5849510Y1024351D01*
X5866049Y1017500D01*
X5883951D01*
X5900490Y1024351D01*
X5913149Y1037010D01*
X5920000Y1053549D01*
Y1071451D01*
X5913149Y1087990D01*
X5900490Y1100649D01*
X5883951Y1107500D01*
D02*
G37*
G36*
X4708951Y1007500D02*
X4691049D01*
X4674510Y1000649D01*
X4661851Y987990D01*
X4660879Y985645D01*
X4389121D01*
X4388149Y987990D01*
X4375490Y1000649D01*
X4358951Y1007500D01*
X4341049D01*
X4324510Y1000649D01*
X4311851Y987990D01*
X4305000Y971451D01*
Y953549D01*
X4311851Y937010D01*
X4324510Y924351D01*
X4341049Y917500D01*
X4358951D01*
X4375490Y924351D01*
X4388149Y937010D01*
X4389121Y939355D01*
X4660879D01*
X4661851Y937010D01*
X4674510Y924351D01*
X4691049Y917500D01*
X4708951D01*
X4725490Y924351D01*
X4738149Y937010D01*
X4739121Y939355D01*
X5565845D01*
X5567500Y937700D01*
Y928549D01*
X5574351Y912010D01*
X5587010Y899351D01*
X5603549Y892500D01*
X5621451D01*
X5637991Y899351D01*
X5650649Y912010D01*
X5657500Y928549D01*
Y946451D01*
X5650649Y962990D01*
X5637991Y975649D01*
X5621451Y982500D01*
X5603549D01*
X5592669Y977993D01*
X5591797Y978866D01*
X5584289Y983883D01*
X5575431Y985645D01*
X4739121D01*
X4738149Y987990D01*
X4725490Y1000649D01*
X4708951Y1007500D01*
D02*
G37*
G36*
X1184545Y1039233D02*
X1165455D01*
X1147016Y1034292D01*
X1130484Y1024747D01*
X1116986Y1011249D01*
X1107441Y994717D01*
X1102500Y976277D01*
Y957188D01*
X1107441Y938749D01*
X1116986Y922217D01*
X1130484Y908718D01*
X1147016Y899173D01*
X1165455Y894233D01*
X1184545D01*
X1202984Y899173D01*
X1219516Y908718D01*
X1233014Y922217D01*
X1242559Y938749D01*
X1247500Y957188D01*
Y976277D01*
X1242559Y994717D01*
X1233014Y1011249D01*
X1219516Y1024747D01*
X1202984Y1034292D01*
X1184545Y1039233D01*
D02*
G37*
G36*
X4233951Y895000D02*
X4216049D01*
X4199510Y888149D01*
X4186851Y875491D01*
X4180000Y858951D01*
Y841049D01*
X4186851Y824510D01*
X4199510Y811851D01*
X4216049Y805000D01*
X4233951D01*
X4250490Y811851D01*
X4259245Y820605D01*
X4895790D01*
X4899351Y812010D01*
X4912009Y799351D01*
X4928549Y792500D01*
X4946451D01*
X4962990Y799351D01*
X4975649Y812010D01*
X4979209Y820605D01*
X5320790D01*
X5324351Y812010D01*
X5337010Y799351D01*
X5353549Y792500D01*
X5371451D01*
X5387990Y799351D01*
X5400649Y812010D01*
X5407500Y828549D01*
Y846451D01*
X5400649Y862990D01*
X5387990Y875649D01*
X5371451Y882500D01*
X5353549D01*
X5337010Y875649D01*
X5328256Y866895D01*
X4971744D01*
X4962990Y875649D01*
X4946451Y882500D01*
X4928549D01*
X4912009Y875649D01*
X4903255Y866895D01*
X4266709D01*
X4263149Y875491D01*
X4250490Y888149D01*
X4233951Y895000D01*
D02*
G37*
G36*
X374623Y1212500D02*
X325377D01*
X277078Y1202892D01*
X231581Y1184047D01*
X190634Y1156688D01*
X155812Y1121866D01*
X128453Y1080919D01*
X109608Y1035422D01*
X100000Y987123D01*
Y937877D01*
X109608Y889578D01*
X128453Y844081D01*
X155812Y803134D01*
X190634Y768312D01*
X231581Y740953D01*
X277078Y722108D01*
X325377Y712500D01*
X374623D01*
X422922Y722108D01*
X468419Y740953D01*
X509366Y768312D01*
X544188Y803134D01*
X571547Y844081D01*
X590393Y889578D01*
X600000Y937877D01*
Y987123D01*
X590393Y1035422D01*
X571547Y1080919D01*
X544188Y1121866D01*
X509366Y1156688D01*
X468419Y1184047D01*
X422922Y1202892D01*
X374623Y1212500D01*
D02*
G37*
G36*
X4108951Y795000D02*
X4091049D01*
X4074510Y788149D01*
X4061851Y775490D01*
X4055000Y758951D01*
Y741049D01*
X4061851Y724510D01*
X4074510Y711851D01*
X4091049Y705000D01*
X4108951D01*
X4125490Y711851D01*
X4134245Y720605D01*
X5058290D01*
X5061851Y712009D01*
X5074510Y699351D01*
X5091049Y692500D01*
X5108951D01*
X5125490Y699351D01*
X5138149Y712009D01*
X5145000Y728549D01*
Y746451D01*
X5138149Y762990D01*
X5125490Y775649D01*
X5108951Y782500D01*
X5091049D01*
X5074510Y775649D01*
X5065755Y766895D01*
X4141709D01*
X4138149Y775490D01*
X4125490Y788149D01*
X4108951Y795000D01*
D02*
G37*
G36*
X11997047Y515400D02*
X11996201D01*
Y425200D01*
X12086400D01*
Y426047D01*
X12079388Y452218D01*
X12065840Y475682D01*
X12046682Y494841D01*
X12023218Y508388D01*
X11997047Y515400D01*
D02*
G37*
G36*
X11116600D02*
X11115753D01*
Y425200D01*
X11205953D01*
Y426047D01*
X11198941Y452218D01*
X11185393Y475682D01*
X11166235Y494841D01*
X11142771Y508388D01*
X11116600Y515400D01*
D02*
G37*
G36*
X12884547D02*
X12883701D01*
Y425200D01*
X12973900D01*
Y426047D01*
X12966887Y452218D01*
X12953340Y475682D01*
X12934183Y494841D01*
X12910718Y508388D01*
X12884547Y515400D01*
D02*
G37*
G36*
X7875727Y517900D02*
X7874551D01*
Y425200D01*
X7967251D01*
Y426376D01*
X7960068Y453183D01*
X7946192Y477217D01*
X7926568Y496841D01*
X7902534Y510717D01*
X7875727Y517900D01*
D02*
G37*
G36*
X7849151D02*
X7847975D01*
X7821168Y510717D01*
X7797134Y496841D01*
X7777510Y477217D01*
X7763634Y453183D01*
X7756451Y426376D01*
Y425200D01*
X7849151D01*
Y517900D01*
D02*
G37*
G36*
X4959400D02*
X4866700D01*
Y425200D01*
X4959400D01*
Y517900D01*
D02*
G37*
G36*
X4841300D02*
X4748600D01*
Y425200D01*
X4841300D01*
Y517900D01*
D02*
G37*
G36*
X4236424Y513900D02*
X4235775D01*
Y425200D01*
X4324475D01*
Y425850D01*
X4317565Y451639D01*
X4304215Y474761D01*
X4285336Y493640D01*
X4262214Y506990D01*
X4236424Y513900D01*
D02*
G37*
G36*
X4210375D02*
X4209725D01*
X4183936Y506990D01*
X4160814Y493640D01*
X4141935Y474761D01*
X4128585Y451639D01*
X4121675Y425850D01*
Y425200D01*
X4210375D01*
Y513900D01*
D02*
G37*
G36*
X934424D02*
X933775D01*
Y425200D01*
X1022475D01*
Y425850D01*
X1015565Y451639D01*
X1002215Y474761D01*
X983336Y493640D01*
X960214Y506990D01*
X934424Y513900D01*
D02*
G37*
G36*
X908375D02*
X907725D01*
X881936Y506990D01*
X858814Y493640D01*
X839935Y474761D01*
X826585Y451639D01*
X819675Y425850D01*
Y425200D01*
X908375D01*
Y513900D01*
D02*
G37*
G36*
X12858299Y515400D02*
X12857452D01*
X12831282Y508388D01*
X12807819Y494841D01*
X12788659Y475682D01*
X12775112Y452218D01*
X12768100Y426047D01*
Y425200D01*
X12858299D01*
Y515400D01*
D02*
G37*
G36*
X11090353D02*
X11089506D01*
X11063335Y508388D01*
X11039871Y494841D01*
X11020713Y475682D01*
X11007165Y452218D01*
X11000153Y426047D01*
Y425200D01*
X11090353D01*
Y515400D01*
D02*
G37*
G36*
X11970801D02*
X11969953D01*
X11943782Y508388D01*
X11920318Y494841D01*
X11901160Y475682D01*
X11887612Y452218D01*
X11880600Y426047D01*
Y425200D01*
X11970801D01*
Y515400D01*
D02*
G37*
G36*
X4488397Y498500D02*
X4465753D01*
X4443880Y492639D01*
X4424270Y481317D01*
X4408258Y465305D01*
X4396936Y445695D01*
X4391075Y423822D01*
Y401178D01*
X4396936Y379305D01*
X4408258Y359695D01*
X4424270Y343683D01*
X4443880Y332361D01*
X4465753Y326500D01*
X4488397D01*
X4510270Y332361D01*
X4529880Y343683D01*
X4545892Y359695D01*
X4557214Y379305D01*
X4563075Y401178D01*
Y423822D01*
X4557214Y445695D01*
X4545892Y465305D01*
X4529880Y481317D01*
X4510270Y492639D01*
X4488397Y498500D01*
D02*
G37*
G36*
X3980397D02*
X3957753D01*
X3935880Y492639D01*
X3916270Y481317D01*
X3900258Y465305D01*
X3888936Y445695D01*
X3883075Y423822D01*
Y401178D01*
X3888936Y379305D01*
X3900258Y359695D01*
X3916270Y343683D01*
X3935880Y332361D01*
X3957753Y326500D01*
X3980397D01*
X4002270Y332361D01*
X4021880Y343683D01*
X4037892Y359695D01*
X4049214Y379305D01*
X4055075Y401178D01*
Y423822D01*
X4049214Y445695D01*
X4037892Y465305D01*
X4021880Y481317D01*
X4002270Y492639D01*
X3980397Y498500D01*
D02*
G37*
G36*
X3726397D02*
X3703753D01*
X3681880Y492639D01*
X3662270Y481317D01*
X3646258Y465305D01*
X3634936Y445695D01*
X3629075Y423822D01*
Y401178D01*
X3634936Y379305D01*
X3646258Y359695D01*
X3662270Y343683D01*
X3681880Y332361D01*
X3703753Y326500D01*
X3726397D01*
X3748270Y332361D01*
X3767880Y343683D01*
X3783892Y359695D01*
X3795214Y379305D01*
X3801075Y401178D01*
Y423822D01*
X3795214Y445695D01*
X3783892Y465305D01*
X3767880Y481317D01*
X3748270Y492639D01*
X3726397Y498500D01*
D02*
G37*
G36*
X3472397D02*
X3449753D01*
X3427880Y492639D01*
X3408270Y481317D01*
X3392258Y465305D01*
X3380936Y445695D01*
X3375075Y423822D01*
Y401178D01*
X3380936Y379305D01*
X3392258Y359695D01*
X3408270Y343683D01*
X3427880Y332361D01*
X3449753Y326500D01*
X3472397D01*
X3494270Y332361D01*
X3513880Y343683D01*
X3529892Y359695D01*
X3541214Y379305D01*
X3547075Y401178D01*
Y423822D01*
X3541214Y445695D01*
X3529892Y465305D01*
X3513880Y481317D01*
X3494270Y492639D01*
X3472397Y498500D01*
D02*
G37*
G36*
X3218397D02*
X3195753D01*
X3173880Y492639D01*
X3154270Y481317D01*
X3138258Y465305D01*
X3126936Y445695D01*
X3121075Y423822D01*
Y401178D01*
X3126936Y379305D01*
X3138258Y359695D01*
X3154270Y343683D01*
X3173880Y332361D01*
X3195753Y326500D01*
X3218397D01*
X3240270Y332361D01*
X3259880Y343683D01*
X3275892Y359695D01*
X3287214Y379305D01*
X3293075Y401178D01*
Y423822D01*
X3287214Y445695D01*
X3275892Y465305D01*
X3259880Y481317D01*
X3240270Y492639D01*
X3218397Y498500D01*
D02*
G37*
G36*
X2964397D02*
X2941753D01*
X2919880Y492639D01*
X2900270Y481317D01*
X2884258Y465305D01*
X2872936Y445695D01*
X2867075Y423822D01*
Y401178D01*
X2872936Y379305D01*
X2884258Y359695D01*
X2900270Y343683D01*
X2919880Y332361D01*
X2941753Y326500D01*
X2964397D01*
X2986270Y332361D01*
X3005880Y343683D01*
X3021892Y359695D01*
X3033214Y379305D01*
X3039075Y401178D01*
Y423822D01*
X3033214Y445695D01*
X3021892Y465305D01*
X3005880Y481317D01*
X2986270Y492639D01*
X2964397Y498500D01*
D02*
G37*
G36*
X2710397D02*
X2687753D01*
X2665880Y492639D01*
X2646270Y481317D01*
X2630258Y465305D01*
X2618936Y445695D01*
X2613075Y423822D01*
Y401178D01*
X2618936Y379305D01*
X2630258Y359695D01*
X2646270Y343683D01*
X2665880Y332361D01*
X2687753Y326500D01*
X2710397D01*
X2732270Y332361D01*
X2751880Y343683D01*
X2767892Y359695D01*
X2779214Y379305D01*
X2785075Y401178D01*
Y423822D01*
X2779214Y445695D01*
X2767892Y465305D01*
X2751880Y481317D01*
X2732270Y492639D01*
X2710397Y498500D01*
D02*
G37*
G36*
X2456397D02*
X2433753D01*
X2411880Y492639D01*
X2392270Y481317D01*
X2376258Y465305D01*
X2364936Y445695D01*
X2359075Y423822D01*
Y401178D01*
X2364936Y379305D01*
X2376258Y359695D01*
X2392270Y343683D01*
X2411880Y332361D01*
X2433753Y326500D01*
X2456397D01*
X2478270Y332361D01*
X2497880Y343683D01*
X2513892Y359695D01*
X2525214Y379305D01*
X2531075Y401178D01*
Y423822D01*
X2525214Y445695D01*
X2513892Y465305D01*
X2497880Y481317D01*
X2478270Y492639D01*
X2456397Y498500D01*
D02*
G37*
G36*
X2202397D02*
X2179753D01*
X2157880Y492639D01*
X2138270Y481317D01*
X2122258Y465305D01*
X2110936Y445695D01*
X2105075Y423822D01*
Y401178D01*
X2110936Y379305D01*
X2122258Y359695D01*
X2138270Y343683D01*
X2157880Y332361D01*
X2179753Y326500D01*
X2202397D01*
X2224270Y332361D01*
X2243880Y343683D01*
X2259892Y359695D01*
X2271214Y379305D01*
X2277075Y401178D01*
Y423822D01*
X2271214Y445695D01*
X2259892Y465305D01*
X2243880Y481317D01*
X2224270Y492639D01*
X2202397Y498500D01*
D02*
G37*
G36*
X1948397D02*
X1925753D01*
X1903880Y492639D01*
X1884270Y481317D01*
X1868258Y465305D01*
X1856936Y445695D01*
X1851075Y423822D01*
Y401178D01*
X1856936Y379305D01*
X1868258Y359695D01*
X1884270Y343683D01*
X1903880Y332361D01*
X1925753Y326500D01*
X1948397D01*
X1970270Y332361D01*
X1989880Y343683D01*
X2005892Y359695D01*
X2017214Y379305D01*
X2023075Y401178D01*
Y423822D01*
X2017214Y445695D01*
X2005892Y465305D01*
X1989880Y481317D01*
X1970270Y492639D01*
X1948397Y498500D01*
D02*
G37*
G36*
X1694397D02*
X1671753D01*
X1649880Y492639D01*
X1630270Y481317D01*
X1614258Y465305D01*
X1602936Y445695D01*
X1597075Y423822D01*
Y401178D01*
X1602936Y379305D01*
X1614258Y359695D01*
X1630270Y343683D01*
X1649880Y332361D01*
X1671753Y326500D01*
X1694397D01*
X1716270Y332361D01*
X1735880Y343683D01*
X1751892Y359695D01*
X1763214Y379305D01*
X1769075Y401178D01*
Y423822D01*
X1763214Y445695D01*
X1751892Y465305D01*
X1735880Y481317D01*
X1716270Y492639D01*
X1694397Y498500D01*
D02*
G37*
G36*
X1440397D02*
X1417753D01*
X1395880Y492639D01*
X1376270Y481317D01*
X1360258Y465305D01*
X1348936Y445695D01*
X1343075Y423822D01*
Y401178D01*
X1348936Y379305D01*
X1360258Y359695D01*
X1376270Y343683D01*
X1395880Y332361D01*
X1417753Y326500D01*
X1440397D01*
X1462270Y332361D01*
X1481880Y343683D01*
X1497892Y359695D01*
X1509214Y379305D01*
X1515075Y401178D01*
Y423822D01*
X1509214Y445695D01*
X1497892Y465305D01*
X1481880Y481317D01*
X1462270Y492639D01*
X1440397Y498500D01*
D02*
G37*
G36*
X1186397D02*
X1163753D01*
X1141880Y492639D01*
X1122270Y481317D01*
X1106258Y465305D01*
X1094936Y445695D01*
X1089075Y423822D01*
Y401178D01*
X1094936Y379305D01*
X1106258Y359695D01*
X1122270Y343683D01*
X1141880Y332361D01*
X1163753Y326500D01*
X1186397D01*
X1208270Y332361D01*
X1227880Y343683D01*
X1243892Y359695D01*
X1255214Y379305D01*
X1261075Y401178D01*
Y423822D01*
X1255214Y445695D01*
X1243892Y465305D01*
X1227880Y481317D01*
X1208270Y492639D01*
X1186397Y498500D01*
D02*
G37*
G36*
X753075D02*
X581075D01*
Y326500D01*
X753075D01*
Y498500D01*
D02*
G37*
G36*
X13466499Y500000D02*
X13291499D01*
Y325000D01*
X13466499D01*
Y500000D01*
D02*
G37*
G36*
X12980951Y3992000D02*
X12963049D01*
X12946510Y3985149D01*
X12933852Y3972490D01*
X12927000Y3955951D01*
Y3938049D01*
X12933852Y3921510D01*
X12946510Y3908851D01*
X12948856Y3907879D01*
Y697000D01*
X12950616Y688143D01*
X12955634Y680634D01*
X13101855Y534413D01*
Y496885D01*
X13091226Y494037D01*
X13071274Y482517D01*
X13054984Y466226D01*
X13043463Y446274D01*
X13037500Y424020D01*
Y400980D01*
X13043463Y378726D01*
X13054984Y358774D01*
X13071274Y342483D01*
X13091226Y330963D01*
X13113480Y325000D01*
X13136520D01*
X13158774Y330963D01*
X13178726Y342483D01*
X13195016Y358774D01*
X13206537Y378726D01*
X13212500Y400980D01*
Y424020D01*
X13206537Y446274D01*
X13195016Y466226D01*
X13178726Y482517D01*
X13158774Y494037D01*
X13148145Y496885D01*
Y544000D01*
X13146384Y552857D01*
X13141367Y560366D01*
X12995145Y706587D01*
Y3907879D01*
X12997490Y3908851D01*
X13010149Y3921510D01*
X13017000Y3938049D01*
Y3955951D01*
X13010149Y3972490D01*
X12997490Y3985149D01*
X12980951Y3992000D01*
D02*
G37*
G36*
X12579000Y500000D02*
X12404000D01*
Y325000D01*
X12579000D01*
Y500000D01*
D02*
G37*
G36*
X12248951Y3861000D02*
X12231049D01*
X12214509Y3854149D01*
X12201851Y3841490D01*
X12195000Y3824951D01*
Y3807049D01*
X12201851Y3790510D01*
X12214509Y3777851D01*
X12215605Y3777397D01*
Y497220D01*
X12203726Y494037D01*
X12183774Y482517D01*
X12167483Y466226D01*
X12155963Y446274D01*
X12150000Y424020D01*
Y400980D01*
X12155963Y378726D01*
X12167483Y358774D01*
X12183774Y342483D01*
X12203726Y330963D01*
X12225980Y325000D01*
X12249020D01*
X12271274Y330963D01*
X12291226Y342483D01*
X12307517Y358774D01*
X12319037Y378726D01*
X12325000Y400980D01*
Y424020D01*
X12319037Y446274D01*
X12307517Y466226D01*
X12291226Y482517D01*
X12271274Y494037D01*
X12261895Y496550D01*
Y3776362D01*
X12265490Y3777851D01*
X12278149Y3790510D01*
X12285000Y3807049D01*
Y3824951D01*
X12278149Y3841490D01*
X12265490Y3854149D01*
X12248951Y3861000D01*
D02*
G37*
G36*
X11698553Y500000D02*
X11523553D01*
Y325000D01*
X11698553D01*
Y500000D01*
D02*
G37*
G36*
X11373951Y3555000D02*
X11356049D01*
X11339509Y3548149D01*
X11326851Y3535491D01*
X11320000Y3518951D01*
Y3501049D01*
X11326851Y3484510D01*
X11337882Y3473479D01*
Y497950D01*
X11323279Y494037D01*
X11303327Y482517D01*
X11287036Y466226D01*
X11275516Y446274D01*
X11269553Y424020D01*
Y400980D01*
X11275516Y378726D01*
X11287036Y358774D01*
X11303327Y342483D01*
X11323279Y330963D01*
X11345533Y325000D01*
X11368573D01*
X11390827Y330963D01*
X11410779Y342483D01*
X11427070Y358774D01*
X11438590Y378726D01*
X11444553Y400980D01*
Y424020D01*
X11438590Y446274D01*
X11427070Y466226D01*
X11410779Y482517D01*
X11390827Y494037D01*
X11384171Y495820D01*
Y3469234D01*
X11390490Y3471851D01*
X11403149Y3484510D01*
X11410000Y3501049D01*
Y3518951D01*
X11403149Y3535491D01*
X11390490Y3548149D01*
X11373951Y3555000D01*
D02*
G37*
G36*
X10823127Y500000D02*
X10648128D01*
Y325000D01*
X10823127D01*
Y500000D01*
D02*
G37*
G36*
X10496451Y3445000D02*
X10478549D01*
X10462010Y3438149D01*
X10449351Y3425490D01*
X10442500Y3408951D01*
Y3391049D01*
X10449351Y3374510D01*
X10461419Y3362442D01*
Y497672D01*
X10447854Y494037D01*
X10427901Y482517D01*
X10411610Y466226D01*
X10400090Y446274D01*
X10394128Y424020D01*
Y400980D01*
X10400090Y378726D01*
X10411610Y358774D01*
X10427901Y342483D01*
X10447854Y330963D01*
X10470108Y325000D01*
X10493147D01*
X10515401Y330963D01*
X10535354Y342483D01*
X10551645Y358774D01*
X10563165Y378726D01*
X10569127Y400980D01*
Y424020D01*
X10563165Y446274D01*
X10551645Y466226D01*
X10535354Y482517D01*
X10515401Y494037D01*
X10507708Y496098D01*
Y3359663D01*
X10512990Y3361851D01*
X10525649Y3374510D01*
X10532500Y3391049D01*
Y3408951D01*
X10525649Y3425490D01*
X10512990Y3438149D01*
X10496451Y3445000D01*
D02*
G37*
G36*
X10239147Y500000D02*
X10216108D01*
X10193854Y494037D01*
X10173901Y482517D01*
X10157610Y466226D01*
X10146090Y446274D01*
X10140128Y424020D01*
Y400980D01*
X10146090Y378726D01*
X10157610Y358774D01*
X10173901Y342483D01*
X10193854Y330963D01*
X10216108Y325000D01*
X10239147D01*
X10261401Y330963D01*
X10281354Y342483D01*
X10297645Y358774D01*
X10309165Y378726D01*
X10315127Y400980D01*
Y424020D01*
X10309165Y446274D01*
X10297645Y466226D01*
X10281354Y482517D01*
X10261401Y494037D01*
X10239147Y500000D01*
D02*
G37*
G36*
X9947702D02*
X9772702D01*
Y325000D01*
X9947702D01*
Y500000D01*
D02*
G37*
G36*
X9621451Y3332500D02*
X9603549D01*
X9587010Y3325649D01*
X9574351Y3312990D01*
X9567500Y3296451D01*
Y3278549D01*
X9574351Y3262009D01*
X9586206Y3250154D01*
Y497729D01*
X9572428Y494037D01*
X9552476Y482517D01*
X9536185Y466226D01*
X9524665Y446274D01*
X9518702Y424020D01*
Y400980D01*
X9524665Y378726D01*
X9536185Y358774D01*
X9552476Y342483D01*
X9572428Y330963D01*
X9594682Y325000D01*
X9617722D01*
X9639976Y330963D01*
X9659928Y342483D01*
X9676219Y358774D01*
X9687739Y378726D01*
X9693702Y400980D01*
Y424020D01*
X9687739Y446274D01*
X9676219Y466226D01*
X9659928Y482517D01*
X9639976Y494037D01*
X9632496Y496041D01*
Y3247075D01*
X9637990Y3249351D01*
X9650649Y3262009D01*
X9657500Y3278549D01*
Y3296451D01*
X9650649Y3312990D01*
X9637990Y3325649D01*
X9621451Y3332500D01*
D02*
G37*
G36*
X9363722Y500000D02*
X9340682D01*
X9318428Y494037D01*
X9298476Y482517D01*
X9282185Y466226D01*
X9270665Y446274D01*
X9264702Y424020D01*
Y400980D01*
X9270665Y378726D01*
X9282185Y358774D01*
X9298476Y342483D01*
X9318428Y330963D01*
X9340682Y325000D01*
X9363722D01*
X9385976Y330963D01*
X9405928Y342483D01*
X9422219Y358774D01*
X9433739Y378726D01*
X9439702Y400980D01*
Y424020D01*
X9433739Y446274D01*
X9422219Y466226D01*
X9405928Y482517D01*
X9385976Y494037D01*
X9363722Y500000D01*
D02*
G37*
G36*
X9072276D02*
X8897277D01*
Y325000D01*
X9072276D01*
Y500000D01*
D02*
G37*
G36*
X8721451Y3270000D02*
X8703549D01*
X8687010Y3263149D01*
X8674351Y3250490D01*
X8667500Y3233951D01*
Y3216049D01*
X8674351Y3199509D01*
X8687010Y3186851D01*
X8697889Y3182344D01*
Y494275D01*
X8697003Y494037D01*
X8677050Y482517D01*
X8660759Y466226D01*
X8649239Y446274D01*
X8643277Y424020D01*
Y400980D01*
X8649239Y378726D01*
X8660759Y358774D01*
X8677050Y342483D01*
X8697003Y330963D01*
X8719257Y325000D01*
X8742296D01*
X8764550Y330963D01*
X8784503Y342483D01*
X8800794Y358774D01*
X8812314Y378726D01*
X8818276Y400980D01*
Y424020D01*
X8812314Y446274D01*
X8800794Y466226D01*
X8784503Y482517D01*
X8764550Y494037D01*
X8744178Y499496D01*
Y3193039D01*
X8750649Y3199509D01*
X8757500Y3216049D01*
Y3233951D01*
X8750649Y3250490D01*
X8737990Y3263149D01*
X8721451Y3270000D01*
D02*
G37*
G36*
X8488296Y500000D02*
X8465257D01*
X8443003Y494037D01*
X8423050Y482517D01*
X8406759Y466226D01*
X8395239Y446274D01*
X8389277Y424020D01*
Y400980D01*
X8395239Y378726D01*
X8406759Y358774D01*
X8423050Y342483D01*
X8443003Y330963D01*
X8465257Y325000D01*
X8488296D01*
X8510550Y330963D01*
X8530503Y342483D01*
X8546794Y358774D01*
X8558314Y378726D01*
X8564276Y400980D01*
Y424020D01*
X8558314Y446274D01*
X8546794Y466226D01*
X8530503Y482517D01*
X8510550Y494037D01*
X8488296Y500000D01*
D02*
G37*
G36*
X6826426D02*
X6651426D01*
Y325000D01*
X6826426D01*
Y500000D01*
D02*
G37*
G36*
X5621451Y2857500D02*
X5603549D01*
X5587010Y2850649D01*
X5574351Y2837991D01*
X5567500Y2821451D01*
Y2803549D01*
X5574351Y2787010D01*
X5587010Y2774351D01*
X5589355Y2773380D01*
Y1637500D01*
X5591117Y1628643D01*
X5596134Y1621134D01*
X6461781Y755487D01*
Y496885D01*
X6451152Y494037D01*
X6431199Y482517D01*
X6414908Y466226D01*
X6403389Y446274D01*
X6397426Y424020D01*
Y400980D01*
X6403389Y378726D01*
X6414908Y358774D01*
X6431199Y342483D01*
X6451152Y330963D01*
X6473406Y325000D01*
X6496445D01*
X6518700Y330963D01*
X6538652Y342483D01*
X6554943Y358774D01*
X6566463Y378726D01*
X6572426Y400980D01*
Y424020D01*
X6566463Y446274D01*
X6554943Y466226D01*
X6538652Y482517D01*
X6518700Y494037D01*
X6508071Y496885D01*
Y765074D01*
X6506309Y773931D01*
X6501292Y781440D01*
X5635645Y1647087D01*
Y2773380D01*
X5637991Y2774351D01*
X5650649Y2787010D01*
X5657500Y2803549D01*
Y2821451D01*
X5650649Y2837991D01*
X5637991Y2850649D01*
X5621451Y2857500D01*
D02*
G37*
G36*
X6242445Y500000D02*
X6219406D01*
X6197152Y494037D01*
X6177199Y482517D01*
X6160908Y466226D01*
X6149389Y446274D01*
X6143426Y424020D01*
Y400980D01*
X6149389Y378726D01*
X6160908Y358774D01*
X6177199Y342483D01*
X6197152Y330963D01*
X6219406Y325000D01*
X6242445D01*
X6264700Y330963D01*
X6284652Y342483D01*
X6300943Y358774D01*
X6312463Y378726D01*
X6318426Y400980D01*
Y424020D01*
X6312463Y446274D01*
X6300943Y466226D01*
X6284652Y482517D01*
X6264700Y494037D01*
X6242445Y500000D01*
D02*
G37*
G36*
X8127700Y502500D02*
X8104002D01*
X8081112Y496367D01*
X8060590Y484518D01*
X8043833Y467761D01*
X8031984Y447239D01*
X8025851Y424349D01*
Y400651D01*
X8031984Y377762D01*
X8043833Y357239D01*
X8060590Y340482D01*
X8081112Y328634D01*
X8104002Y322500D01*
X8127700D01*
X8150589Y328634D01*
X8171112Y340482D01*
X8187869Y357239D01*
X8199717Y377762D01*
X8205851Y400651D01*
Y424349D01*
X8199717Y447239D01*
X8187869Y467761D01*
X8171112Y484518D01*
X8150589Y496367D01*
X8127700Y502500D01*
D02*
G37*
G36*
X7619700D02*
X7596002D01*
X7573112Y496367D01*
X7552590Y484518D01*
X7535833Y467761D01*
X7523984Y447239D01*
X7517851Y424349D01*
Y400651D01*
X7523984Y377762D01*
X7535833Y357239D01*
X7552590Y340482D01*
X7573112Y328634D01*
X7596002Y322500D01*
X7619700D01*
X7642589Y328634D01*
X7663112Y340482D01*
X7679869Y357239D01*
X7691717Y377762D01*
X7697851Y400651D01*
Y424349D01*
X7691717Y447239D01*
X7679869Y467761D01*
X7663112Y484518D01*
X7642589Y496367D01*
X7619700Y502500D01*
D02*
G37*
G36*
X7358951Y3107500D02*
X7341049D01*
X7324510Y3100649D01*
X7311851Y3087991D01*
X7305000Y3071451D01*
Y3053549D01*
X7311851Y3037010D01*
X7324510Y3024351D01*
X7328781Y3022582D01*
Y498957D01*
X7319112Y496367D01*
X7298590Y484518D01*
X7281833Y467761D01*
X7269984Y447239D01*
X7263851Y424349D01*
Y400651D01*
X7269984Y377762D01*
X7281833Y357239D01*
X7298590Y340482D01*
X7319112Y328634D01*
X7342002Y322500D01*
X7365700D01*
X7388589Y328634D01*
X7409112Y340482D01*
X7425869Y357239D01*
X7437717Y377762D01*
X7443851Y400651D01*
Y424349D01*
X7437717Y447239D01*
X7425869Y467761D01*
X7409112Y484518D01*
X7388589Y496367D01*
X7375070Y499989D01*
Y3024177D01*
X7375490Y3024351D01*
X7388149Y3037010D01*
X7395000Y3053549D01*
Y3071451D01*
X7388149Y3087991D01*
X7375490Y3100649D01*
X7358951Y3107500D01*
D02*
G37*
G36*
X7096451Y3020000D02*
X7078549D01*
X7062009Y3013149D01*
X7049351Y3000490D01*
X7042500Y2983951D01*
Y2966049D01*
X7049351Y2949509D01*
X7062009Y2936851D01*
X7064355Y2935879D01*
Y502500D01*
X7009851D01*
Y322500D01*
X7189851D01*
Y502500D01*
X7110645D01*
Y2935879D01*
X7112990Y2936851D01*
X7125649Y2949509D01*
X7132500Y2966049D01*
Y2983951D01*
X7125649Y3000490D01*
X7112990Y3013149D01*
X7096451Y3020000D01*
D02*
G37*
G36*
X5881849Y502500D02*
X5858152D01*
X5835262Y496367D01*
X5814739Y484518D01*
X5797983Y467761D01*
X5786134Y447239D01*
X5780000Y424349D01*
Y400651D01*
X5786134Y377762D01*
X5797983Y357239D01*
X5814739Y340482D01*
X5835262Y328634D01*
X5858152Y322500D01*
X5881849D01*
X5904739Y328634D01*
X5925261Y340482D01*
X5942018Y357239D01*
X5953867Y377762D01*
X5960000Y400651D01*
Y424349D01*
X5953867Y447239D01*
X5942018Y467761D01*
X5925261Y484518D01*
X5904739Y496367D01*
X5881849Y502500D01*
D02*
G37*
G36*
X5627849D02*
X5604152D01*
X5581262Y496367D01*
X5560739Y484518D01*
X5543983Y467761D01*
X5532134Y447239D01*
X5526000Y424349D01*
Y400651D01*
X5532134Y377762D01*
X5543983Y357239D01*
X5560739Y340482D01*
X5581262Y328634D01*
X5604152Y322500D01*
X5627849D01*
X5650739Y328634D01*
X5671261Y340482D01*
X5688018Y357239D01*
X5699867Y377762D01*
X5706000Y400651D01*
Y424349D01*
X5699867Y447239D01*
X5688018Y467761D01*
X5671261Y484518D01*
X5650739Y496367D01*
X5627849Y502500D01*
D02*
G37*
G36*
X5373849D02*
X5350152D01*
X5327262Y496367D01*
X5306739Y484518D01*
X5289983Y467761D01*
X5278134Y447239D01*
X5272000Y424349D01*
Y400651D01*
X5278134Y377762D01*
X5289983Y357239D01*
X5306739Y340482D01*
X5327262Y328634D01*
X5350152Y322500D01*
X5373849D01*
X5396739Y328634D01*
X5417261Y340482D01*
X5434018Y357239D01*
X5445867Y377762D01*
X5452000Y400651D01*
Y424349D01*
X5445867Y447239D01*
X5434018Y467761D01*
X5417261Y484518D01*
X5396739Y496367D01*
X5373849Y502500D01*
D02*
G37*
G36*
X5119849D02*
X5096152D01*
X5073262Y496367D01*
X5052739Y484518D01*
X5035983Y467761D01*
X5024134Y447239D01*
X5018000Y424349D01*
Y400651D01*
X5024134Y377762D01*
X5035983Y357239D01*
X5052739Y340482D01*
X5073262Y328634D01*
X5096152Y322500D01*
X5119849D01*
X5142739Y328634D01*
X5163261Y340482D01*
X5180018Y357239D01*
X5191867Y377762D01*
X5198000Y400651D01*
Y424349D01*
X5191867Y447239D01*
X5180018Y467761D01*
X5163261Y484518D01*
X5142739Y496367D01*
X5119849Y502500D01*
D02*
G37*
G36*
X4324475Y399800D02*
X4235775D01*
Y311100D01*
X4236424D01*
X4262214Y318010D01*
X4285336Y331360D01*
X4304215Y350239D01*
X4317565Y373361D01*
X4324475Y399151D01*
Y399800D01*
D02*
G37*
G36*
X4210375D02*
X4121675D01*
Y399151D01*
X4128585Y373361D01*
X4141935Y350239D01*
X4160814Y331360D01*
X4183936Y318010D01*
X4209725Y311100D01*
X4210375D01*
Y399800D01*
D02*
G37*
G36*
X1022475D02*
X933775D01*
Y311100D01*
X934424D01*
X960214Y318010D01*
X983336Y331360D01*
X1002215Y350239D01*
X1015565Y373361D01*
X1022475Y399151D01*
Y399800D01*
D02*
G37*
G36*
X908375D02*
X819675D01*
Y399151D01*
X826585Y373361D01*
X839935Y350239D01*
X858814Y331360D01*
X881936Y318010D01*
X907725Y311100D01*
X908375D01*
Y399800D01*
D02*
G37*
G36*
X12973900D02*
X12883701D01*
Y309600D01*
X12884547D01*
X12910718Y316613D01*
X12934183Y330160D01*
X12953340Y349318D01*
X12966887Y372782D01*
X12973900Y398953D01*
Y399800D01*
D02*
G37*
G36*
X12858299D02*
X12768100D01*
Y398953D01*
X12775112Y372782D01*
X12788659Y349318D01*
X12807819Y330160D01*
X12831282Y316613D01*
X12857452Y309600D01*
X12858299D01*
Y399800D01*
D02*
G37*
G36*
X12086400D02*
X11996201D01*
Y309600D01*
X11997047D01*
X12023218Y316613D01*
X12046682Y330160D01*
X12065840Y349318D01*
X12079388Y372782D01*
X12086400Y398953D01*
Y399800D01*
D02*
G37*
G36*
X11970801D02*
X11880600D01*
Y398953D01*
X11887612Y372782D01*
X11901160Y349318D01*
X11920318Y330160D01*
X11943782Y316613D01*
X11969953Y309600D01*
X11970801D01*
Y399800D01*
D02*
G37*
G36*
X11205953D02*
X11115753D01*
Y309600D01*
X11116600D01*
X11142771Y316613D01*
X11166235Y330160D01*
X11185393Y349318D01*
X11198941Y372782D01*
X11205953Y398953D01*
Y399800D01*
D02*
G37*
G36*
X11090353D02*
X11000153D01*
Y398953D01*
X11007165Y372782D01*
X11020713Y349318D01*
X11039871Y330160D01*
X11063335Y316613D01*
X11089506Y309600D01*
X11090353D01*
Y399800D01*
D02*
G37*
G36*
X7967251D02*
X7874551D01*
Y307100D01*
X7875727D01*
X7902534Y314283D01*
X7926568Y328159D01*
X7946192Y347783D01*
X7960068Y371817D01*
X7967251Y398624D01*
Y399800D01*
D02*
G37*
G36*
X7849151D02*
X7756451D01*
Y398624D01*
X7763634Y371817D01*
X7777510Y347783D01*
X7797134Y328159D01*
X7821168Y314283D01*
X7847975Y307100D01*
X7849151D01*
Y399800D01*
D02*
G37*
G36*
X4959400D02*
X4866700D01*
Y307100D01*
X4959400D01*
Y399800D01*
D02*
G37*
G36*
X4841300D02*
X4748600D01*
Y307100D01*
X4841300D01*
Y399800D01*
D02*
G37*
G36*
X386520Y9786500D02*
X363480D01*
X341226Y9780537D01*
X321274Y9769017D01*
X304983Y9752726D01*
X293463Y9732774D01*
X287500Y9710520D01*
Y9687480D01*
X293463Y9665226D01*
X304983Y9645274D01*
X321274Y9628983D01*
X341226Y9617463D01*
X363480Y9611500D01*
X386520D01*
X408774Y9617463D01*
X428726Y9628983D01*
X445017Y9645274D01*
X456537Y9665226D01*
X462500Y9687480D01*
Y9710520D01*
X456537Y9732774D01*
X445017Y9752726D01*
X428726Y9769017D01*
X408774Y9780537D01*
X386520Y9786500D01*
D02*
G37*
G36*
X462500Y9532500D02*
X287500D01*
Y9357500D01*
X462500D01*
Y9532500D01*
D02*
G37*
G36*
X386520Y9041500D02*
X363480D01*
X341226Y9035537D01*
X321274Y9024018D01*
X304983Y9007726D01*
X293463Y8987774D01*
X287500Y8965520D01*
Y8942480D01*
X293463Y8920226D01*
X304983Y8900274D01*
X321274Y8883983D01*
X341226Y8872463D01*
X363480Y8866500D01*
X386520D01*
X408774Y8872463D01*
X428726Y8883983D01*
X445017Y8900274D01*
X456537Y8920226D01*
X462500Y8942480D01*
Y8965520D01*
X456537Y8987774D01*
X445017Y9007726D01*
X428726Y9024018D01*
X408774Y9035537D01*
X386520Y9041500D01*
D02*
G37*
G36*
Y8787500D02*
X363480D01*
X341226Y8781537D01*
X321274Y8770018D01*
X304983Y8753726D01*
X293463Y8733774D01*
X287500Y8711520D01*
Y8688480D01*
X293463Y8666226D01*
X304983Y8646274D01*
X321274Y8629983D01*
X341226Y8618463D01*
X363480Y8612500D01*
X386520D01*
X408774Y8618463D01*
X428726Y8629983D01*
X445017Y8646274D01*
X456537Y8666226D01*
X462500Y8688480D01*
Y8711520D01*
X456537Y8733774D01*
X445017Y8753726D01*
X428726Y8770018D01*
X408774Y8781537D01*
X386520Y8787500D01*
D02*
G37*
G36*
X462500Y8533500D02*
X287500D01*
Y8358500D01*
X462500D01*
Y8533500D01*
D02*
G37*
G36*
X1808951Y8750000D02*
X1791049D01*
X1774510Y8743149D01*
X1761851Y8730491D01*
X1756449Y8717450D01*
X1754966Y8715230D01*
X1751667Y8698647D01*
Y8322976D01*
X1750000Y8318951D01*
Y8301049D01*
X1756851Y8284509D01*
X1769510Y8271851D01*
X1786049Y8265000D01*
X1803951D01*
X1820490Y8271851D01*
X1833149Y8284509D01*
X1840000Y8301049D01*
Y8318951D01*
X1838333Y8322976D01*
Y8679953D01*
X1845000Y8696049D01*
Y8713951D01*
X1838149Y8730491D01*
X1825490Y8743149D01*
X1808951Y8750000D01*
D02*
G37*
G36*
X1718951Y9745000D02*
X1701049D01*
X1684509Y9738149D01*
X1671851Y9725490D01*
X1669227Y9719155D01*
X1649359Y9699288D01*
X1639966Y9685230D01*
X1636667Y9668647D01*
Y8192976D01*
X1635000Y8188951D01*
Y8171049D01*
X1641851Y8154509D01*
X1654510Y8141851D01*
X1671049Y8135000D01*
X1688951D01*
X1705490Y8141851D01*
X1718149Y8154509D01*
X1725000Y8171049D01*
Y8188951D01*
X1723333Y8192976D01*
Y9650698D01*
X1733775Y9661140D01*
X1735490Y9661851D01*
X1748149Y9674509D01*
X1755000Y9691049D01*
Y9708951D01*
X1748149Y9725490D01*
X1735490Y9738149D01*
X1718951Y9745000D01*
D02*
G37*
G36*
X386520Y8022500D02*
X363480D01*
X341226Y8016537D01*
X321274Y8005017D01*
X304983Y7988726D01*
X293463Y7968774D01*
X287500Y7946520D01*
Y7923480D01*
X293463Y7901226D01*
X304983Y7881274D01*
X321274Y7864982D01*
X341226Y7853463D01*
X363480Y7847500D01*
X386520D01*
X408774Y7853463D01*
X428726Y7864982D01*
X445017Y7881274D01*
X456537Y7901226D01*
X462500Y7923480D01*
Y7946520D01*
X456537Y7968774D01*
X445017Y7988726D01*
X428726Y8005017D01*
X408774Y8016537D01*
X386520Y8022500D01*
D02*
G37*
G36*
X5857700Y7862616D02*
Y7815200D01*
X5905116D01*
X5896205Y7836714D01*
X5879214Y7853705D01*
X5857700Y7862616D01*
D02*
G37*
G36*
X5832300D02*
X5810786Y7853705D01*
X5793796Y7836714D01*
X5784884Y7815200D01*
X5832300D01*
Y7862616D01*
D02*
G37*
G36*
X1308951Y9485000D02*
X1291049D01*
X1274510Y9478149D01*
X1261851Y9465490D01*
X1255000Y9448951D01*
Y9431049D01*
X1261667Y9414953D01*
Y7842976D01*
X1260000Y7838951D01*
Y7821049D01*
X1266851Y7804510D01*
X1279510Y7791851D01*
X1296049Y7785000D01*
X1313951D01*
X1330490Y7791851D01*
X1343149Y7804510D01*
X1350000Y7821049D01*
Y7838951D01*
X1348333Y7842976D01*
Y9433647D01*
X1345034Y9450230D01*
X1343551Y9452450D01*
X1338149Y9465490D01*
X1325490Y9478149D01*
X1308951Y9485000D01*
D02*
G37*
G36*
X5905116Y7789800D02*
X5857700D01*
Y7742384D01*
X5879214Y7751295D01*
X5896205Y7768286D01*
X5905116Y7789800D01*
D02*
G37*
G36*
X5832300D02*
X5784884D01*
X5793796Y7768286D01*
X5810786Y7751295D01*
X5832300Y7742384D01*
Y7789800D01*
D02*
G37*
G36*
X1183951Y8490000D02*
X1166049D01*
X1149510Y8483149D01*
X1136851Y8470490D01*
X1130000Y8453951D01*
Y8436049D01*
X1131667Y8432024D01*
Y7737976D01*
X1130000Y7733951D01*
Y7716049D01*
X1136851Y7699510D01*
X1149510Y7686851D01*
X1166049Y7680000D01*
X1183951D01*
X1200490Y7686851D01*
X1213149Y7699510D01*
X1220000Y7716049D01*
Y7733951D01*
X1218333Y7737976D01*
Y8432024D01*
X1220000Y8436049D01*
Y8453951D01*
X1213149Y8470490D01*
X1200490Y8483149D01*
X1183951Y8490000D01*
D02*
G37*
G36*
X386520Y7768500D02*
X363480D01*
X341226Y7762537D01*
X321274Y7751017D01*
X304983Y7734726D01*
X293463Y7714774D01*
X287500Y7692520D01*
Y7669480D01*
X293463Y7647226D01*
X304983Y7627274D01*
X321274Y7610982D01*
X341226Y7599463D01*
X363480Y7593500D01*
X386520D01*
X408774Y7599463D01*
X428726Y7610982D01*
X445017Y7627274D01*
X456537Y7647226D01*
X462500Y7669480D01*
Y7692520D01*
X456537Y7714774D01*
X445017Y7734726D01*
X428726Y7751017D01*
X408774Y7762537D01*
X386520Y7768500D01*
D02*
G37*
G36*
X1928951Y8515000D02*
X1911049D01*
X1894510Y8508149D01*
X1881851Y8495491D01*
X1876449Y8482450D01*
X1874966Y8480230D01*
X1871667Y8463647D01*
Y7587976D01*
X1870000Y7583951D01*
Y7566049D01*
X1876851Y7549510D01*
X1889510Y7536851D01*
X1906049Y7530000D01*
X1923951D01*
X1940490Y7536851D01*
X1953149Y7549510D01*
X1960000Y7566049D01*
Y7583951D01*
X1958333Y7587976D01*
Y8444953D01*
X1965000Y8461049D01*
Y8478951D01*
X1958149Y8495491D01*
X1945490Y8508149D01*
X1928951Y8515000D01*
D02*
G37*
G36*
X462500Y7514500D02*
X287500D01*
Y7339500D01*
X462500D01*
Y7514500D01*
D02*
G37*
G36*
X8685700Y7599116D02*
Y7551700D01*
X8733116D01*
X8724205Y7573214D01*
X8707214Y7590205D01*
X8685700Y7599116D01*
D02*
G37*
G36*
X8660300D02*
X8638786Y7590205D01*
X8621795Y7573214D01*
X8612884Y7551700D01*
X8660300D01*
Y7599116D01*
D02*
G37*
G36*
X8733116Y7526300D02*
X8685700D01*
Y7478884D01*
X8707214Y7487795D01*
X8724205Y7504786D01*
X8733116Y7526300D01*
D02*
G37*
G36*
X8660300D02*
X8612884D01*
X8621795Y7504786D01*
X8638786Y7487795D01*
X8660300Y7478884D01*
Y7526300D01*
D02*
G37*
G36*
X13263876Y5846600D02*
X13262700D01*
Y5753901D01*
X13355400D01*
Y5755076D01*
X13348216Y5781883D01*
X13334341Y5805917D01*
X13314717Y5825541D01*
X13290683Y5839417D01*
X13263876Y5846600D01*
D02*
G37*
G36*
X13237300D02*
X13236124D01*
X13209317Y5839417D01*
X13185283Y5825541D01*
X13165659Y5805917D01*
X13151784Y5781883D01*
X13144600Y5755076D01*
Y5753901D01*
X13237300D01*
Y5846600D01*
D02*
G37*
G36*
X13355400Y5728501D02*
X13262700D01*
Y5635800D01*
X13263876D01*
X13290683Y5642983D01*
X13314717Y5656859D01*
X13334341Y5676483D01*
X13348216Y5700517D01*
X13355400Y5727324D01*
Y5728501D01*
D02*
G37*
G36*
X13237300D02*
X13144600D01*
Y5727324D01*
X13151784Y5700517D01*
X13165659Y5676483D01*
X13185283Y5656859D01*
X13209317Y5642983D01*
X13236124Y5635800D01*
X13237300D01*
Y5728501D01*
D02*
G37*
G36*
X13339999Y5577200D02*
X13160001D01*
Y5397200D01*
X13339999D01*
Y5577200D01*
D02*
G37*
G36*
X14542012Y6277050D02*
X14521988D01*
X14502646Y6271867D01*
X14485304Y6261855D01*
X14471146Y6247696D01*
X14461133Y6230354D01*
X14455949Y6211012D01*
Y6190988D01*
X14461133Y6171646D01*
X14471146Y6154304D01*
X14485304Y6140145D01*
X14502646Y6130133D01*
X14521988Y6124950D01*
X14542012D01*
X14561354Y6130133D01*
X14578696Y6140145D01*
X14592854Y6154304D01*
X14602867Y6171646D01*
X14608051Y6190988D01*
Y6211012D01*
X14602867Y6230354D01*
X14592854Y6247696D01*
X14578696Y6261855D01*
X14561354Y6271867D01*
X14542012Y6277050D01*
D02*
G37*
G36*
X14292012D02*
X14271988D01*
X14252646Y6271867D01*
X14235304Y6261855D01*
X14221146Y6247696D01*
X14211133Y6230354D01*
X14205949Y6211012D01*
Y6190988D01*
X14211133Y6171646D01*
X14221146Y6154304D01*
X14235304Y6140145D01*
X14252646Y6130133D01*
X14271988Y6124950D01*
X14292012D01*
X14311354Y6130133D01*
X14328696Y6140145D01*
X14342854Y6154304D01*
X14352867Y6171646D01*
X14358051Y6190988D01*
Y6211012D01*
X14352867Y6230354D01*
X14342854Y6247696D01*
X14328696Y6261855D01*
X14311354Y6271867D01*
X14292012Y6277050D01*
D02*
G37*
G36*
X13935699Y6080116D02*
Y6032700D01*
X13983116D01*
X13974205Y6054214D01*
X13957214Y6071205D01*
X13935699Y6080116D01*
D02*
G37*
G36*
X13910300D02*
X13888786Y6071205D01*
X13871796Y6054214D01*
X13862885Y6032700D01*
X13910300D01*
Y6080116D01*
D02*
G37*
G36*
X13983116Y6007300D02*
X13935699D01*
Y5959884D01*
X13957214Y5968795D01*
X13974205Y5985786D01*
X13983116Y6007300D01*
D02*
G37*
G36*
X13910300D02*
X13862885D01*
X13871796Y5985786D01*
X13888786Y5968795D01*
X13910300Y5959884D01*
Y6007300D01*
D02*
G37*
G36*
X14105400Y5846600D02*
X14012700D01*
Y5753901D01*
X14105400D01*
Y5846600D01*
D02*
G37*
G36*
X13987300D02*
X13894600D01*
Y5753901D01*
X13987300D01*
Y5846600D01*
D02*
G37*
G36*
X14105400Y5728501D02*
X14012700D01*
Y5635800D01*
X14105400D01*
Y5728501D01*
D02*
G37*
G36*
X13987300D02*
X13894600D01*
Y5635800D01*
X13987300D01*
Y5728501D01*
D02*
G37*
G36*
X14011848Y5577200D02*
X13988152D01*
X13965260Y5571067D01*
X13944739Y5559218D01*
X13927982Y5542461D01*
X13916133Y5521939D01*
X13910001Y5499049D01*
Y5475352D01*
X13916133Y5452462D01*
X13927982Y5431939D01*
X13944739Y5415182D01*
X13965260Y5403334D01*
X13988152Y5397200D01*
X14011848D01*
X14034740Y5403334D01*
X14055261Y5415182D01*
X14072018Y5431939D01*
X14083865Y5452462D01*
X14089999Y5475352D01*
Y5499049D01*
X14083865Y5521939D01*
X14072018Y5542461D01*
X14055261Y5559218D01*
X14034740Y5571067D01*
X14011848Y5577200D01*
D02*
G37*
G36*
X15077600Y5344316D02*
Y5296900D01*
X15125015D01*
X15116106Y5318414D01*
X15099113Y5335405D01*
X15077600Y5344316D01*
D02*
G37*
G36*
X15052200D02*
X15030685Y5335405D01*
X15013695Y5318414D01*
X15004784Y5296900D01*
X15052200D01*
Y5344316D01*
D02*
G37*
G36*
X14593011Y2566050D02*
X14572987D01*
X14553645Y2560867D01*
X14536304Y2550855D01*
X14522145Y2536696D01*
X14512132Y2519354D01*
X14506950Y2500012D01*
Y2479988D01*
X14512132Y2460646D01*
X14522145Y2443304D01*
X14536304Y2429145D01*
X14553645Y2419133D01*
X14572987Y2413950D01*
X14593011D01*
X14612354Y2419133D01*
X14629697Y2429145D01*
X14643855Y2443304D01*
X14653867Y2460646D01*
X14659050Y2479988D01*
Y2500012D01*
X14653867Y2519354D01*
X14643855Y2536696D01*
X14629697Y2550855D01*
X14612354Y2560867D01*
X14593011Y2566050D01*
D02*
G37*
G36*
X14343011D02*
X14322987D01*
X14303645Y2560867D01*
X14286304Y2550855D01*
X14272145Y2536696D01*
X14262132Y2519354D01*
X14256950Y2500012D01*
Y2479988D01*
X14262132Y2460646D01*
X14272145Y2443304D01*
X14286304Y2429145D01*
X14303645Y2419133D01*
X14322987Y2413950D01*
X14343011D01*
X14362354Y2419133D01*
X14379697Y2429145D01*
X14393855Y2443304D01*
X14403867Y2460646D01*
X14409050Y2479988D01*
Y2500012D01*
X14403867Y2519354D01*
X14393855Y2536696D01*
X14379697Y2550855D01*
X14362354Y2560867D01*
X14343011Y2566050D01*
D02*
G37*
G36*
X13934700Y2370116D02*
Y2322700D01*
X13982117D01*
X13973206Y2344214D01*
X13956213Y2361205D01*
X13934700Y2370116D01*
D02*
G37*
G36*
X13909300D02*
X13887785Y2361205D01*
X13870795Y2344214D01*
X13861884Y2322700D01*
X13909300D01*
Y2370116D01*
D02*
G37*
G36*
X13982117Y2297300D02*
X13934700D01*
Y2249884D01*
X13956213Y2258795D01*
X13973206Y2275786D01*
X13982117Y2297300D01*
D02*
G37*
G36*
X13909300D02*
X13861884D01*
X13870795Y2275786D01*
X13887785Y2258795D01*
X13909300Y2249884D01*
Y2297300D01*
D02*
G37*
G36*
X14105400Y2136700D02*
X14012700D01*
Y2044000D01*
X14105400D01*
Y2136700D01*
D02*
G37*
G36*
X13987300D02*
X13894600D01*
Y2044000D01*
X13987300D01*
Y2136700D01*
D02*
G37*
G36*
X14105400Y2018600D02*
X14012700D01*
Y1925900D01*
X14105400D01*
Y2018600D01*
D02*
G37*
G36*
X13987300D02*
X13894600D01*
Y1925900D01*
X13987300D01*
Y2018600D01*
D02*
G37*
G36*
X14011848Y1867300D02*
X13988152D01*
X13965260Y1861166D01*
X13944739Y1849318D01*
X13927982Y1832561D01*
X13916133Y1812039D01*
X13910001Y1789149D01*
Y1765451D01*
X13916133Y1742561D01*
X13927982Y1722039D01*
X13944739Y1705282D01*
X13965260Y1693433D01*
X13988152Y1687300D01*
X14011848D01*
X14034740Y1693433D01*
X14055261Y1705282D01*
X14072018Y1722039D01*
X14083865Y1742561D01*
X14089999Y1765451D01*
Y1789149D01*
X14083865Y1812039D01*
X14072018Y1832561D01*
X14055261Y1849318D01*
X14034740Y1861166D01*
X14011848Y1867300D01*
D02*
G37*
G36*
X15072701Y1630116D02*
Y1582700D01*
X15120116D01*
X15111205Y1604214D01*
X15094214Y1621205D01*
X15072701Y1630116D01*
D02*
G37*
G36*
X15047301D02*
X15025786Y1621205D01*
X15008795Y1604214D01*
X14999884Y1582700D01*
X15047301D01*
Y1630116D01*
D02*
G37*
%LPD*%
D10*
X1500000Y2975000D02*
X1502200Y2977200D01*
X2703600D02*
X2705800Y2979400D01*
X1502200Y2977200D02*
X2703600D01*
X2962500Y1875000D02*
X5275000D01*
X2710000Y2050000D02*
X5040000D01*
X4931882Y2250000D02*
X4941882Y2240000D01*
X4950000D01*
X2450000Y2250000D02*
X4931882D01*
X2200000D02*
X2360000Y2410000D01*
X1625000Y2250000D02*
X2200000D01*
X2360000Y2410000D02*
X4900000D01*
X1500000Y4675000D02*
X3725000D01*
X1500000Y5100000D02*
X3962500D01*
X1500000Y4250000D02*
X3462500D01*
X1500000Y3825000D02*
X3212500D01*
X1500000Y3400000D02*
X2950000D01*
X1500000Y2125000D02*
X1625000Y2250000D01*
X1500000Y2550000D02*
X2450000D01*
X3212500Y1750000D02*
X5262931D01*
X5264199Y1751268D02*
X5359582D01*
X3468750Y1631250D02*
X5431250D01*
X3725000Y1500000D02*
X5525000D01*
X3962500Y1375000D02*
X5612500D01*
D14*
X9124000Y3945000D02*
X9125500Y3946500D01*
Y8621500D01*
X9127000Y8623000D01*
X12972000Y697000D02*
Y3947000D01*
Y697000D02*
X13125000Y544000D01*
Y412500D02*
Y544000D01*
X9011500Y8298500D02*
X9014000Y8301000D01*
X9011500Y3818500D02*
Y8298500D01*
X9009000Y3816000D02*
X9011500Y3818500D01*
X12238750Y3814750D02*
X12240000Y3816000D01*
X12238750Y451250D02*
X12259000Y431000D01*
X12238750Y451250D02*
Y3814750D01*
X8500000Y8690000D02*
Y11010000D01*
X8477962Y8667962D02*
X8477962D01*
X8430000Y8620000D02*
X8477962Y8667962D01*
X8477962D02*
X8500000Y8690000D01*
Y11010000D02*
X9170000Y11680000D01*
X8360000Y8360000D02*
Y9940000D01*
X8300000Y8300000D02*
X8360000Y8360000D01*
X8220000Y8109000D02*
X8221000Y8110000D01*
X8220000Y3515000D02*
Y8109000D01*
X8104913Y10826913D02*
X8179000Y10901000D01*
X8104913Y10826913D02*
X8104913D01*
X7212000Y8122000D02*
X7219000Y8129000D01*
X9170000Y11680000D02*
Y12040000D01*
X16618900Y5644200D02*
X16618900Y5644200D01*
X11361026Y416473D02*
Y3506027D01*
X360000Y6599500D02*
X2689500Y6599500D01*
X320000Y6599500D02*
X360000D01*
Y6090750D02*
X2399250D01*
X5675000Y6010000D02*
X7000000D01*
X5807500Y5852500D02*
X7147500D01*
X5805000Y5855000D02*
X5807500Y5852500D01*
X7147500D02*
X7150000Y5850000D01*
X4927500Y6002500D02*
X4930000Y6005000D01*
X2690000Y6000000D02*
X2692500Y6002500D01*
X4927500D01*
X2550000Y5900000D02*
X2555000Y5895000D01*
X4770000D02*
X4775000Y5890000D01*
X2555000Y5895000D02*
X4770000D01*
X4620000Y5770000D02*
X4625000Y5765000D01*
X2410000Y5770000D02*
X4620000D01*
X2250000Y5650000D02*
X2255000Y5655000D01*
X4470000D02*
X4475000Y5660000D01*
X2255000Y5655000D02*
X4470000D01*
X1707500Y9697500D02*
X1710000Y9700000D01*
X291250Y5833750D02*
X2246250D01*
X2250000Y5830000D01*
X2399250Y6090750D02*
X2400000Y6090000D01*
X289750Y6347750D02*
X2547750D01*
X2550000Y6350000D01*
X2689500Y6599500D02*
X2690000Y6600000D01*
X10494431Y462500D02*
X10500000D01*
X10484564Y472367D02*
X10494431Y462500D01*
X10484564Y472367D02*
Y3397064D01*
X10487500Y3400000D01*
X9609351Y440649D02*
X9612500Y437500D01*
X9609351Y440649D02*
Y3284351D01*
X9612500Y3287500D01*
X8721034Y453967D02*
X8725000Y450000D01*
X8721034Y453967D02*
Y3216466D01*
X8712500Y3225000D02*
X8721034Y3216466D01*
X7351926Y439426D02*
Y3060575D01*
X7350000Y437500D02*
X7351926Y439426D01*
X7350000Y3062500D02*
X7351926Y3060575D01*
X7087500Y424851D02*
Y2975000D01*
Y424851D02*
X7099851Y412500D01*
X5612500Y1637500D02*
Y2812500D01*
Y1637500D02*
X6484926Y765074D01*
Y412500D02*
Y765074D01*
X4700000Y962500D02*
X5575431D01*
X4350000D02*
X4700000D01*
X4931250Y843750D02*
X5356250D01*
X4231250D02*
X4931250D01*
X4937500Y837500D01*
X5400000Y1062500D02*
X5875000D01*
X4462500D02*
X5400000D01*
X4350000Y3175000D02*
X4400000Y3225000D01*
X4350000Y2975000D02*
Y3175000D01*
X5600431Y937500D02*
X5612500D01*
X5575431Y962500D02*
X5600431Y937500D01*
X4225000Y850000D02*
X4231250Y843750D01*
X4100000Y750000D02*
X4106250Y743750D01*
X5093750D01*
X5100000Y737500D01*
X4400000Y3225000D02*
X5075000D01*
X5356250Y843750D02*
X5362500Y837500D01*
X4722300Y2897300D02*
X4737500Y2912500D01*
X1787500Y2894600D02*
X1790200Y2897300D01*
X4722300D01*
X1937500Y2812500D02*
X4625000D01*
X5262931Y1750000D02*
X5264199Y1751268D01*
X5359582D02*
X5360850Y1750000D01*
X5431250Y1631250D02*
X5437500Y1637500D01*
X3462500Y1625000D02*
X3468750Y1631250D01*
D17*
X16618900Y5644200D02*
D03*
X16798900D02*
D03*
X16808900Y1954300D02*
D03*
X16628900D02*
D03*
D77*
X7095000Y9817000D02*
X8104913Y10826913D01*
X7095000Y8482000D02*
Y9817000D01*
X6995000Y10014000D02*
X7951000Y10970000D01*
X6995000Y8238000D02*
Y10014000D01*
X7214500Y8133500D02*
X7219000Y8129000D01*
X7214500Y8133500D02*
Y9244500D01*
X7217000Y9247000D01*
D78*
X16838901Y5644200D02*
X17248900D01*
X16408900D02*
X16618900D01*
X16418900Y1954300D02*
X16628900D01*
X16838901D02*
X17258900D01*
X1300000Y9438647D02*
Y9440000D01*
X1555000Y8055000D02*
Y10725000D01*
X1305000Y7830000D02*
Y9433647D01*
X1425000Y7930000D02*
Y10465000D01*
X1300000Y9438647D02*
X1305000Y9433647D01*
X1915000Y7575000D02*
Y8463647D01*
X1920000Y8468647D01*
Y8470000D01*
X1795000Y8698647D02*
X1800000Y8703647D01*
X1680000Y9668647D02*
X1709043Y9697690D01*
X1680000Y8180000D02*
Y9668647D01*
X1800000Y8703647D02*
Y8705000D01*
X1795000Y8310000D02*
Y8698647D01*
X1708367Y9698367D02*
X1709043Y9697690D01*
X1175000Y7725000D02*
Y8445000D01*
D84*
X921000Y1220733D02*
D03*
X1175000Y966733D02*
D03*
X1429000Y1220733D02*
D03*
D85*
X14532001Y6201000D02*
D03*
X14282001D02*
D03*
X14583000Y2490000D02*
D03*
X14333000D02*
D03*
X750000Y2124000D02*
D03*
X1000000D02*
D03*
X750000Y2974000D02*
D03*
X1000000D02*
D03*
X750000Y2548999D02*
D03*
X1000000D02*
D03*
X750000Y3399000D02*
D03*
X1000000D02*
D03*
X750000Y4249000D02*
D03*
X1000000D02*
D03*
X750000Y3823999D02*
D03*
X1000000D02*
D03*
X750000Y5098999D02*
D03*
X1000000D02*
D03*
X750000Y4674000D02*
D03*
X1000000D02*
D03*
D86*
X14450000Y10000000D02*
D03*
X16450000Y12200000D02*
D03*
Y10000000D02*
D03*
X18450000D02*
D03*
Y12200000D02*
D03*
D87*
X15200000Y10000000D02*
D03*
X17200000Y12200000D02*
D03*
Y10000000D02*
D03*
X19200000D02*
D03*
Y12200000D02*
D03*
D88*
X14000000Y12373000D02*
D03*
Y13073000D02*
D03*
Y1777300D02*
D03*
Y5487200D02*
D03*
X13250000Y12627000D02*
D03*
Y13327000D02*
D03*
Y5741200D02*
D03*
Y2031300D02*
D03*
X5362000Y412500D02*
D03*
X5108000D02*
D03*
X5616000D02*
D03*
X5870000D02*
D03*
X7607851D02*
D03*
X7353851D02*
D03*
X7861851D02*
D03*
X8115851D02*
D03*
X360000Y6093000D02*
D03*
Y6601000D02*
D03*
Y6347000D02*
D03*
Y5839000D02*
D03*
Y5585000D02*
D03*
D89*
X14000000Y12627000D02*
D03*
Y13327000D02*
D03*
Y2031300D02*
D03*
Y5741200D02*
D03*
X13250000Y12373000D02*
D03*
Y13073000D02*
D03*
Y5487200D02*
D03*
Y1777300D02*
D03*
X360000Y6855000D02*
D03*
D90*
X4726000Y13344000D02*
D03*
X12221999Y11866000D02*
D03*
Y13316000D02*
D03*
X4726000Y11755891D02*
D03*
X16878900Y6324200D02*
D03*
Y6154200D02*
D03*
X16708900Y6494200D02*
D03*
Y6664200D02*
D03*
X16878900Y6494200D02*
D03*
Y6664200D02*
D03*
X16708900Y6154200D02*
D03*
Y6324200D02*
D03*
X16718900Y2434300D02*
D03*
X16898900D02*
D03*
Y2604300D02*
D03*
Y2774300D02*
D03*
Y2944300D02*
D03*
X16718900D02*
D03*
Y2774300D02*
D03*
Y2604300D02*
D03*
D91*
X4726000Y13594000D02*
D03*
X12221999Y12116000D02*
D03*
Y13066000D02*
D03*
X4726000Y11505891D02*
D03*
D92*
X11230000Y15739999D02*
D03*
X12550000D02*
D03*
X8340000D02*
D03*
X7090000D02*
D03*
X5840000D02*
D03*
X4610000D02*
D03*
D93*
X9932000Y10486000D02*
D03*
Y14486000D02*
D03*
X2786000Y10594000D02*
D03*
Y14594000D02*
D03*
D94*
X19450000Y14560001D02*
D03*
X18450000D02*
D03*
D95*
X4854000Y412500D02*
D03*
X7099851D02*
D03*
D96*
X17600000Y15537500D02*
D03*
X18650000D02*
D03*
X18300000D02*
D03*
X17950000D02*
D03*
D97*
X19439999Y13774574D02*
D03*
D98*
X18439999D02*
D03*
X17689999D02*
D03*
X16939999D02*
D03*
D99*
X10227627Y412500D02*
D03*
X10481628D02*
D03*
X11103053D02*
D03*
X11357053D02*
D03*
X12871001D02*
D03*
X13125000D02*
D03*
X11983500D02*
D03*
X12237500D02*
D03*
X9352202D02*
D03*
X9606202D02*
D03*
X375000Y7935000D02*
D03*
Y7681000D02*
D03*
Y8954000D02*
D03*
Y8700000D02*
D03*
Y9953000D02*
D03*
Y9699000D02*
D03*
Y10978000D02*
D03*
Y10724000D02*
D03*
X6230926Y412500D02*
D03*
X6484926D02*
D03*
X8476777D02*
D03*
X8730777D02*
D03*
D100*
X10735627D02*
D03*
X11611053D02*
D03*
X13378999D02*
D03*
X12491500D02*
D03*
X9860202D02*
D03*
X6738926D02*
D03*
X8984777D02*
D03*
D101*
X375000Y7427000D02*
D03*
Y8446000D02*
D03*
Y9445000D02*
D03*
Y10470000D02*
D03*
D102*
X4477075Y412500D02*
D03*
X4223075D02*
D03*
X3969075D02*
D03*
X3715075D02*
D03*
X3207075D02*
D03*
X2699075D02*
D03*
X2445075D02*
D03*
X1937075D02*
D03*
X1683075D02*
D03*
X1429075D02*
D03*
X921075D02*
D03*
X1175075D02*
D03*
X2191075D02*
D03*
X2953075D02*
D03*
X3461075D02*
D03*
D103*
X667075D02*
D03*
D104*
X13312500Y900000D02*
D03*
X13962500Y275000D02*
D03*
X13325000Y15737500D02*
D03*
X262500D02*
D03*
X350000Y962500D02*
D03*
X19737500Y262500D02*
D03*
Y15737500D02*
D03*
X13950000D02*
D03*
D105*
X9124000Y3945000D02*
D03*
X12972000Y3947000D02*
D03*
X9127000Y8623000D02*
D03*
X9009000Y3816000D02*
D03*
X12240000D02*
D03*
X9014000Y8301000D02*
D03*
X7890000Y8235000D02*
D03*
X8221000Y8110000D02*
D03*
X7963000Y7978000D02*
D03*
X8673000Y7539000D02*
D03*
X8300000Y8300000D02*
D03*
X7095000Y8482000D02*
D03*
X6995000Y8238000D02*
D03*
X8179000Y10901000D02*
D03*
X7951000Y10970000D02*
D03*
X7217000Y9247000D02*
D03*
X7212000Y8122000D02*
D03*
X6590000Y8430000D02*
D03*
X8360000Y9940000D02*
D03*
X9170000Y12040000D02*
D03*
X8430000Y8620000D02*
D03*
X7900699Y8560000D02*
D03*
X7682807Y8540000D02*
D03*
X7592807Y8490000D02*
D03*
X7682807Y8440000D02*
D03*
X15060001Y1570000D02*
D03*
X13923000Y6020000D02*
D03*
X13922000Y2310000D02*
D03*
X15064900Y5284200D02*
D03*
X16408900Y5644200D02*
D03*
X17248900D02*
D03*
X18258900Y6344200D02*
D03*
X2705800Y2979400D02*
D03*
X10582000Y13906000D02*
D03*
X10482000Y13816000D02*
D03*
X10582000Y13725999D02*
D03*
X8220000Y3515000D02*
D03*
X18058900Y2624300D02*
D03*
X5275000Y1875000D02*
D03*
X2710000Y2050000D02*
D03*
X5040000D02*
D03*
X4950000Y2240000D02*
D03*
X2450000Y2250000D02*
D03*
X2200000D02*
D03*
X4900000Y2410000D02*
D03*
X9271999Y13306000D02*
D03*
X10582000Y11196000D02*
D03*
Y11286000D02*
D03*
Y11376000D02*
D03*
X10482000Y11196000D02*
D03*
Y11286000D02*
D03*
Y11376000D02*
D03*
X10582000Y11466000D02*
D03*
X10482000D02*
D03*
X3426000Y11214000D02*
D03*
Y11394000D02*
D03*
Y11304000D02*
D03*
X3326000Y11214000D02*
D03*
Y11304000D02*
D03*
Y11394000D02*
D03*
Y11484000D02*
D03*
X3426000D02*
D03*
X10582000Y13636000D02*
D03*
Y13816000D02*
D03*
X10482000Y13906000D02*
D03*
Y13725999D02*
D03*
Y13636000D02*
D03*
X3416000Y13814000D02*
D03*
X3326000Y13903999D02*
D03*
Y13724001D02*
D03*
X3416000Y13634000D02*
D03*
Y13724001D02*
D03*
X3326000Y13634000D02*
D03*
X3416000Y13903999D02*
D03*
X3326000Y13814000D02*
D03*
X16418900Y1954300D02*
D03*
X17258900D02*
D03*
X14453101Y13091400D02*
D03*
X11365000Y3510000D02*
D03*
X1300000Y9440000D02*
D03*
X1806000Y13325465D02*
D03*
X5675000Y6010000D02*
D03*
X5805000Y5855000D02*
D03*
X4930000Y6005000D02*
D03*
X4775000Y5890000D02*
D03*
X4625000Y5765000D02*
D03*
X4475000Y5660000D02*
D03*
X1915000Y7575000D02*
D03*
X1920000Y8470000D02*
D03*
X1800000Y8705000D02*
D03*
X1795000Y8310000D02*
D03*
X1680000Y8180000D02*
D03*
X1710000Y9700000D02*
D03*
X1555000Y8055000D02*
D03*
Y10725000D02*
D03*
X1425000Y7930000D02*
D03*
Y10465000D02*
D03*
X1305000Y7830000D02*
D03*
X1175000Y7725000D02*
D03*
Y8445000D02*
D03*
X6920000Y5350000D02*
D03*
X7150000D02*
D03*
Y5850000D02*
D03*
X7000000Y6010000D02*
D03*
X2250000Y5650000D02*
D03*
Y5830000D02*
D03*
X2410000Y5770000D02*
D03*
X2400000Y6090000D02*
D03*
X2550000Y5900000D02*
D03*
Y6350000D02*
D03*
X2690000Y6000000D02*
D03*
Y6600000D02*
D03*
X10487500Y3400000D02*
D03*
X9612500Y3287500D02*
D03*
X8712500Y3225000D02*
D03*
X7350000Y3062500D02*
D03*
X7087500Y2975000D02*
D03*
X5612500Y2812500D02*
D03*
X5750000Y2600000D02*
D03*
X4700000Y962500D02*
D03*
X4937500Y837500D02*
D03*
X5400000Y1062500D02*
D03*
X5875000D02*
D03*
X5075000Y3100000D02*
D03*
X4350000Y2975000D02*
D03*
X4462500Y1062500D02*
D03*
X4350000Y962500D02*
D03*
X4225000Y850000D02*
D03*
X4100000Y750000D02*
D03*
X5075000Y3225000D02*
D03*
X5612500Y937500D02*
D03*
X5362500Y837500D02*
D03*
X5100000Y737500D02*
D03*
X1787500Y2894600D02*
D03*
X1937500Y2812500D02*
D03*
X4737500Y2900000D02*
D03*
X4625000Y2812500D02*
D03*
X3725000Y4675000D02*
D03*
X3962500Y5100000D02*
D03*
X1500000D02*
D03*
Y4675000D02*
D03*
X3462500Y4250000D02*
D03*
X1500000D02*
D03*
Y3825000D02*
D03*
X3212500D02*
D03*
X2950000Y3400000D02*
D03*
X1500000D02*
D03*
Y2975000D02*
D03*
Y2125000D02*
D03*
Y2550000D02*
D03*
X2450000D02*
D03*
X2962500Y1875000D02*
D03*
X3212500Y1750000D02*
D03*
X5360850D02*
D03*
X5437500Y1637500D02*
D03*
X3462500Y1625000D02*
D03*
X5525000Y1500000D02*
D03*
X3725000D02*
D03*
X5612500Y1375000D02*
D03*
X3962500D02*
D03*
X6162500Y2037500D02*
D03*
X162500Y5100000D02*
D03*
Y2125000D02*
D03*
Y2550000D02*
D03*
Y2975000D02*
D03*
Y3400000D02*
D03*
Y3825000D02*
D03*
Y4250000D02*
D03*
Y4675000D02*
D03*
X5845000Y7802500D02*
D03*
D106*
X10132000Y12460000D02*
D03*
X9932000D02*
D03*
X9732000D02*
D03*
Y12680000D02*
D03*
Y12850000D02*
D03*
X2776000Y12272966D02*
D03*
X10132000Y12680000D02*
D03*
X9932000D02*
D03*
X10132000Y12256000D02*
D03*
X9932000D02*
D03*
X9732000D02*
D03*
Y12076000D02*
D03*
X9932000D02*
D03*
X10132000D02*
D03*
Y13006000D02*
D03*
X9932000D02*
D03*
X9732000D02*
D03*
X9932000Y12850000D02*
D03*
X10132000D02*
D03*
X2976000Y12272966D02*
D03*
X2776000Y12435466D02*
D03*
X2576000Y12435466D02*
D03*
Y12685466D02*
D03*
X2976000Y12435466D02*
D03*
X2576000Y12272966D02*
D03*
X2776000Y12685466D02*
D03*
X2976000Y12685466D02*
D03*
X2576000Y12110466D02*
D03*
X2776000D02*
D03*
X2976000D02*
D03*
X2576000Y13010466D02*
D03*
X2776000D02*
D03*
X2976000Y13010500D02*
D03*
X2576000Y12847966D02*
D03*
X2776000D02*
D03*
X2976000D02*
D03*
D107*
X18471800Y15539500D02*
D03*
X17771899Y15541499D02*
D03*
M02*
