G04*
G04 #@! TF.GenerationSoftware,Altium Limited,Altium Designer,23.2.1 (34)*
G04*
G04 Layer_Color=16711935*
%FSLAX45Y45*%
%MOMM*%
G71*
G04*
G04 #@! TF.SameCoordinates,6E3D6F93-4A61-4C57-BA4F-68D24251A383*
G04*
G04*
G04 #@! TF.FilePolarity,Positive*
G04*
G01*
G75*
%ADD82C,1.00000*%
%ADD109C,0.00100*%
D82*
X13625000Y-70000D02*
Y16060001D01*
D109*
X13675038Y15500000D02*
G03*
X13574962Y15500000I-50038J0D01*
G01*
Y8250000D02*
G03*
X13675038Y8250000I50038J0D01*
G01*
Y7750000D02*
G03*
X13574962Y7750000I-50038J0D01*
G01*
Y520000D02*
G03*
X13675038Y520000I50038J0D01*
G01*
X20000000Y-53D02*
G03*
X20000052Y0I0J53D01*
G01*
Y16000000D02*
G03*
X20000000Y16000053I-53J0D01*
G01*
X0D02*
G03*
X-53Y16000000I0J-53D01*
G01*
Y0D02*
G03*
X0Y-53I53J0D01*
G01*
X13675038Y15500000D02*
G03*
X13574962Y15500000I-50038J0D01*
G01*
Y8250000D02*
G03*
X13675038Y8250000I50038J0D01*
G01*
Y7750000D02*
G03*
X13574962Y7750000I-50038J0D01*
G01*
Y520000D02*
G03*
X13675038Y520000I50038J0D01*
G01*
Y15500000D02*
G03*
X13574962Y15500000I-50038J0D01*
G01*
Y8250000D02*
G03*
X13675038Y8250000I50038J0D01*
G01*
Y7750000D02*
G03*
X13574962Y7750000I-50038J0D01*
G01*
Y520000D02*
G03*
X13675038Y520000I50038J0D01*
G01*
X13674985Y15500000D02*
G03*
X13575015Y15500000I-49985J0D01*
G01*
Y8250000D02*
G03*
X13674985Y8250000I49985J0D01*
G01*
Y7750000D02*
G03*
X13575015Y7750000I-49985J0D01*
G01*
Y520000D02*
G03*
X13674985Y520000I49985J0D01*
G01*
Y15500000D02*
G03*
X13575015Y15500000I-49985J0D01*
G01*
Y8250000D02*
G03*
X13674985Y8250000I49985J0D01*
G01*
Y7750000D02*
G03*
X13575015Y7750000I-49985J0D01*
G01*
Y520000D02*
G03*
X13674985Y520000I49985J0D01*
G01*
X13574962Y8250000D02*
Y15500000D01*
X13675038Y8250000D02*
Y15500000D01*
X13574962Y520000D02*
Y7750000D01*
X13675038Y520000D02*
Y7750000D01*
X0Y-53D02*
X20000000D01*
X20000052Y0D02*
Y16000000D01*
X0Y16000053D02*
X20000000D01*
X-53Y0D02*
Y16000000D01*
X13574962Y8250000D02*
Y15500000D01*
X13675038Y8250000D02*
Y15500000D01*
X13574962Y520000D02*
Y7750000D01*
X13675038Y520000D02*
Y7750000D01*
X13574962Y8250000D02*
Y15500000D01*
X13675038Y8250000D02*
Y15500000D01*
X13574962Y520000D02*
Y7750000D01*
X13675038Y520000D02*
Y7750000D01*
X13575015Y8250000D02*
Y15500000D01*
X13674985Y8250000D02*
Y15500000D01*
X13575015Y520000D02*
Y7750000D01*
X13674985Y520000D02*
Y7750000D01*
X13575015Y8250000D02*
Y15500000D01*
X13674985Y8250000D02*
Y15500000D01*
Y520000D02*
Y7750000D01*
X13575015Y520000D02*
Y7750000D01*
M02*
